<svg width="1420" height="406" viewBox="0 0 1420 406" fill="none" xmlns="http://www.w3.org/2000/svg">
<g clip-path="url(#clip0_87_1291)">
<rect width="1420" height="406" rx="25" fill="#06194A"/>
<g opacity="0.1">
<path d="M241.161 549.12C267.183 477.017 344.999 427.391 421.299 434.083C475.618 438.882 527.664 468.935 581.73 461.485C647.545 452.519 691.001 394.307 735.214 350.994C790.67 296.696 844.863 273.967 922.553 297.201C980.156 314.375 1027.65 353.899 1089.68 354.025C1203.75 354.278 1259.59 234.948 1296.09 144.914C1332.85 54.2485 1369.23 -41.7204 1462.34 -88.1895C1538.63 -126.324 1614.81 -122.284 1694.14 -98.0389C1732.29 -86.4217 1769.68 -78.5926 1801.26 -51.4435" stroke="#0D8EFF" stroke-miterlimit="10"/>
<path d="M1804.8 -47.1502C1772.46 -73.9205 1734.44 -82.1283 1695.78 -93.7456C1667.36 -102.332 1639.32 -108.267 1611.52 -110.793C1560.62 -115.465 1510.47 -108.141 1460.57 -83.1385C1445.16 -75.3095 1431.13 -66.2177 1418.5 -55.9894C1354.2 -3.71165 1324.39 77.2305 1292.68 153.753C1254.91 245.05 1195.29 362.99 1080.08 361.601C1017.93 360.97 970.177 321.951 912.826 304.02C861.665 288.236 820.609 291.771 782.459 310.713C763.132 320.31 744.689 333.947 725.866 350.868C681.148 391.276 636.808 445.953 571.119 454.161C554.824 456.181 538.78 455.045 522.737 452.393C485.345 446.079 448.459 431.431 410.562 429.032C334.388 423.981 257.457 474.365 231.813 546.72" stroke="#158CF9" stroke-miterlimit="10"/>
<path d="M1808.08 -42.9831C1774.99 -69.3746 1736.46 -77.9613 1697.17 -89.5786C1668.37 -98.1653 1639.82 -104.226 1611.65 -106.626C1559.98 -111.172 1508.82 -103.721 1458.67 -78.3401C1443.01 -70.3848 1428.99 -61.1667 1416.23 -50.5596C1351.3 2.85462 1321.99 85.1858 1289.4 162.592C1250.36 255.278 1186.82 371.577 1070.48 369.052C1008.45 367.915 960.323 329.275 903.099 310.839C852.443 294.676 811.387 296.822 773.237 313.996C753.91 322.582 735.34 335.21 716.392 350.868C671.294 388.372 626.07 439.513 560.381 447.09C544.086 448.984 527.916 447.847 511.873 445.195C474.355 439.26 437.342 425.623 399.571 423.981C323.524 420.824 247.477 471.839 222.212 544.447" stroke="#1D8BF2" stroke-miterlimit="10"/>
<path d="M1811.37 -38.8162C1777.51 -64.8288 1738.48 -73.668 1698.56 -85.4116C1669.38 -93.9983 1640.45 -100.059 1611.78 -102.459C1559.35 -107.005 1507.31 -99.3018 1456.65 -73.4155C1440.86 -65.3339 1426.59 -55.8633 1413.7 -45.1299C1348.14 9.42081 1319.34 93.2673 1285.86 171.305C1245.44 265.38 1178.23 379.785 1060.75 376.502C998.726 374.86 950.344 336.599 893.245 317.531C843.095 300.863 802.166 302 764.016 317.279C744.688 324.982 725.992 336.473 707.044 350.868C661.441 385.467 615.459 432.947 549.644 439.892C533.348 441.533 517.179 440.397 501.009 437.998C463.365 432.315 426.225 419.814 388.581 419.056C312.913 417.541 237.75 469.314 212.738 542.174" stroke="#2589EC" stroke-miterlimit="10"/>
<path d="M1814.65 -34.7751C1780.04 -60.4089 1740.37 -69.627 1700.08 -81.3705C1670.52 -89.9572 1641.21 -96.0184 1612.03 -98.4176C1558.85 -102.837 1505.92 -94.882 1454.88 -68.7431C1438.97 -60.5352 1424.44 -50.9383 1411.43 -39.9524C1345.11 15.6085 1316.94 100.97 1282.58 179.892C1240.89 275.23 1169.9 387.993 1051.28 383.826C989.252 381.553 940.491 343.797 883.645 324.224C833.873 307.051 793.071 307.051 754.921 320.436C735.593 327.255 716.897 337.609 697.696 350.742C651.588 382.311 604.848 426.381 539.033 432.568C522.737 434.083 506.442 432.947 490.272 430.674C452.501 425.37 415.236 413.879 377.717 414.006C302.302 414.132 227.897 466.662 203.39 539.775" stroke="#2D88E6" stroke-miterlimit="10"/>
<path d="M1818.06 -30.6083C1782.69 -55.8632 1742.52 -65.4601 1701.59 -77.0774C1671.65 -85.6641 1641.84 -91.7253 1612.28 -94.1245C1558.34 -98.5441 1504.4 -90.3363 1452.99 -63.8185C1436.82 -55.4844 1422.29 -45.635 1409.03 -34.3965C1342.07 22.3009 1314.41 109.052 1279.17 188.731C1236.09 285.458 1161.43 396.579 1041.55 391.276C979.524 388.624 930.511 351.247 873.791 331.043C824.525 313.491 783.849 312.228 745.572 323.719C726.118 329.528 707.422 338.872 688.095 350.742C641.608 379.406 593.984 419.94 528.169 425.37C511.873 426.759 495.577 425.623 479.408 423.476C441.51 418.425 404.245 407.944 366.6 408.954C291.311 410.848 217.917 464.136 193.663 537.502" stroke="#3586DF" stroke-miterlimit="10"/>
<path d="M1821.35 -26.4409C1785.22 -51.3171 1744.54 -61.1665 1702.98 -72.9101C1672.67 -81.4967 1642.47 -87.5579 1612.41 -89.9572C1557.71 -94.2505 1502.89 -85.9163 1450.97 -59.0198C1434.67 -50.5594 1419.89 -40.5837 1406.5 -29.0927C1338.79 28.7412 1311.76 117.007 1275.5 197.318C1231.16 295.434 1152.59 404.914 1031.7 398.6C969.672 395.443 920.405 358.445 863.812 337.609C815.051 319.678 774.375 317.153 736.225 326.75C716.771 331.674 697.949 339.882 678.495 350.489C631.376 376.249 583.12 413.248 517.305 418.046C500.883 419.183 484.714 418.046 468.418 416.026C430.394 411.354 393.002 401.883 355.484 403.777C280.448 407.439 207.938 461.359 184.062 534.977" stroke="#3D85D9" stroke-miterlimit="10"/>
<path d="M1824.63 -22.2743C1787.75 -46.7716 1746.44 -56.9999 1704.5 -68.7435C1673.8 -77.3302 1643.23 -83.3913 1612.66 -85.7906C1557.2 -90.0839 1501.5 -81.4972 1449.2 -54.0956C1432.78 -45.5089 1417.74 -35.2806 1404.23 -23.6633C1335.89 35.307 1309.36 124.962 1272.22 206.157C1226.49 305.535 1144.25 413.374 1022.1 406.176C960.197 402.514 910.552 366.021 854.085 344.554C805.703 326.244 765.279 322.456 727.003 330.159C707.549 334.073 688.601 341.271 669.021 350.615C621.396 373.471 572.383 406.808 506.568 410.975C490.146 411.985 473.85 410.848 457.554 408.954C419.404 404.535 381.886 396.2 344.494 398.978C269.71 404.282 197.958 458.959 174.462 532.83" stroke="#4583D3" stroke-miterlimit="10"/>
<path d="M1827.92 -18.2327C1790.27 -42.2249 1748.46 -52.9582 1705.89 -64.7018C1674.81 -73.2885 1643.74 -79.3497 1612.79 -81.7489C1556.45 -85.916 1499.85 -77.0767 1447.18 -49.4226C1430.5 -40.7096 1415.47 -30.3551 1401.7 -18.3589C1332.6 41.6216 1306.7 132.792 1268.68 214.744C1221.69 315.512 1135.66 421.709 1012.37 413.375C950.47 409.208 900.572 373.093 844.232 351.121C796.355 332.306 755.931 327.382 717.781 333.19C698.201 336.221 679.253 342.282 659.672 350.364C611.543 370.189 561.771 400.116 495.956 403.525C479.534 404.409 463.238 403.273 446.816 401.505C408.54 397.464 370.896 390.14 333.63 393.676C259.099 400.747 188.231 456.056 165.114 530.305" stroke="#4D81CC" stroke-miterlimit="10"/>
<path d="M1831.2 -14.0658C1792.8 -37.6792 1750.48 -48.6651 1707.28 -60.5349C1675.82 -69.1216 1644.37 -75.1828 1612.91 -77.4558C1555.82 -81.6228 1498.34 -72.531 1445.16 -44.498C1428.35 -35.6588 1413.07 -25.0517 1399.3 -12.9293C1329.57 48.1877 1304.18 140.747 1265.27 223.583C1216.89 325.74 1127.2 430.295 1002.77 420.951C940.87 416.279 890.593 380.669 834.505 357.94C787.134 338.746 746.71 332.432 708.56 336.473C688.98 338.494 669.905 343.544 650.198 350.363C601.437 367.284 551.034 393.676 485.219 396.454C468.797 397.085 452.375 396.075 435.953 394.433C397.55 390.645 359.779 384.458 322.64 388.877C248.235 397.716 178.378 453.782 155.64 528.158" stroke="#5580C6" stroke-miterlimit="10"/>
<path d="M1834.61 -9.89951C1795.45 -33.1341 1752.5 -44.4988 1708.79 -56.2424C1676.96 -64.8291 1645.13 -71.0165 1613.29 -73.1632C1555.44 -77.204 1497.07 -67.9859 1443.51 -39.4478C1426.59 -30.4823 1411.05 -19.7489 1397.15 -7.37401C1326.66 54.8795 1301.9 148.954 1262.11 232.422C1212.47 335.841 1118.99 438.881 993.294 428.527C931.395 423.349 880.865 388.119 824.904 364.884C777.911 345.312 737.74 337.735 699.591 339.882C680.01 341.018 660.809 344.933 640.976 350.489C591.71 364.379 540.548 387.361 474.734 389.382C458.312 389.887 441.889 388.75 425.467 387.235C386.938 383.825 349.168 378.522 312.028 383.952C237.876 394.432 168.777 451.256 146.417 525.885" stroke="#5D7EC0" stroke-miterlimit="10"/>
<path d="M1837.9 -5.73162C1797.98 -28.5874 1754.52 -40.3309 1710.31 -52.0745C1677.97 -60.6612 1645.76 -66.8486 1613.55 -68.9953C1554.93 -73.0361 1495.56 -63.4392 1441.62 -34.6486C1424.44 -25.4305 1408.9 -14.5709 1394.75 -1.94338C1323.63 61.4466 1299.38 156.91 1258.7 241.262C1207.54 345.817 1110.27 447.342 983.441 435.851C921.542 430.295 870.76 395.443 814.925 371.451C768.438 351.5 728.266 342.661 690.117 342.913C670.41 343.039 651.209 345.944 631.25 350.237C581.352 361.097 529.559 380.543 463.744 381.932C447.322 382.185 430.773 381.174 414.351 379.785C375.696 376.629 337.799 372.461 300.786 378.649C226.886 390.898 158.671 448.353 136.691 523.36" stroke="#657DB9" stroke-miterlimit="10"/>
<path d="M1841.18 -1.69128C1800.5 -24.1682 1756.54 -36.1643 1711.7 -48.0341C1678.98 -56.6208 1646.39 -62.8083 1613.67 -64.955C1554.3 -68.8695 1494.04 -59.1463 1439.6 -29.9768C1422.29 -20.6325 1406.5 -9.6466 1392.23 3.23343C1320.47 67.6336 1296.72 164.613 1255.04 249.722C1202.74 355.793 1101.68 455.802 973.714 443.175C911.942 437.114 860.78 402.767 805.071 378.143C759.089 357.813 719.045 347.711 680.768 346.07C661.062 345.186 641.608 346.953 621.649 350.11C571.119 357.939 518.695 373.976 452.88 374.608C436.458 374.734 419.909 373.724 403.361 372.461C364.579 369.683 326.556 366.526 289.669 373.597C216.022 387.614 148.692 445.827 126.964 520.96" stroke="#6D7BB3" stroke-miterlimit="10"/>
<path d="M1844.47 2.47589C1803.03 -19.6222 1758.44 -31.9971 1713.09 -43.867C1679.99 -52.4536 1647.02 -58.6411 1613.8 -60.7878C1553.67 -64.7023 1492.53 -54.7266 1437.7 -25.052C1420.27 -15.5814 1404.23 -4.34295 1389.83 8.66335C1317.32 74.2 1294.2 172.694 1251.63 258.561C1198.07 366.021 1093.22 464.389 964.113 450.751C902.341 444.185 850.801 410.344 795.344 385.089C749.741 364.379 709.823 353.015 671.673 349.479C651.967 347.711 632.386 348.343 612.427 350.237C561.266 355.035 508.21 367.663 442.395 367.663C425.847 367.663 409.424 366.526 392.75 365.516C353.842 362.99 315.692 360.97 278.932 368.925C205.411 384.583 138.965 443.554 117.742 518.94" stroke="#757AAD" stroke-miterlimit="10"/>
<path d="M1847.75 6.64289C1805.56 -15.0764 1760.46 -27.8301 1714.48 -39.7C1681 -48.4129 1647.53 -54.4741 1613.92 -56.6208C1553.04 -60.5353 1490.88 -50.3071 1435.68 -20.2536C1418.12 -10.6568 1401.83 0.707961 1387.3 13.9668C1314.16 80.6399 1291.55 180.523 1248.09 267.148C1193.14 375.997 1084.63 472.723 954.386 458.075C892.614 451.13 840.821 417.541 785.491 391.655C740.393 370.567 700.475 357.813 662.325 352.51C642.619 349.732 622.912 349.226 602.826 349.984C551.034 351.752 497.346 360.97 431.531 360.212C414.983 359.96 398.434 358.95 381.759 357.939C342.725 355.666 304.449 354.783 267.815 363.496C194.547 380.921 128.985 440.523 108.015 516.288" stroke="#7E78A6" stroke-miterlimit="10"/>
<path d="M1851.16 10.8099C1808.21 -10.4043 1762.48 -23.5369 1716.12 -35.4067C1682.27 -44.1197 1648.41 -50.1809 1614.3 -52.3276C1552.66 -56.1158 1489.62 -45.635 1433.91 -15.329C1416.1 -5.60587 1399.8 6.01142 1385.03 19.5228C1311.13 87.3324 1289.15 188.605 1244.81 275.987C1188.59 386.099 1076.29 481.31 944.912 465.526C883.14 458.075 831.094 424.991 775.89 398.474C731.172 377.007 691.506 362.99 653.356 355.793C633.523 352.131 613.817 350.489 593.605 349.984C541.18 348.595 486.861 354.53 420.92 353.015C404.371 352.636 387.823 351.626 371.148 350.742C331.988 348.848 293.711 348.848 257.078 358.571C184.062 377.764 119.384 437.998 98.7935 514.015" stroke="#8676A0" stroke-miterlimit="10"/>
<path d="M1854.45 14.9773C1810.74 -5.85803 1764.5 -19.3694 1717.51 -31.2393C1683.28 -39.9522 1649.04 -46.0134 1614.43 -48.1601C1552.03 -51.9483 1488.11 -41.215 1432.02 -10.5302C1414.08 -0.680761 1397.53 11.0628 1382.75 24.8268C1308.22 93.6465 1286.74 196.56 1241.52 284.7C1183.92 396.201 1067.83 489.897 935.311 472.976C873.539 465.147 821.241 432.442 766.163 405.167C721.95 383.321 682.284 368.042 644.134 358.95C624.302 354.278 604.469 351.5 584.13 349.858C531.074 345.312 476.123 347.838 410.182 345.691C393.634 345.186 376.959 344.049 360.284 343.418C320.997 341.777 282.595 342.913 246.087 353.52C173.198 374.355 109.405 435.472 89.1929 511.616" stroke="#8E7599" stroke-miterlimit="10"/>
<path d="M1857.73 19.018C1813.26 -1.43853 1766.52 -15.3287 1718.9 -27.1986C1684.29 -35.9115 1649.55 -41.9727 1614.56 -44.1194C1551.39 -47.7814 1486.46 -36.9217 1430 -5.73186C1411.93 4.24385 1395.13 16.24 1380.23 30.1302C1304.94 100.086 1284.09 204.389 1237.86 293.287C1178.99 406.177 1059.11 498.357 925.332 480.3C863.686 471.966 810.883 439.766 756.058 411.859C712.223 389.635 672.684 372.966 634.534 362.107C614.701 356.424 594.616 352.636 574.404 349.732C520.843 342.029 465.134 341.271 399.193 338.493C382.644 337.736 365.969 336.725 349.168 336.22C309.755 334.958 271.226 337.104 234.845 348.469C162.209 371.072 99.2992 432.821 79.4663 509.343" stroke="#967393" stroke-miterlimit="10"/>
<path d="M1861.01 23.1854C1815.79 3.10767 1768.42 -11.0351 1720.29 -23.0312C1685.3 -31.7442 1650.18 -37.9316 1614.81 -39.8258C1550.89 -43.4877 1485.07 -32.2493 1428.23 -0.806848C1409.91 9.29514 1393.11 21.4175 1377.95 35.6866C1302.03 106.779 1281.69 212.471 1234.57 302.253C1174.32 416.405 1050.77 507.071 915.858 487.877C854.212 479.164 801.156 447.343 746.457 418.804C703.128 396.201 663.715 378.27 625.565 365.516C605.606 358.95 585.52 353.899 565.182 349.858C510.989 338.999 454.649 334.958 388.707 331.422C372.159 330.538 355.358 329.528 338.557 329.149C299.017 328.139 260.362 331.422 224.107 343.671C151.724 368.042 89.6984 430.422 70.1182 507.197" stroke="#9E728D" stroke-miterlimit="10"/>
<path d="M1864.43 27.3521C1818.44 7.65321 1770.57 -6.8684 1721.93 -18.8645C1686.56 -27.5775 1651.06 -33.7649 1615.19 -35.659C1550.38 -39.1947 1483.68 -27.83 1426.46 3.99124C1408.02 14.2195 1390.96 26.5944 1375.68 40.9898C1299 113.219 1279.29 220.426 1231.29 310.839C1169.64 426.381 1042.18 515.531 906.257 495.2C844.611 485.982 791.176 454.666 736.73 425.37C693.906 402.388 654.493 383.068 616.344 368.547C596.384 360.97 576.172 354.783 555.708 349.605C500.883 335.589 443.911 328.265 377.97 323.972C361.295 322.835 344.62 321.951 327.693 321.572C288.027 320.941 249.246 325.234 213.117 338.367C140.986 364.506 79.8453 427.643 60.644 504.671" stroke="#A67086" stroke-miterlimit="10"/>
<path d="M1867.71 31.5188C1820.97 12.1988 1772.59 -2.70168 1723.32 -14.6978C1687.57 -23.4108 1651.57 -29.5982 1615.31 -31.4923C1549.75 -35.028 1482.17 -23.4108 1424.44 8.91559C1405.87 19.2701 1388.56 31.7714 1373.15 46.4192C1295.84 119.659 1276.64 228.381 1227.75 319.678C1164.84 436.608 1033.72 524.243 896.53 502.776C834.883 493.179 781.196 462.116 727.003 432.315C684.558 408.954 645.397 388.371 607.248 372.082C587.288 363.495 566.95 356.171 546.359 349.858C491.029 332.558 433.299 321.951 367.358 317.152C350.683 315.89 334.009 314.879 317.081 314.753C277.289 314.374 238.508 319.678 202.379 333.694C130.374 361.475 70.1177 425.37 51.2954 502.65" stroke="#AE6E80" stroke-miterlimit="10"/>
<path d="M1870.99 35.5596C1823.5 16.6184 1774.48 1.46541 1724.71 -10.5307C1688.58 -19.2437 1652.2 -25.4311 1615.44 -27.3253C1549.12 -30.7347 1480.65 -18.9911 1422.54 13.7141C1403.72 24.3211 1386.41 36.9486 1370.75 51.8491C1292.81 126.225 1274.11 236.337 1224.34 328.391C1160.17 446.584 1025.13 532.704 886.93 510.1C825.283 499.998 771.343 469.44 717.276 439.008C675.337 415.268 636.176 393.422 598.026 375.239C578.067 365.768 557.603 357.182 536.886 349.605C481.05 329.149 422.562 315.258 356.621 309.702C339.946 308.313 323.145 307.303 306.218 307.303C266.299 307.303 227.392 313.617 191.389 328.517C119.511 357.939 60.1386 422.466 41.6953 499.998" stroke="#B66D7A" stroke-miterlimit="10"/>
<path d="M1874.28 39.7274C1826.02 21.2913 1776.5 5.63323 1726.23 -6.36287C1689.72 -15.0758 1652.96 -21.2633 1615.69 -23.1574C1548.62 -26.5668 1479.14 -14.4445 1420.65 18.5133C1401.7 29.2466 1384.14 42.0004 1368.35 57.1534C1289.65 132.666 1271.59 244.293 1220.8 337.105C1155.37 456.687 1016.66 541.291 877.203 517.551C815.683 507.071 761.237 476.891 707.423 445.701C665.863 421.582 626.955 398.348 588.679 378.397C568.593 367.916 548.129 358.319 527.411 349.48C471.071 325.74 411.825 308.693 345.884 302.379C329.209 300.737 312.408 299.854 295.354 299.98C255.309 300.232 216.275 307.683 180.399 323.467C108.9 354.657 50.2855 419.941 32.2212 497.726" stroke="#BE6B73" stroke-miterlimit="10"/>
<path d="M1877.56 43.8941C1828.55 25.8368 1778.52 9.7999 1727.62 -2.19621C1690.73 -10.9092 1653.46 -17.0966 1615.82 -18.9908C1547.98 -22.2739 1477.62 -10.0253 1418.63 23.3113C1399.55 34.1709 1381.74 47.1772 1365.95 62.4565C1286.62 139.105 1269.06 252.121 1217.39 345.691C1150.69 466.662 1008.2 549.877 867.602 524.875C806.082 513.889 751.384 484.214 697.696 452.393C656.514 427.896 617.859 403.272 579.583 381.553C559.497 370.062 538.907 359.329 518.063 349.353C461.217 322.456 401.213 302.126 335.272 295.055C318.597 293.287 301.67 292.277 284.616 292.529C244.445 293.161 205.285 301.621 169.535 318.163C98.0357 351.247 40.4319 417.289 22.7466 495.327" stroke="#C66A6D" stroke-miterlimit="10"/>
<path d="M1880.97 48.0609C1831.2 30.3824 1780.55 14.0929 1729.13 1.97054C1691.87 -6.74242 1654.22 -12.9299 1616.07 -14.824C1547.48 -18.1071 1476.23 -5.60594 1416.86 28.2357C1397.53 39.2216 1379.72 52.3542 1363.68 67.886C1283.59 145.545 1266.66 260.076 1214.11 354.53C1145.89 476.764 999.61 558.716 858.001 532.325C796.481 521.086 741.404 491.791 687.969 459.085C647.293 434.336 608.638 408.323 570.361 384.71C550.276 372.208 529.685 360.339 508.589 349.226C451.238 319.047 390.476 295.433 324.535 287.857C307.86 285.963 290.933 284.952 273.753 285.331C233.455 286.215 194.168 295.812 158.419 313.238C87.2982 347.964 30.5787 414.637 13.146 492.927" stroke="#CE6867" stroke-miterlimit="10"/>
<path d="M1884.26 52.1024C1833.73 34.8027 1782.57 18.1345 1730.52 6.01209C1692.88 -2.70088 1654.85 -8.88835 1616.2 -10.7825C1546.85 -13.9393 1474.59 -1.1856 1414.84 32.9086C1395.38 44.0208 1377.32 57.4059 1361.15 73.1903C1280.43 151.986 1264.01 268.032 1210.57 363.117C1141.09 486.74 991.02 567.051 848.148 539.65C786.628 527.906 731.172 499.115 677.989 465.779C637.692 440.65 599.289 413.375 561.013 387.867C540.928 374.482 520.21 361.349 498.988 349.101C441.132 315.764 379.612 288.868 313.671 280.534C296.996 278.387 279.942 277.503 262.888 278.008C222.465 279.271 183.178 289.752 147.428 308.188C76.5604 344.681 20.5988 412.112 3.67139 490.655" stroke="#D66760" stroke-miterlimit="10"/>
<path d="M1887.54 56.2687C1799.12 27.0992 1709.43 -2.32279 1616.45 -6.48986C1523.48 -10.6569 1425.2 13.4616 1358.88 78.6194C1277.4 158.551 1261.61 275.987 1207.29 371.829C1136.42 496.715 982.683 575.511 838.674 547.099C731.045 525.758 641.229 454.792 551.918 391.023C462.607 327.254 361.8 266.516 252.151 270.683C131.006 275.482 19.2094 369.809 -5.80273 488.255" stroke="#DE655A" stroke-miterlimit="10"/>
<path d="M1.01855 486.74C25.5254 377.007 125.448 289.498 236.866 275.861C244.192 274.977 251.519 274.345 258.846 274.219C363.948 270.81 460.964 326.623 547.749 386.604C550.781 388.624 553.686 390.771 556.718 392.791C645.776 455.045 735.719 523.864 842.337 543.311C985.083 569.071 1135.53 488.886 1207.54 366.147C1216.76 350.363 1225.1 333.947 1232.8 317.279C1270.95 234.821 1295.46 145.798 1363.55 82.155C1397.53 50.46 1439.34 28.9933 1484.44 15.987C1528.02 3.48582 1574.76 -1.06007 1620.11 0.960331C1712.58 4.87485 1801.89 32.4028 1889.06 58.2891" stroke="#D56960" stroke-miterlimit="10"/>
<path d="M7.71387 485.224C33.2313 376.881 133.154 291.771 243.687 279.144C250.888 278.26 258.214 277.755 265.541 277.629C369.759 274.724 466.017 329.78 552.549 388.372C555.581 390.392 558.487 392.413 561.518 394.433C650.324 455.297 740.267 521.97 846 539.396C987.609 562.505 1134.78 480.805 1207.79 360.339C1217.27 344.807 1225.6 328.77 1233.56 312.481C1272.98 232.043 1299.63 146.555 1368.22 85.691C1402.46 55.385 1444.14 34.9285 1488.99 22.6798C1532.32 10.81 1578.68 6.64293 1623.9 8.41077C1715.87 12.0727 1804.67 37.7065 1890.57 60.436" stroke="#CD6E67" stroke-miterlimit="10"/>
<path d="M14.5352 483.709C41.0632 376.754 141.112 294.17 250.635 282.427C257.835 281.669 265.036 281.164 272.236 281.038C375.569 278.765 471.07 332.937 557.35 390.139C560.381 392.16 563.287 394.054 566.319 396.074C654.998 455.55 744.941 520.076 849.537 535.482C990.01 555.938 1133.89 472.723 1207.92 354.53C1217.52 339.25 1226.11 323.592 1234.32 307.682C1275 229.139 1303.8 147.186 1372.77 89.1001C1407.13 60.1831 1448.82 40.8631 1493.41 29.2458C1536.49 18.1336 1582.6 14.0928 1627.44 15.7344C1718.9 19.1438 1807.33 43.0098 1891.96 62.3298" stroke="#C4726D" stroke-miterlimit="10"/>
<path d="M21.231 482.194C48.7696 376.628 148.818 296.443 257.583 285.584C264.657 284.826 271.858 284.447 279.058 284.321C381.507 282.68 476.25 335.968 562.277 391.907C565.309 393.801 568.214 395.822 571.12 397.716C659.546 455.676 749.489 518.182 853.201 531.567C992.41 549.246 1133.01 464.642 1208.3 348.595C1218.02 333.695 1226.87 318.289 1235.33 302.884C1277.27 226.361 1308.22 147.818 1377.57 92.6359C1412.18 65.108 1453.75 46.7982 1497.96 35.9385C1540.78 25.4577 1586.51 21.7958 1631.1 23.3111C1722.06 26.4679 1809.98 48.4397 1893.35 64.6029" stroke="#BC7773" stroke-miterlimit="10"/>
<path d="M28.0522 480.679C56.6015 376.502 156.65 298.717 264.531 288.868C271.605 288.236 278.679 287.857 285.753 287.731C387.318 286.721 481.303 339.125 567.077 393.676C569.982 395.57 573.014 397.464 575.92 399.358C664.094 455.929 754.163 516.162 856.864 527.653C994.937 542.68 1132.12 456.561 1208.55 342.787C1218.4 328.139 1227.5 313.112 1236.22 298.086C1279.42 223.584 1312.52 148.576 1382.25 96.046C1416.99 69.9071 1458.55 52.6074 1502.51 42.5055C1545.08 32.656 1590.55 29.2466 1634.89 30.6356C1725.34 33.54 1812.88 53.6176 1895 66.624" stroke="#B37B7A" stroke-miterlimit="10"/>
<path d="M34.8735 479.163C64.4334 376.375 164.482 301.115 271.478 292.15C278.426 291.519 285.5 291.266 292.575 291.266C393.255 290.887 486.608 342.407 572.003 395.695C574.909 397.589 577.941 399.357 580.846 401.251C668.768 456.307 758.963 514.52 860.654 523.991C997.589 536.365 1131.49 448.731 1208.93 337.23C1218.91 322.835 1228.13 308.187 1237.1 293.539C1281.57 220.931 1316.81 149.459 1386.92 99.7071C1421.91 74.9572 1463.22 58.794 1507.05 49.3234C1549.37 40.1054 1594.6 36.9485 1638.56 38.3375C1728.63 40.9893 1815.54 59.1729 1896.38 68.896" stroke="#AB7F80" stroke-miterlimit="10"/>
<path d="M41.5688 477.648C72.1393 376.249 172.188 303.388 278.426 295.307C285.374 294.802 292.322 294.549 299.396 294.549C399.192 294.802 491.788 345.564 576.93 397.337C579.836 399.105 582.867 400.873 585.773 402.767C673.568 456.433 763.637 512.499 864.444 519.95C1000.12 529.547 1130.73 440.523 1209.31 331.169C1219.41 317.026 1228.89 302.757 1238.11 288.488C1283.84 217.9 1321.23 149.838 1391.72 102.99C1426.96 79.6294 1468.15 64.4764 1511.6 55.6372C1553.67 47.0505 1598.51 44.2725 1642.35 45.4089C1731.91 47.6819 1818.32 64.0976 1898.03 70.6639" stroke="#A28486" stroke-miterlimit="10"/>
<path d="M48.3901 476.133C79.9711 376.123 180.146 305.788 285.374 298.591C292.322 298.085 299.143 297.959 306.091 297.959C405.003 298.843 496.841 348.722 581.73 399.105C584.636 400.873 587.668 402.641 590.573 404.409C678.116 456.56 768.311 510.48 867.981 516.036C1002.52 522.981 1129.85 432.442 1209.43 325.361C1219.67 311.597 1229.39 297.58 1238.87 283.69C1285.99 215.123 1325.4 150.596 1396.39 106.4C1431.76 84.4285 1472.95 70.412 1516.15 62.2041C1557.96 54.3751 1602.55 51.7233 1646.01 52.7335C1735.07 54.7539 1821.1 69.2755 1899.42 72.5587" stroke="#9A888D" stroke-miterlimit="10"/>
<path d="M55.2114 474.618C87.803 375.871 187.978 308.061 292.322 301.747C299.143 301.369 305.965 301.116 312.912 301.242C410.94 302.758 502.02 351.752 586.657 400.873C589.562 402.515 592.468 404.283 595.499 405.924C682.789 456.687 773.111 508.459 871.77 511.995C1005.17 516.288 1129.09 424.234 1209.81 319.426C1220.17 305.914 1230.15 292.277 1239.88 278.892C1288.26 212.219 1329.82 151.228 1401.19 109.936C1436.82 89.3531 1477.87 76.3468 1520.82 68.8966C1562.38 61.699 1606.6 59.426 1649.8 60.3099C1738.35 62.0778 1823.87 74.8315 1901.06 74.8315" stroke="#918C93" stroke-miterlimit="10"/>
<path d="M61.9067 472.976C95.5089 375.745 195.684 310.334 299.27 304.905C306.091 304.526 312.786 304.399 319.608 304.652C416.751 306.672 507.073 354.909 591.457 402.641C594.363 404.283 597.268 405.924 600.174 407.566C687.211 456.813 777.533 506.692 875.307 508.081C1007.44 509.975 1128.08 416.153 1209.94 313.618C1220.55 300.359 1230.53 287.1 1240.64 274.093C1290.28 209.441 1333.86 151.859 1405.74 113.346C1441.49 94.1519 1482.42 82.2821 1525.12 75.4632C1566.43 68.8969 1610.39 66.8765 1653.34 67.6342C1741.39 69.1495 1826.53 80.0091 1902.32 76.726" stroke="#899199" stroke-miterlimit="10"/>
<path d="M68.7285 471.461C103.341 375.618 203.516 312.607 306.218 308.188C312.913 307.935 319.734 307.809 326.43 308.061C422.688 310.713 512.252 358.066 596.384 404.535C599.29 406.177 602.195 407.692 605.1 409.334C691.885 457.192 782.333 504.924 879.097 504.292C1010.1 503.408 1127.45 408.197 1210.32 307.809C1221.06 294.929 1231.29 281.922 1241.52 269.295C1292.43 206.663 1338.16 152.617 1410.42 116.881C1446.42 99.0765 1487.22 88.2169 1529.67 82.1557C1570.72 76.2208 1614.43 74.5792 1657 75.2106C1744.54 76.4733 1829.18 85.4388 1903.84 78.9988" stroke="#8095A0" stroke-miterlimit="10"/>
<path d="M75.5503 469.945C111.174 375.492 211.349 315.006 313.166 311.47C319.861 311.218 326.556 311.218 333.251 311.47C428.626 314.754 517.432 361.349 601.311 406.303C604.216 407.818 607.122 409.46 610.027 410.975C696.686 457.444 787.134 503.029 882.761 500.378C1012.62 496.842 1126.57 400.115 1210.57 302C1221.44 289.372 1231.92 276.745 1242.41 264.496C1294.58 203.758 1342.45 153.248 1415.09 120.29C1451.35 103.875 1492.02 94.1515 1534.21 88.7216C1575.14 83.5444 1618.35 82.0291 1660.79 82.5342C1747.83 83.5444 1832.09 90.6157 1905.35 80.8926" stroke="#789AA6" stroke-miterlimit="10"/>
<path d="M82.2451 468.43C118.879 375.365 219.18 317.279 320.113 314.627C326.682 314.501 333.377 314.501 339.946 314.753C434.437 318.668 522.611 364.379 606.111 407.944C609.016 409.459 611.922 410.975 614.827 412.49C701.233 457.444 791.681 500.882 886.424 496.337C1015.02 490.149 1125.68 391.907 1210.82 296.065C1221.81 283.69 1232.55 271.441 1243.29 259.571C1296.72 200.853 1346.75 153.753 1419.76 123.7C1456.15 108.673 1496.82 99.9599 1538.64 95.2877C1579.31 90.7418 1622.26 89.6054 1664.33 89.9842C1750.86 90.7418 1834.61 95.9191 1906.74 83.0391" stroke="#6F9EAC" stroke-miterlimit="10"/>
<path d="M89.0664 466.915C126.711 375.239 227.012 319.552 327.061 317.91C333.63 317.784 340.199 317.91 346.767 318.163C440.374 322.709 527.79 367.536 611.037 409.838C613.943 411.354 616.848 412.743 619.754 414.258C705.907 457.823 796.481 499.115 890.214 492.548C1017.67 483.709 1125.05 383.826 1211.33 290.382C1222.45 278.26 1233.31 266.39 1244.43 255.025C1299.12 198.328 1351.3 154.637 1424.82 127.362C1461.45 113.724 1502 106.147 1543.56 101.98C1583.99 98.0659 1626.56 97.182 1668.37 97.4345C1754.4 97.9396 1837.77 101.223 1908.64 85.0596" stroke="#66A2B3" stroke-miterlimit="10"/>
<path d="M95.8882 465.399C134.543 375.113 234.845 321.951 334.009 321.067C340.452 321.067 347.02 321.194 353.463 321.572C446.185 326.75 532.843 370.693 615.838 411.606C618.743 412.995 621.649 414.384 624.428 415.9C710.328 457.949 801.029 497.221 893.751 488.634C1020.07 477.017 1124.04 375.744 1211.46 284.448C1222.7 272.704 1233.82 261.087 1245.06 250.101C1301.02 195.298 1355.34 155.268 1429.24 130.771C1466.13 118.522 1506.42 111.956 1547.86 108.547C1588.03 105.264 1630.35 104.632 1671.91 104.759C1757.43 105.011 1840.3 106.526 1909.9 87.0801" stroke="#5EA7B9" stroke-miterlimit="10"/>
<path d="M102.583 463.884C142.249 374.987 242.55 324.224 340.957 324.35C347.399 324.35 353.842 324.603 360.284 324.982C452.122 330.79 538.022 373.85 620.764 413.5C623.67 414.889 626.449 416.278 629.354 417.541C715.128 458.202 805.703 495.2 897.54 484.719C1022.6 470.45 1123.28 367.663 1211.83 278.639C1223.2 267.148 1234.57 255.909 1246.07 245.302C1303.29 192.519 1359.76 155.9 1434.04 134.18C1471.05 123.321 1511.35 117.765 1552.4 115.113C1592.32 112.587 1634.39 112.209 1675.57 112.209C1760.59 112.209 1842.95 111.83 1911.42 89.2266" stroke="#55ABC0" stroke-miterlimit="10"/>
<path d="M109.404 462.369C150.207 374.861 250.508 326.497 347.904 327.508C354.22 327.634 360.663 327.886 366.979 328.265C457.932 334.705 543.075 376.881 625.564 415.142C628.47 416.405 631.249 417.794 634.154 419.057C719.676 458.202 810.377 493.18 901.077 480.679C1025 463.632 1122.4 359.455 1211.96 272.704C1223.46 261.466 1235.08 250.606 1246.83 240.378C1305.31 189.489 1363.93 156.405 1438.59 137.59C1475.85 128.12 1516.02 123.7 1556.83 121.68C1596.49 119.785 1638.18 119.659 1679.11 119.533C1763.74 119.28 1845.6 117.007 1912.68 91.1211" stroke="#4DB0C6" stroke-miterlimit="10"/>
<path d="M116.227 460.854C158.04 374.734 258.341 328.896 354.853 330.79C361.169 330.917 367.485 331.169 373.801 331.674C463.997 338.746 548.255 380.164 630.492 416.91C633.397 418.173 636.176 419.435 639.082 420.698C724.351 458.454 815.178 491.286 904.868 476.764C1027.65 457.065 1121.64 351.373 1212.34 266.895C1224.09 256.036 1235.71 245.429 1247.84 235.579C1307.59 186.711 1368.35 157.163 1443.39 140.999C1480.78 132.918 1520.95 129.508 1561.5 128.246C1600.91 126.983 1642.35 127.235 1683.02 126.983C1767.16 126.352 1848.51 122.311 1914.45 93.2676" stroke="#44B4CC" stroke-miterlimit="10"/>
<path d="M122.922 459.338C165.746 374.608 266.047 331.169 361.801 334.073C368.117 334.2 374.307 334.579 380.623 335.21C469.934 342.786 553.434 383.447 635.419 418.93C638.324 420.193 641.103 421.329 644.009 422.592C729.025 458.833 819.852 489.518 908.658 473.102C1030.18 450.625 1120.88 343.544 1212.72 261.213C1224.59 250.606 1236.47 240.378 1248.72 231.033C1309.74 184.185 1372.65 158.046 1448.06 144.661C1485.71 137.969 1525.62 135.696 1565.92 135.064C1605.08 134.433 1646.14 134.938 1686.56 134.559C1770.19 133.675 1851.16 127.74 1915.71 95.4141" stroke="#3CB8D3" stroke-miterlimit="10"/>
<path d="M129.743 457.822C173.578 374.481 273.879 333.568 368.748 337.23C374.938 337.482 381.128 337.861 387.318 338.493C475.745 346.7 558.487 386.477 640.219 420.571C642.998 421.708 645.903 422.97 648.682 424.107C733.446 458.959 824.399 487.244 912.194 469.187C1032.58 443.806 1120 335.462 1212.85 255.404C1224.85 245.049 1236.97 235.2 1249.48 226.234C1311.76 181.28 1376.81 158.677 1452.73 148.196C1490.63 142.893 1530.42 141.63 1570.47 141.756C1609.38 141.756 1650.18 142.64 1690.35 142.135C1773.47 140.999 1853.94 133.17 1917.35 97.6865" stroke="#33BDD9" stroke-miterlimit="10"/>
<path d="M136.438 456.308C181.283 374.355 281.584 335.842 375.569 340.514C381.759 340.766 387.823 341.271 394.013 341.903C481.555 350.742 563.666 389.635 645.019 422.34C647.798 423.476 650.703 424.613 653.482 425.749C738.119 459.212 828.947 485.351 915.731 465.273C1034.85 437.24 1118.99 327.381 1212.97 249.596C1225.1 239.62 1237.48 230.023 1250.24 221.437C1313.78 178.503 1380.98 159.436 1457.28 151.607C1495.31 147.692 1535.1 147.566 1574.89 148.197C1613.55 148.955 1654.1 149.965 1693.89 149.334C1776.5 147.945 1856.59 138.348 1918.62 99.4551" stroke="#2BC1DF" stroke-miterlimit="10"/>
<path d="M143.26 454.792C189.115 374.229 289.543 338.241 382.644 343.797C388.707 344.175 394.771 344.681 400.834 345.312C487.493 354.783 568.845 392.791 649.945 424.234C652.725 425.37 655.63 426.38 658.409 427.517C742.794 459.464 833.747 483.583 919.521 461.485C1037.51 430.8 1118.36 319.426 1213.35 243.787C1225.6 234.064 1238.11 224.846 1251.25 216.638C1316.05 175.725 1385.4 160.067 1462.08 155.142C1500.36 152.743 1540.02 153.501 1579.44 154.89C1617.84 156.279 1658.01 157.668 1697.55 156.784C1779.66 155.142 1859.25 143.651 1920.13 101.602" stroke="#22C5E6" stroke-miterlimit="10"/>
<path d="M150.081 453.15C196.947 373.976 297.375 340.387 389.591 346.827C395.655 347.206 401.592 347.837 407.656 348.469C493.43 358.571 574.025 395.695 654.872 425.749C657.651 426.759 660.43 427.769 663.336 428.906C747.468 459.464 838.421 481.31 923.311 457.317C1040.03 423.855 1117.6 311.091 1213.73 237.726C1226.11 228.255 1238.87 219.542 1252.13 211.587C1318.33 172.568 1389.7 160.445 1466.76 158.299C1505.29 157.288 1544.7 159.183 1583.99 161.203C1622.14 163.223 1662.05 164.865 1701.34 163.981C1782.95 162.087 1862.15 148.702 1921.65 103.369" stroke="#1ACAEC" stroke-miterlimit="10"/>
<path d="M156.776 451.635C204.653 373.85 305.08 342.66 396.413 350.11C402.35 350.615 408.287 351.247 414.351 352.004C499.24 362.738 579.077 399.105 659.672 427.769C662.451 428.78 665.23 429.79 668.136 430.674C752.015 459.717 843.094 479.542 926.974 453.529C1042.56 417.415 1116.71 303.136 1214.11 232.043C1226.61 222.825 1239.63 214.491 1253.14 207.041C1320.6 170.042 1394.12 161.456 1471.56 162.087C1510.21 162.466 1549.62 165.37 1588.66 168.148C1626.56 170.8 1666.1 172.694 1705.13 171.684C1786.23 169.537 1864.93 154.258 1923.29 105.769" stroke="#11CEF2" stroke-miterlimit="10"/>
<path d="M163.598 450.12C212.486 373.724 312.913 345.06 403.488 353.268C409.425 353.773 415.362 354.53 421.173 355.288C505.178 366.653 584.257 402.136 664.726 429.411C667.505 430.295 670.284 431.305 673.063 432.189C756.816 459.844 847.896 477.522 930.638 449.489C1045.09 410.723 1115.96 294.929 1214.36 226.109C1226.99 217.27 1240.26 209.188 1254.03 202.117C1322.75 167.139 1398.42 161.961 1476.23 165.371C1515.14 167.139 1554.43 171.179 1593.08 174.589C1630.73 177.998 1670.01 180.145 1708.79 179.008C1789.39 176.609 1867.71 159.436 1924.68 107.663" stroke="#09D3F9" stroke-miterlimit="10"/>
<path d="M170.419 448.604C220.317 373.597 320.871 347.332 410.435 356.55C499.999 365.768 583.878 403.524 669.526 431.178C755.3 458.959 849.79 476.637 934.301 445.574C1062.14 398.852 1131.75 255.53 1254.91 197.317C1359.76 147.818 1482.29 168.779 1597.63 181.154C1712.96 193.529 1843.58 191.004 1926.2 109.683" stroke="#00D7FF" stroke-miterlimit="10"/>
</g>
</g>
<defs>
<clipPath id="clip0_87_1291">
<rect width="1420" height="406" rx="25" fill="white"/>
</clipPath>
</defs>
</svg>
