<svg width="544" height="584" viewBox="0 0 544 584" fill="none" xmlns="http://www.w3.org/2000/svg">
<g clip-path="url(#clip0_87_545)">
<mask id="mask0_87_545" style="mask-type:luminance" maskUnits="userSpaceOnUse" x="80" y="76" width="416" height="416">
<path d="M183.921 463.479C283.134 520.759 410.018 486.73 467.325 387.472C524.632 288.213 490.66 161.313 391.447 104.032C292.234 46.7516 165.349 80.7812 108.042 180.04C50.7356 279.298 84.7074 406.198 183.921 463.479Z" fill="white"/>
</mask>
<g mask="url(#mask0_87_545)">
</g>
<mask id="mask1_87_545" style="mask-type:luminance" maskUnits="userSpaceOnUse" x="80" y="76" width="416" height="416">
<path d="M183.921 463.479C283.134 520.759 410.018 486.73 467.325 387.472C524.632 288.213 490.66 161.313 391.447 104.032C292.234 46.7516 165.349 80.7812 108.042 180.04C50.7356 279.298 84.7074 406.198 183.921 463.479Z" fill="white"/>
</mask>
<g mask="url(#mask1_87_545)">
</g>
<mask id="mask2_87_545" style="mask-type:luminance" maskUnits="userSpaceOnUse" x="80" y="76" width="416" height="416">
<path d="M183.921 463.479C283.134 520.759 410.018 486.73 467.325 387.472C524.632 288.213 490.66 161.313 391.447 104.032C292.234 46.7516 165.349 80.7812 108.042 180.04C50.7356 279.298 84.7074 406.198 183.921 463.479Z" fill="white"/>
</mask>
<g mask="url(#mask2_87_545)">
<path d="M298.55 62.9229C295.616 61.2289 291.855 62.2376 290.16 65.173C288.466 68.1085 289.473 71.8699 292.407 73.564C295.341 75.258 299.102 74.2493 300.797 71.3138C302.491 68.3784 301.484 64.617 298.55 62.9229Z" fill="#3A4351" fill-opacity="0.05"/>
</g>
<mask id="mask3_87_545" style="mask-type:luminance" maskUnits="userSpaceOnUse" x="80" y="76" width="416" height="416">
<path d="M183.921 463.479C283.134 520.759 410.018 486.73 467.325 387.472C524.632 288.213 490.66 161.313 391.447 104.032C292.234 46.7516 165.349 80.7812 108.042 180.04C50.7356 279.298 84.7074 406.198 183.921 463.479Z" fill="white"/>
</mask>
<g mask="url(#mask3_87_545)">
<path d="M341.205 87.5499C338.271 85.8559 334.51 86.8645 332.815 89.8C331.12 92.7355 332.127 96.4969 335.061 98.1909C337.996 99.8849 341.757 98.8763 343.451 95.9408C345.146 93.0053 344.176 89.2651 341.205 87.5499Z" fill="#3A4351" fill-opacity="0.05"/>
</g>
<mask id="mask4_87_545" style="mask-type:luminance" maskUnits="userSpaceOnUse" x="80" y="76" width="416" height="416">
<path d="M183.921 463.479C283.134 520.759 410.018 486.73 467.325 387.472C524.632 288.213 490.66 161.313 391.447 104.032C292.234 46.7516 165.349 80.7812 108.042 180.04C50.7356 279.298 84.7074 406.198 183.921 463.479Z" fill="white"/>
</mask>
<g mask="url(#mask4_87_545)">
<path d="M383.896 112.197C380.962 110.503 377.201 111.512 375.507 114.447C373.812 117.383 374.819 121.144 377.753 122.838C380.687 124.532 384.448 123.524 386.143 120.588C387.838 117.653 386.867 113.913 383.896 112.197Z" fill="#3A4351" fill-opacity="0.05"/>
</g>
<mask id="mask5_87_545" style="mask-type:luminance" maskUnits="userSpaceOnUse" x="80" y="76" width="416" height="416">
<path d="M183.921 463.479C283.134 520.759 410.018 486.73 467.325 387.472C524.632 288.213 490.66 161.313 391.447 104.032C292.234 46.7516 165.349 80.7812 108.042 180.04C50.7356 279.298 84.7074 406.198 183.921 463.479Z" fill="white"/>
</mask>
<g mask="url(#mask5_87_545)">
<path d="M426.588 136.846C423.654 135.152 419.893 136.16 418.198 139.096C416.503 142.031 417.51 145.793 420.444 147.487C423.378 149.181 427.139 148.172 428.834 145.237C430.529 142.301 429.522 138.54 426.588 136.846Z" fill="#3A4351" fill-opacity="0.05"/>
</g>
<mask id="mask6_87_545" style="mask-type:luminance" maskUnits="userSpaceOnUse" x="80" y="76" width="416" height="416">
<path d="M183.921 463.479C283.134 520.759 410.018 486.73 467.325 387.472C524.632 288.213 490.66 161.313 391.447 104.032C292.234 46.7516 165.349 80.7812 108.042 180.04C50.7356 279.298 84.7074 406.198 183.921 463.479Z" fill="white"/>
</mask>
<g mask="url(#mask6_87_545)">
<path d="M469.279 161.493C466.345 159.799 462.584 160.808 460.889 163.743C459.195 166.679 460.202 170.44 463.136 172.134C466.07 173.828 469.831 172.82 471.526 169.884C473.22 166.949 472.213 163.187 469.279 161.493Z" fill="#3A4351" fill-opacity="0.05"/>
</g>
<mask id="mask7_87_545" style="mask-type:luminance" maskUnits="userSpaceOnUse" x="80" y="76" width="416" height="416">
<path d="M183.921 463.479C283.134 520.759 410.018 486.73 467.325 387.472C524.632 288.213 490.66 161.313 391.447 104.032C292.234 46.7516 165.349 80.7812 108.042 180.04C50.7356 279.298 84.7074 406.198 183.921 463.479Z" fill="white"/>
</mask>
<g mask="url(#mask7_87_545)">
</g>
<mask id="mask8_87_545" style="mask-type:luminance" maskUnits="userSpaceOnUse" x="80" y="76" width="416" height="416">
<path d="M183.921 463.479C283.134 520.759 410.018 486.73 467.325 387.472C524.632 288.213 490.66 161.313 391.447 104.032C292.234 46.7516 165.349 80.7812 108.042 180.04C50.7356 279.298 84.7074 406.198 183.921 463.479Z" fill="white"/>
</mask>
<g mask="url(#mask8_87_545)">
</g>
<mask id="mask9_87_545" style="mask-type:luminance" maskUnits="userSpaceOnUse" x="80" y="76" width="416" height="416">
<path d="M183.921 463.479C283.134 520.759 410.018 486.73 467.325 387.472C524.632 288.213 490.66 161.313 391.447 104.032C292.234 46.7516 165.349 80.7812 108.042 180.04C50.7356 279.298 84.7074 406.198 183.921 463.479Z" fill="white"/>
</mask>
<g mask="url(#mask9_87_545)">
</g>
<mask id="mask10_87_545" style="mask-type:luminance" maskUnits="userSpaceOnUse" x="80" y="76" width="416" height="416">
<path d="M183.921 463.479C283.134 520.759 410.018 486.73 467.325 387.472C524.632 288.213 490.66 161.313 391.447 104.032C292.234 46.7516 165.349 80.7812 108.042 180.04C50.7356 279.298 84.7074 406.198 183.921 463.479Z" fill="white"/>
</mask>
<g mask="url(#mask10_87_545)">
<path d="M259.636 82.3839C256.702 80.6899 252.941 81.6985 251.246 84.634C249.551 87.5694 250.558 91.3309 253.492 93.0249C256.426 94.7189 260.187 93.7102 261.882 90.7748C263.577 87.8393 262.607 84.0991 259.636 82.3839Z" fill="#3A4351" fill-opacity="0.05"/>
</g>
<mask id="mask11_87_545" style="mask-type:luminance" maskUnits="userSpaceOnUse" x="80" y="76" width="416" height="416">
<path d="M183.921 463.479C283.134 520.759 410.018 486.73 467.325 387.472C524.632 288.213 490.66 161.313 391.447 104.032C292.234 46.7516 165.349 80.7812 108.042 180.04C50.7356 279.298 84.7074 406.198 183.921 463.479Z" fill="white"/>
</mask>
<g mask="url(#mask11_87_545)">
<path d="M302.328 107.032C299.393 105.338 295.633 106.347 293.938 109.282C292.243 112.218 293.25 115.979 296.184 117.673C299.118 119.367 302.879 118.359 304.574 115.423C306.269 112.488 305.262 108.726 302.328 107.032Z" fill="#3A4351" fill-opacity="0.05"/>
</g>
<mask id="mask12_87_545" style="mask-type:luminance" maskUnits="userSpaceOnUse" x="80" y="76" width="416" height="416">
<path d="M183.921 463.479C283.134 520.759 410.018 486.73 467.325 387.472C524.632 288.213 490.66 161.313 391.447 104.032C292.234 46.7516 165.349 80.7812 108.042 180.04C50.7356 279.298 84.7074 406.198 183.921 463.479Z" fill="white"/>
</mask>
<g mask="url(#mask12_87_545)">
<path d="M345.019 131.68C342.085 129.986 338.324 130.994 336.629 133.93C334.934 136.865 335.941 140.627 338.875 142.321C341.81 144.015 345.571 143.006 347.265 140.071C348.96 137.135 347.953 133.374 345.019 131.68Z" fill="#3A4351" fill-opacity="0.05"/>
</g>
<mask id="mask13_87_545" style="mask-type:luminance" maskUnits="userSpaceOnUse" x="80" y="76" width="416" height="416">
<path d="M183.921 463.479C283.134 520.759 410.018 486.73 467.325 387.472C524.632 288.213 490.66 161.313 391.447 104.032C292.234 46.7516 165.349 80.7812 108.042 180.04C50.7356 279.298 84.7074 406.198 183.921 463.479Z" fill="white"/>
</mask>
<g mask="url(#mask13_87_545)">
<path d="M387.71 156.327C384.776 154.633 381.015 155.642 379.32 158.577C377.626 161.513 378.632 165.274 381.567 166.968C384.501 168.662 388.262 167.654 389.956 164.718C391.651 161.783 390.644 158.021 387.71 156.327Z" fill="#3A4351" fill-opacity="0.05"/>
</g>
<mask id="mask14_87_545" style="mask-type:luminance" maskUnits="userSpaceOnUse" x="80" y="76" width="416" height="416">
<path d="M183.921 463.479C283.134 520.759 410.018 486.73 467.325 387.472C524.632 288.213 490.66 161.313 391.447 104.032C292.234 46.7516 165.349 80.7812 108.042 180.04C50.7356 279.298 84.7074 406.198 183.921 463.479Z" fill="white"/>
</mask>
<g mask="url(#mask14_87_545)">
<path d="M430.402 180.976C427.468 179.282 423.707 180.29 422.012 183.226C420.317 186.161 421.324 189.923 424.258 191.617C427.192 193.311 430.953 192.302 432.648 189.367C434.343 186.431 433.336 182.67 430.402 180.976Z" fill="#3A4351" fill-opacity="0.05"/>
</g>
<mask id="mask15_87_545" style="mask-type:luminance" maskUnits="userSpaceOnUse" x="80" y="76" width="416" height="416">
<path d="M183.921 463.479C283.134 520.759 410.018 486.73 467.325 387.472C524.632 288.213 490.66 161.313 391.447 104.032C292.234 46.7516 165.349 80.7812 108.042 180.04C50.7356 279.298 84.7074 406.198 183.921 463.479Z" fill="white"/>
</mask>
<g mask="url(#mask15_87_545)">
<path d="M473.093 205.623C470.159 203.929 466.398 204.938 464.703 207.873C463.009 210.809 464.016 214.57 466.95 216.264C469.884 217.958 473.645 216.95 475.34 214.014C477.034 211.079 476.027 207.317 473.093 205.623Z" fill="#3A4351" fill-opacity="0.05"/>
</g>
<mask id="mask16_87_545" style="mask-type:luminance" maskUnits="userSpaceOnUse" x="80" y="76" width="416" height="416">
<path d="M183.921 463.479C283.134 520.759 410.018 486.73 467.325 387.472C524.632 288.213 490.66 161.313 391.447 104.032C292.234 46.7516 165.349 80.7812 108.042 180.04C50.7356 279.298 84.7074 406.198 183.921 463.479Z" fill="white"/>
</mask>
<g mask="url(#mask16_87_545)">
</g>
<mask id="mask17_87_545" style="mask-type:luminance" maskUnits="userSpaceOnUse" x="80" y="76" width="416" height="416">
<path d="M183.921 463.479C283.134 520.759 410.018 486.73 467.325 387.472C524.632 288.213 490.66 161.313 391.447 104.032C292.234 46.7516 165.349 80.7812 108.042 180.04C50.7356 279.298 84.7074 406.198 183.921 463.479Z" fill="white"/>
</mask>
<g mask="url(#mask17_87_545)">
<path d="M177.895 74.7218C174.961 73.0278 171.2 74.0364 169.505 76.9719C167.81 79.9073 168.817 83.6688 171.751 85.3628C174.685 87.0568 178.446 86.0481 180.141 83.1127C181.836 80.1772 180.829 76.4158 177.895 74.7218Z" fill="#3A4351" fill-opacity="0.05"/>
</g>
<mask id="mask18_87_545" style="mask-type:luminance" maskUnits="userSpaceOnUse" x="80" y="76" width="416" height="416">
<path d="M183.921 463.479C283.134 520.759 410.018 486.73 467.325 387.472C524.632 288.213 490.66 161.313 391.447 104.032C292.234 46.7516 165.349 80.7812 108.042 180.04C50.7356 279.298 84.7074 406.198 183.921 463.479Z" fill="white"/>
</mask>
<g mask="url(#mask18_87_545)">
<path d="M220.586 99.3692C217.652 97.6752 213.891 98.6839 212.196 101.619C210.501 104.555 211.508 108.316 214.443 110.01C217.377 111.704 221.138 110.696 222.832 107.76C224.527 104.825 223.52 101.063 220.586 99.3692Z" fill="#3A4351" fill-opacity="0.05"/>
</g>
<mask id="mask19_87_545" style="mask-type:luminance" maskUnits="userSpaceOnUse" x="80" y="76" width="416" height="416">
<path d="M183.921 463.479C283.134 520.759 410.018 486.73 467.325 387.472C524.632 288.213 490.66 161.313 391.447 104.032C292.234 46.7516 165.349 80.7812 108.042 180.04C50.7356 279.298 84.7074 406.198 183.921 463.479Z" fill="white"/>
</mask>
<g mask="url(#mask19_87_545)">
<path d="M263.278 124.018C260.343 122.324 256.582 123.332 254.888 126.268C253.193 129.203 254.2 132.965 257.134 134.659C260.068 136.353 263.829 135.344 265.524 132.409C267.219 129.473 266.212 125.712 263.278 124.018Z" fill="#3A4351" fill-opacity="0.05"/>
</g>
<mask id="mask20_87_545" style="mask-type:luminance" maskUnits="userSpaceOnUse" x="80" y="76" width="416" height="416">
<path d="M183.921 463.479C283.134 520.759 410.018 486.73 467.325 387.472C524.632 288.213 490.66 161.313 391.447 104.032C292.234 46.7516 165.349 80.7812 108.042 180.04C50.7356 279.298 84.7074 406.198 183.921 463.479Z" fill="white"/>
</mask>
<g mask="url(#mask20_87_545)">
<path d="M305.932 148.644C302.998 146.95 299.237 147.958 297.542 150.894C295.848 153.829 296.855 157.591 299.789 159.285C302.723 160.979 306.484 159.97 308.179 157.035C309.91 154.12 308.903 150.359 305.932 148.644Z" fill="#3A4351" fill-opacity="0.05"/>
</g>
<mask id="mask21_87_545" style="mask-type:luminance" maskUnits="userSpaceOnUse" x="80" y="76" width="416" height="416">
<path d="M183.921 463.479C283.134 520.759 410.018 486.73 467.325 387.472C524.632 288.213 490.66 161.313 391.447 104.032C292.234 46.7516 165.349 80.7812 108.042 180.04C50.7356 279.298 84.7074 406.198 183.921 463.479Z" fill="white"/>
</mask>
<g mask="url(#mask21_87_545)">
<path d="M348.624 173.292C345.69 171.598 341.929 172.607 340.234 175.542C338.539 178.478 339.546 182.239 342.48 183.933C345.414 185.627 349.175 184.618 350.87 181.683C352.601 178.769 351.595 175.007 348.624 173.292Z" fill="#3A4351" fill-opacity="0.05"/>
</g>
<mask id="mask22_87_545" style="mask-type:luminance" maskUnits="userSpaceOnUse" x="80" y="76" width="416" height="416">
<path d="M183.921 463.479C283.134 520.759 410.018 486.73 467.325 387.472C524.632 288.213 490.66 161.313 391.447 104.032C292.234 46.7516 165.349 80.7812 108.042 180.04C50.7356 279.298 84.7074 406.198 183.921 463.479Z" fill="white"/>
</mask>
<g mask="url(#mask22_87_545)">
<path d="M391.315 197.94C388.381 196.246 384.62 197.254 382.925 200.19C381.23 203.125 382.237 206.887 385.172 208.581C388.106 210.275 391.867 209.266 393.561 206.33C395.293 203.416 394.249 199.634 391.315 197.94Z" fill="#3A4351" fill-opacity="0.05"/>
</g>
<mask id="mask23_87_545" style="mask-type:luminance" maskUnits="userSpaceOnUse" x="80" y="76" width="416" height="416">
<path d="M183.921 463.479C283.134 520.759 410.018 486.73 467.325 387.472C524.632 288.213 490.66 161.313 391.447 104.032C292.234 46.7516 165.349 80.7812 108.042 180.04C50.7356 279.298 84.7074 406.198 183.921 463.479Z" fill="white"/>
</mask>
<g mask="url(#mask23_87_545)">
<path d="M434.007 222.588C431.072 220.894 427.311 221.903 425.617 224.838C423.922 227.774 424.929 231.535 427.863 233.229C430.797 234.923 434.558 233.914 436.253 230.979C437.984 228.065 436.941 224.282 434.007 222.588Z" fill="#3A4351" fill-opacity="0.05"/>
</g>
<mask id="mask24_87_545" style="mask-type:luminance" maskUnits="userSpaceOnUse" x="80" y="76" width="416" height="416">
<path d="M183.921 463.479C283.134 520.759 410.018 486.73 467.325 387.472C524.632 288.213 490.66 161.313 391.447 104.032C292.234 46.7516 165.349 80.7812 108.042 180.04C50.7356 279.298 84.7074 406.198 183.921 463.479Z" fill="white"/>
</mask>
<g mask="url(#mask24_87_545)">
<path d="M476.698 247.235C473.764 245.541 470.003 246.55 468.308 249.486C466.613 252.421 467.62 256.182 470.554 257.876C473.488 259.57 477.249 258.562 478.944 255.626C480.639 252.691 479.632 248.929 476.698 247.235Z" fill="#3A4351" fill-opacity="0.05"/>
</g>
<mask id="mask25_87_545" style="mask-type:luminance" maskUnits="userSpaceOnUse" x="80" y="76" width="416" height="416">
<path d="M183.921 463.479C283.134 520.759 410.018 486.73 467.325 387.472C524.632 288.213 490.66 161.313 391.447 104.032C292.234 46.7516 165.349 80.7812 108.042 180.04C50.7356 279.298 84.7074 406.198 183.921 463.479Z" fill="white"/>
</mask>
<g mask="url(#mask25_87_545)">
</g>
<mask id="mask26_87_545" style="mask-type:luminance" maskUnits="userSpaceOnUse" x="80" y="76" width="416" height="416">
<path d="M183.921 463.479C283.134 520.759 410.018 486.73 467.325 387.472C524.632 288.213 490.66 161.313 391.447 104.032C292.234 46.7516 165.349 80.7812 108.042 180.04C50.7356 279.298 84.7074 406.198 183.921 463.479Z" fill="white"/>
</mask>
<g mask="url(#mask26_87_545)">
<path d="M181.672 118.83C178.738 117.136 174.977 118.145 173.282 121.08C171.587 124.016 172.594 127.777 175.528 129.471C178.462 131.165 182.223 130.157 183.918 127.221C185.65 124.307 184.643 120.545 181.672 118.83Z" fill="#3A4351" fill-opacity="0.05"/>
</g>
<mask id="mask27_87_545" style="mask-type:luminance" maskUnits="userSpaceOnUse" x="80" y="76" width="416" height="416">
<path d="M183.921 463.479C283.134 520.759 410.018 486.73 467.325 387.472C524.632 288.213 490.66 161.313 391.447 104.032C292.234 46.7516 165.349 80.7812 108.042 180.04C50.7356 279.298 84.7074 406.198 183.921 463.479Z" fill="white"/>
</mask>
<g mask="url(#mask27_87_545)">
<path d="M224.363 143.478C221.429 141.784 217.668 142.792 215.973 145.728C214.279 148.663 215.286 152.425 218.22 154.119C221.154 155.813 224.915 154.804 226.61 151.869C228.341 148.954 227.334 145.193 224.363 143.478Z" fill="#3A4351" fill-opacity="0.05"/>
</g>
<mask id="mask28_87_545" style="mask-type:luminance" maskUnits="userSpaceOnUse" x="80" y="76" width="416" height="416">
<path d="M183.921 463.479C283.134 520.759 410.018 486.73 467.325 387.472C524.632 288.213 490.66 161.313 391.447 104.032C292.234 46.7516 165.349 80.7812 108.042 180.04C50.7356 279.298 84.7074 406.198 183.921 463.479Z" fill="white"/>
</mask>
<g mask="url(#mask28_87_545)">
<path d="M267.055 168.126C264.121 166.432 260.36 167.441 258.665 170.376C256.97 173.312 257.977 177.073 260.911 178.767C263.845 180.461 267.606 179.452 269.301 176.517C271.032 173.603 269.989 169.82 267.055 168.126Z" fill="#3A4351" fill-opacity="0.05"/>
</g>
<mask id="mask29_87_545" style="mask-type:luminance" maskUnits="userSpaceOnUse" x="80" y="76" width="416" height="416">
<path d="M183.921 463.479C283.134 520.759 410.018 486.73 467.325 387.472C524.632 288.213 490.66 161.313 391.447 104.032C292.234 46.7516 165.349 80.7812 108.042 180.04C50.7356 279.298 84.7074 406.198 183.921 463.479Z" fill="white"/>
</mask>
<g mask="url(#mask29_87_545)">
<path d="M309.746 192.774C306.812 191.08 303.051 192.088 301.356 195.024C299.661 197.959 300.668 201.721 303.602 203.415C306.537 205.109 310.298 204.1 311.992 201.164C313.687 198.229 312.68 194.468 309.746 192.774Z" fill="#3A4351" fill-opacity="0.05"/>
</g>
<mask id="mask30_87_545" style="mask-type:luminance" maskUnits="userSpaceOnUse" x="80" y="76" width="416" height="416">
<path d="M183.921 463.479C283.134 520.759 410.018 486.73 467.325 387.472C524.632 288.213 490.66 161.313 391.447 104.032C292.234 46.7516 165.349 80.7812 108.042 180.04C50.7356 279.298 84.7074 406.198 183.921 463.479Z" fill="white"/>
</mask>
<g mask="url(#mask30_87_545)">
<path d="M352.438 217.422C349.504 215.728 345.743 216.737 344.048 219.672C342.353 222.608 343.36 226.369 346.294 228.063C349.228 229.757 352.989 228.748 354.684 225.813C356.379 222.877 355.372 219.116 352.438 217.422Z" fill="#3A4351" fill-opacity="0.05"/>
</g>
<mask id="mask31_87_545" style="mask-type:luminance" maskUnits="userSpaceOnUse" x="80" y="76" width="416" height="416">
<path d="M183.921 463.479C283.134 520.759 410.018 486.73 467.325 387.472C524.632 288.213 490.66 161.313 391.447 104.032C292.234 46.7516 165.349 80.7812 108.042 180.04C50.7356 279.298 84.7074 406.198 183.921 463.479Z" fill="white"/>
</mask>
<g mask="url(#mask31_87_545)">
<path d="M399.684 234.181C396.75 232.487 392.989 233.495 391.294 236.431C389.599 239.366 390.606 243.128 393.54 244.822C396.474 246.516 400.235 245.507 401.93 242.572C403.64 239.694 402.655 235.896 399.684 234.181Z" fill="#3A4351" fill-opacity="0.05"/>
</g>
<mask id="mask32_87_545" style="mask-type:luminance" maskUnits="userSpaceOnUse" x="80" y="76" width="416" height="416">
<path d="M183.921 463.479C283.134 520.759 410.018 486.73 467.325 387.472C524.632 288.213 490.66 161.313 391.447 104.032C292.234 46.7516 165.349 80.7812 108.042 180.04C50.7356 279.298 84.7074 406.198 183.921 463.479Z" fill="white"/>
</mask>
<g mask="url(#mask32_87_545)">
<path d="M437.821 266.718C434.886 265.024 431.125 266.033 429.431 268.968C427.736 271.903 428.743 275.665 431.677 277.359C434.611 279.053 438.372 278.044 440.067 275.109C441.762 272.173 440.755 268.412 437.821 266.718Z" fill="#3A4351" fill-opacity="0.05"/>
</g>
<mask id="mask33_87_545" style="mask-type:luminance" maskUnits="userSpaceOnUse" x="80" y="76" width="416" height="416">
<path d="M183.921 463.479C283.134 520.759 410.018 486.73 467.325 387.472C524.632 288.213 490.66 161.313 391.447 104.032C292.234 46.7516 165.349 80.7812 108.042 180.04C50.7356 279.298 84.7074 406.198 183.921 463.479Z" fill="white"/>
</mask>
<g mask="url(#mask33_87_545)">
<path d="M480.512 291.365C477.578 289.671 473.817 290.68 472.122 293.615C470.427 296.551 471.434 300.312 474.368 302.006C477.302 303.7 481.063 302.692 482.758 299.756C484.453 296.821 483.446 293.059 480.512 291.365Z" fill="#3A4351" fill-opacity="0.05"/>
</g>
<mask id="mask34_87_545" style="mask-type:luminance" maskUnits="userSpaceOnUse" x="80" y="76" width="416" height="416">
<path d="M183.921 463.479C283.134 520.759 410.018 486.73 467.325 387.472C524.632 288.213 490.66 161.313 391.447 104.032C292.234 46.7516 165.349 80.7812 108.042 180.04C50.7356 279.298 84.7074 406.198 183.921 463.479Z" fill="white"/>
</mask>
<g mask="url(#mask34_87_545)">
</g>
<mask id="mask35_87_545" style="mask-type:luminance" maskUnits="userSpaceOnUse" x="80" y="76" width="416" height="416">
<path d="M183.921 463.479C283.134 520.759 410.018 486.73 467.325 387.472C524.632 288.213 490.66 161.313 391.447 104.032C292.234 46.7516 165.349 80.7812 108.042 180.04C50.7356 279.298 84.7074 406.198 183.921 463.479Z" fill="white"/>
</mask>
<g mask="url(#mask35_87_545)">
<path d="M140.567 139.375C137.633 137.681 133.872 138.69 132.177 141.625C130.482 144.561 131.489 148.322 134.424 150.016C137.358 151.71 141.119 150.701 142.813 147.766C144.508 144.831 143.501 141.069 140.567 139.375Z" fill="#3A4351" fill-opacity="0.05"/>
</g>
<mask id="mask36_87_545" style="mask-type:luminance" maskUnits="userSpaceOnUse" x="80" y="76" width="416" height="416">
<path d="M183.921 463.479C283.134 520.759 410.018 486.73 467.325 387.472C524.632 288.213 490.66 161.313 391.447 104.032C292.234 46.7516 165.349 80.7812 108.042 180.04C50.7356 279.298 84.7074 406.198 183.921 463.479Z" fill="white"/>
</mask>
<g mask="url(#mask36_87_545)">
<path d="M183.259 164.023C180.324 162.329 176.563 163.337 174.869 166.273C173.174 169.208 174.181 172.97 177.115 174.664C180.049 176.358 183.81 175.349 185.505 172.413C187.2 169.478 186.193 165.717 183.259 164.023Z" fill="#3A4351" fill-opacity="0.05"/>
</g>
<mask id="mask37_87_545" style="mask-type:luminance" maskUnits="userSpaceOnUse" x="80" y="76" width="416" height="416">
<path d="M183.921 463.479C283.134 520.759 410.018 486.73 467.325 387.472C524.632 288.213 490.66 161.313 391.447 104.032C292.234 46.7516 165.349 80.7812 108.042 180.04C50.7356 279.298 84.7074 406.198 183.921 463.479Z" fill="white"/>
</mask>
<g mask="url(#mask37_87_545)">
<path d="M225.95 188.671C223.016 186.977 219.255 187.986 217.56 190.921C215.865 193.857 216.872 197.618 219.806 199.312C222.74 201.006 226.501 199.997 228.196 197.062C229.891 194.126 228.884 190.365 225.95 188.671Z" fill="#3A4351" fill-opacity="0.05"/>
</g>
<mask id="mask38_87_545" style="mask-type:luminance" maskUnits="userSpaceOnUse" x="80" y="76" width="416" height="416">
<path d="M183.921 463.479C283.134 520.759 410.018 486.73 467.325 387.472C524.632 288.213 490.66 161.313 391.447 104.032C292.234 46.7516 165.349 80.7812 108.042 180.04C50.7356 279.298 84.7074 406.198 183.921 463.479Z" fill="white"/>
</mask>
<g mask="url(#mask38_87_545)">
<path d="M268.605 213.297C265.671 211.603 261.91 212.612 260.215 215.547C258.52 218.483 259.527 222.244 262.461 223.938C265.395 225.632 269.156 224.623 270.851 221.688C272.582 218.774 271.575 215.012 268.605 213.297Z" fill="#3A4351" fill-opacity="0.05"/>
</g>
<mask id="mask39_87_545" style="mask-type:luminance" maskUnits="userSpaceOnUse" x="80" y="76" width="416" height="416">
<path d="M183.921 463.479C283.134 520.759 410.018 486.73 467.325 387.472C524.632 288.213 490.66 161.313 391.447 104.032C292.234 46.7516 165.349 80.7812 108.042 180.04C50.7356 279.298 84.7074 406.198 183.921 463.479Z" fill="white"/>
</mask>
<g mask="url(#mask39_87_545)">
<path d="M311.296 237.945C308.362 236.251 304.601 237.26 302.906 240.195C301.211 243.131 302.218 246.892 305.153 248.586C308.087 250.28 311.848 249.272 313.542 246.336C315.274 243.422 314.267 239.661 311.296 237.945Z" fill="#3A4351" fill-opacity="0.05"/>
</g>
<mask id="mask40_87_545" style="mask-type:luminance" maskUnits="userSpaceOnUse" x="80" y="76" width="416" height="416">
<path d="M183.921 463.479C283.134 520.759 410.018 486.73 467.325 387.472C524.632 288.213 490.66 161.313 391.447 104.032C292.234 46.7516 165.349 80.7812 108.042 180.04C50.7356 279.298 84.7074 406.198 183.921 463.479Z" fill="white"/>
</mask>
<g mask="url(#mask40_87_545)">
<path d="M353.988 262.593C351.053 260.899 347.292 261.908 345.598 264.843C343.903 267.778 344.91 271.54 347.844 273.234C350.778 274.928 354.539 273.919 356.234 270.984C357.965 268.069 356.922 264.287 353.988 262.593Z" fill="#3A4351" fill-opacity="0.05"/>
</g>
<mask id="mask41_87_545" style="mask-type:luminance" maskUnits="userSpaceOnUse" x="80" y="76" width="416" height="416">
<path d="M183.921 463.479C283.134 520.759 410.018 486.73 467.325 387.472C524.632 288.213 490.66 161.313 391.447 104.032C292.234 46.7516 165.349 80.7812 108.042 180.04C50.7356 279.298 84.7074 406.198 183.921 463.479Z" fill="white"/>
</mask>
<g mask="url(#mask41_87_545)">
<path d="M396.679 287.241C393.745 285.547 389.984 286.556 388.289 289.491C386.594 292.427 387.601 296.188 390.535 297.882C393.469 299.576 397.23 298.568 398.925 295.632C400.657 292.718 399.613 288.935 396.679 287.241Z" fill="#3A4351" fill-opacity="0.05"/>
</g>
<mask id="mask42_87_545" style="mask-type:luminance" maskUnits="userSpaceOnUse" x="80" y="76" width="416" height="416">
<path d="M183.921 463.479C283.134 520.759 410.018 486.73 467.325 387.472C524.632 288.213 490.66 161.313 391.447 104.032C292.234 46.7516 165.349 80.7812 108.042 180.04C50.7356 279.298 84.7074 406.198 183.921 463.479Z" fill="white"/>
</mask>
<g mask="url(#mask42_87_545)">
<path d="M439.37 311.889C436.436 310.195 432.675 311.203 430.98 314.139C429.286 317.074 430.293 320.836 433.227 322.53C436.161 324.224 439.922 323.215 441.617 320.28C443.311 317.344 442.304 313.583 439.37 311.889Z" fill="#3A4351" fill-opacity="0.05"/>
</g>
<mask id="mask43_87_545" style="mask-type:luminance" maskUnits="userSpaceOnUse" x="80" y="76" width="416" height="416">
<path d="M183.921 463.479C283.134 520.759 410.018 486.73 467.325 387.472C524.632 288.213 490.66 161.313 391.447 104.032C292.234 46.7516 165.349 80.7812 108.042 180.04C50.7356 279.298 84.7074 406.198 183.921 463.479Z" fill="white"/>
</mask>
<g mask="url(#mask43_87_545)">
<path d="M482.062 336.537C479.128 334.843 475.367 335.852 473.672 338.787C471.977 341.723 472.984 345.484 475.918 347.178C478.852 348.872 482.613 347.864 484.308 344.928C486.003 341.993 484.996 338.231 482.062 336.537Z" fill="#3A4351" fill-opacity="0.05"/>
</g>
<mask id="mask44_87_545" style="mask-type:luminance" maskUnits="userSpaceOnUse" x="80" y="76" width="416" height="416">
<path d="M183.921 463.479C283.134 520.759 410.018 486.73 467.325 387.472C524.632 288.213 490.66 161.313 391.447 104.032C292.234 46.7516 165.349 80.7812 108.042 180.04C50.7356 279.298 84.7074 406.198 183.921 463.479Z" fill="white"/>
</mask>
<g mask="url(#mask44_87_545)">
<path d="M144.344 183.483C141.41 181.789 137.649 182.798 135.954 185.734C134.26 188.669 135.267 192.43 138.201 194.124C141.135 195.819 144.896 194.81 146.591 191.874C148.322 188.96 147.315 185.199 144.344 183.483Z" fill="#3A4351" fill-opacity="0.05"/>
</g>
<mask id="mask45_87_545" style="mask-type:luminance" maskUnits="userSpaceOnUse" x="80" y="76" width="416" height="416">
<path d="M183.921 463.479C283.134 520.759 410.018 486.73 467.325 387.472C524.632 288.213 490.66 161.313 391.447 104.032C292.234 46.7516 165.349 80.7812 108.042 180.04C50.7356 279.298 84.7074 406.198 183.921 463.479Z" fill="white"/>
</mask>
<g mask="url(#mask45_87_545)">
<path d="M187.036 208.132C184.102 206.438 180.341 207.447 178.646 210.382C176.951 213.317 177.958 217.079 180.892 218.773C183.826 220.467 187.587 219.458 189.282 216.523C191.014 213.609 190.007 209.847 187.036 208.132Z" fill="#3A4351" fill-opacity="0.05"/>
</g>
<mask id="mask46_87_545" style="mask-type:luminance" maskUnits="userSpaceOnUse" x="80" y="76" width="416" height="416">
<path d="M183.921 463.479C283.134 520.759 410.018 486.73 467.325 387.472C524.632 288.213 490.66 161.313 391.447 104.032C292.234 46.7516 165.349 80.7812 108.042 180.04C50.7356 279.298 84.7074 406.198 183.921 463.479Z" fill="white"/>
</mask>
<g mask="url(#mask46_87_545)">
<path d="M229.727 232.779C226.793 231.085 223.032 232.094 221.337 235.029C219.642 237.965 220.649 241.726 223.583 243.42C226.518 245.114 230.279 244.106 231.973 241.17C233.705 238.256 232.661 234.473 229.727 232.779Z" fill="#3A4351" fill-opacity="0.05"/>
</g>
<mask id="mask47_87_545" style="mask-type:luminance" maskUnits="userSpaceOnUse" x="80" y="76" width="416" height="416">
<path d="M183.921 463.479C283.134 520.759 410.018 486.73 467.325 387.472C524.632 288.213 490.66 161.313 391.447 104.032C292.234 46.7516 165.349 80.7812 108.042 180.04C50.7356 279.298 84.7074 406.198 183.921 463.479Z" fill="white"/>
</mask>
<g mask="url(#mask47_87_545)">
<path d="M272.418 257.427C269.484 255.733 265.723 256.741 264.029 259.677C262.334 262.612 263.341 266.374 266.275 268.068C269.209 269.762 272.97 268.753 274.665 265.818C276.36 262.882 275.353 259.121 272.418 257.427Z" fill="#3A4351" fill-opacity="0.05"/>
</g>
<mask id="mask48_87_545" style="mask-type:luminance" maskUnits="userSpaceOnUse" x="80" y="76" width="416" height="416">
<path d="M183.921 463.479C283.134 520.759 410.018 486.73 467.325 387.472C524.632 288.213 490.66 161.313 391.447 104.032C292.234 46.7516 165.349 80.7812 108.042 180.04C50.7356 279.298 84.7074 406.198 183.921 463.479Z" fill="white"/>
</mask>
<g mask="url(#mask48_87_545)">
<path d="M315.11 282.075C312.176 280.381 308.415 281.39 306.72 284.325C305.025 287.261 306.032 291.022 308.966 292.716C311.901 294.41 315.662 293.402 317.356 290.466C319.051 287.531 318.044 283.769 315.11 282.075Z" fill="#3A4351" fill-opacity="0.05"/>
</g>
<mask id="mask49_87_545" style="mask-type:luminance" maskUnits="userSpaceOnUse" x="80" y="76" width="416" height="416">
<path d="M183.921 463.479C283.134 520.759 410.018 486.73 467.325 387.472C524.632 288.213 490.66 161.313 391.447 104.032C292.234 46.7516 165.349 80.7812 108.042 180.04C50.7356 279.298 84.7074 406.198 183.921 463.479Z" fill="white"/>
</mask>
<g mask="url(#mask49_87_545)">
<path d="M357.801 306.723C354.867 305.029 351.106 306.037 349.412 308.973C347.717 311.908 348.724 315.67 351.658 317.364C354.592 319.058 358.353 318.049 360.048 315.114C361.743 312.178 360.736 308.417 357.801 306.723Z" fill="#3A4351" fill-opacity="0.05"/>
</g>
<mask id="mask50_87_545" style="mask-type:luminance" maskUnits="userSpaceOnUse" x="80" y="76" width="416" height="416">
<path d="M183.921 463.479C283.134 520.759 410.018 486.73 467.325 387.472C524.632 288.213 490.66 161.313 391.447 104.032C292.234 46.7516 165.349 80.7812 108.042 180.04C50.7356 279.298 84.7074 406.198 183.921 463.479Z" fill="white"/>
</mask>
<g mask="url(#mask50_87_545)">
<path d="M400.493 331.371C397.559 329.677 393.798 330.686 392.103 333.621C390.408 336.557 391.415 340.318 394.349 342.012C397.283 343.706 401.044 342.698 402.739 339.762C404.434 336.827 403.427 333.065 400.493 331.371Z" fill="#3A4351" fill-opacity="0.05"/>
</g>
<mask id="mask51_87_545" style="mask-type:luminance" maskUnits="userSpaceOnUse" x="80" y="76" width="416" height="416">
<path d="M183.921 463.479C283.134 520.759 410.018 486.73 467.325 387.472C524.632 288.213 490.66 161.313 391.447 104.032C292.234 46.7516 165.349 80.7812 108.042 180.04C50.7356 279.298 84.7074 406.198 183.921 463.479Z" fill="white"/>
</mask>
<g mask="url(#mask51_87_545)">
<path d="M443.184 356.02C440.25 354.326 436.489 355.334 434.794 358.27C433.1 361.205 434.107 364.967 437.041 366.661C439.975 368.355 443.736 367.346 445.431 364.411C447.125 361.475 446.118 357.714 443.184 356.02Z" fill="#3A4351" fill-opacity="0.05"/>
</g>
<mask id="mask52_87_545" style="mask-type:luminance" maskUnits="userSpaceOnUse" x="80" y="76" width="416" height="416">
<path d="M183.921 463.479C283.134 520.759 410.018 486.73 467.325 387.472C524.632 288.213 490.66 161.313 391.447 104.032C292.234 46.7516 165.349 80.7812 108.042 180.04C50.7356 279.298 84.7074 406.198 183.921 463.479Z" fill="white"/>
</mask>
<g mask="url(#mask52_87_545)">
<path d="M485.839 380.647C482.905 378.953 479.144 379.961 477.449 382.897C475.754 385.832 476.761 389.594 479.695 391.288C482.629 392.982 486.39 391.973 488.085 389.037C489.817 386.123 488.81 382.362 485.839 380.647Z" fill="#3A4351" fill-opacity="0.05"/>
</g>
<mask id="mask53_87_545" style="mask-type:luminance" maskUnits="userSpaceOnUse" x="80" y="76" width="416" height="416">
<path d="M183.921 463.479C283.134 520.759 410.018 486.73 467.325 387.472C524.632 288.213 490.66 161.313 391.447 104.032C292.234 46.7516 165.349 80.7812 108.042 180.04C50.7356 279.298 84.7074 406.198 183.921 463.479Z" fill="white"/>
</mask>
<g mask="url(#mask53_87_545)">
<path d="M105.294 200.469C102.36 198.775 98.5993 199.783 96.9045 202.719C95.2097 205.654 96.2167 209.416 99.1508 211.11C102.085 212.804 105.846 211.795 107.541 208.86C109.235 205.924 108.229 202.163 105.294 200.469Z" fill="#3A4351" fill-opacity="0.05"/>
</g>
<mask id="mask54_87_545" style="mask-type:luminance" maskUnits="userSpaceOnUse" x="80" y="76" width="416" height="416">
<path d="M183.921 463.479C283.134 520.759 410.018 486.73 467.325 387.472C524.632 288.213 490.66 161.313 391.447 104.032C292.234 46.7516 165.349 80.7812 108.042 180.04C50.7356 279.298 84.7074 406.198 183.921 463.479Z" fill="white"/>
</mask>
<g mask="url(#mask54_87_545)">
<path d="M147.986 225.116C145.052 223.422 141.291 224.431 139.596 227.366C137.901 230.302 138.908 234.063 141.842 235.757C144.776 237.451 148.537 236.443 150.232 233.507C151.927 230.572 150.92 226.81 147.986 225.116Z" fill="#3A4351" fill-opacity="0.05"/>
</g>
<mask id="mask55_87_545" style="mask-type:luminance" maskUnits="userSpaceOnUse" x="80" y="76" width="416" height="416">
<path d="M183.921 463.479C283.134 520.759 410.018 486.73 467.325 387.472C524.632 288.213 490.66 161.313 391.447 104.032C292.234 46.7516 165.349 80.7812 108.042 180.04C50.7356 279.298 84.7074 406.198 183.921 463.479Z" fill="white"/>
</mask>
<g mask="url(#mask55_87_545)">
<path d="M190.677 249.765C187.743 248.071 183.982 249.079 182.287 252.015C180.593 254.95 181.599 258.712 184.534 260.406C187.468 262.1 191.229 261.091 192.924 258.156C194.618 255.22 193.611 251.459 190.677 249.765Z" fill="#3A4351" fill-opacity="0.05"/>
</g>
<mask id="mask56_87_545" style="mask-type:luminance" maskUnits="userSpaceOnUse" x="80" y="76" width="416" height="416">
<path d="M183.921 463.479C283.134 520.759 410.018 486.73 467.325 387.472C524.632 288.213 490.66 161.313 391.447 104.032C292.234 46.7516 165.349 80.7812 108.042 180.04C50.7356 279.298 84.7074 406.198 183.921 463.479Z" fill="white"/>
</mask>
<g mask="url(#mask56_87_545)">
<path d="M233.332 274.392C230.398 272.698 226.637 273.706 224.942 276.642C223.247 279.577 224.254 283.339 227.188 285.033C230.123 286.727 233.884 285.718 235.578 282.783C237.31 279.868 236.303 276.107 233.332 274.392Z" fill="#3A4351" fill-opacity="0.05"/>
</g>
<mask id="mask57_87_545" style="mask-type:luminance" maskUnits="userSpaceOnUse" x="80" y="76" width="416" height="416">
<path d="M183.921 463.479C283.134 520.759 410.018 486.73 467.325 387.472C524.632 288.213 490.66 161.313 391.447 104.032C292.234 46.7516 165.349 80.7812 108.042 180.04C50.7356 279.298 84.7074 406.198 183.921 463.479Z" fill="white"/>
</mask>
<g mask="url(#mask57_87_545)">
<path d="M276.023 299.039C273.089 297.345 269.328 298.354 267.634 301.289C265.939 304.225 266.946 307.986 269.88 309.68C272.814 311.374 276.575 310.366 278.27 307.43C280.001 304.516 278.994 300.754 276.023 299.039Z" fill="#3A4351" fill-opacity="0.05"/>
</g>
<mask id="mask58_87_545" style="mask-type:luminance" maskUnits="userSpaceOnUse" x="80" y="76" width="416" height="416">
<path d="M183.921 463.479C283.134 520.759 410.018 486.73 467.325 387.472C524.632 288.213 490.66 161.313 391.447 104.032C292.234 46.7516 165.349 80.7812 108.042 180.04C50.7356 279.298 84.7074 406.198 183.921 463.479Z" fill="white"/>
</mask>
<g mask="url(#mask58_87_545)">
<path d="M318.715 323.688C315.781 321.994 312.02 323.002 310.325 325.938C308.63 328.873 309.637 332.635 312.571 334.329C315.505 336.023 319.266 335.014 320.961 332.079C322.693 329.164 321.649 325.382 318.715 323.688Z" fill="#3A4351" fill-opacity="0.05"/>
</g>
<mask id="mask59_87_545" style="mask-type:luminance" maskUnits="userSpaceOnUse" x="80" y="76" width="416" height="416">
<path d="M183.921 463.479C283.134 520.759 410.018 486.73 467.325 387.472C524.632 288.213 490.66 161.313 391.447 104.032C292.234 46.7516 165.349 80.7812 108.042 180.04C50.7356 279.298 84.7074 406.198 183.921 463.479Z" fill="white"/>
</mask>
<g mask="url(#mask59_87_545)">
<path d="M361.406 348.336C358.472 346.642 354.711 347.651 353.016 350.586C351.322 353.522 352.328 357.283 355.263 358.977C358.197 360.671 361.958 359.662 363.652 356.727C365.384 353.813 364.34 350.03 361.406 348.336Z" fill="#3A4351" fill-opacity="0.05"/>
</g>
<mask id="mask60_87_545" style="mask-type:luminance" maskUnits="userSpaceOnUse" x="80" y="76" width="416" height="416">
<path d="M183.921 463.479C283.134 520.759 410.018 486.73 467.325 387.472C524.632 288.213 490.66 161.313 391.447 104.032C292.234 46.7516 165.349 80.7812 108.042 180.04C50.7356 279.298 84.7074 406.198 183.921 463.479Z" fill="white"/>
</mask>
<g mask="url(#mask60_87_545)">
<path d="M404.098 372.983C401.164 371.288 397.403 372.297 395.708 375.233C394.013 378.168 395.02 381.93 397.954 383.624C400.888 385.318 404.649 384.309 406.344 381.373C408.039 378.438 407.032 374.677 404.098 372.983Z" fill="#3A4351" fill-opacity="0.05"/>
</g>
<mask id="mask61_87_545" style="mask-type:luminance" maskUnits="userSpaceOnUse" x="80" y="76" width="416" height="416">
<path d="M183.921 463.479C283.134 520.759 410.018 486.73 467.325 387.472C524.632 288.213 490.66 161.313 391.447 104.032C292.234 46.7516 165.349 80.7812 108.042 180.04C50.7356 279.298 84.7074 406.198 183.921 463.479Z" fill="white"/>
</mask>
<g mask="url(#mask61_87_545)">
<path d="M446.789 397.631C443.855 395.937 440.094 396.946 438.399 399.881C436.704 402.817 437.711 406.578 440.645 408.272C443.58 409.966 447.341 408.957 449.035 406.022C450.73 403.086 449.723 399.325 446.789 397.631Z" fill="#3A4351" fill-opacity="0.05"/>
</g>
<mask id="mask62_87_545" style="mask-type:luminance" maskUnits="userSpaceOnUse" x="80" y="76" width="416" height="416">
<path d="M183.921 463.479C283.134 520.759 410.018 486.73 467.325 387.472C524.632 288.213 490.66 161.313 391.447 104.032C292.234 46.7516 165.349 80.7812 108.042 180.04C50.7356 279.298 84.7074 406.198 183.921 463.479Z" fill="white"/>
</mask>
<g mask="url(#mask62_87_545)">
<path d="M109.072 244.577C106.137 242.883 102.376 243.892 100.682 246.827C98.9868 249.763 99.9938 253.524 102.928 255.218C105.862 256.912 109.623 255.904 111.318 252.968C113.049 250.054 112.042 246.292 109.072 244.577Z" fill="#3A4351" fill-opacity="0.05"/>
</g>
<mask id="mask63_87_545" style="mask-type:luminance" maskUnits="userSpaceOnUse" x="80" y="76" width="416" height="416">
<path d="M183.921 463.479C283.134 520.759 410.018 486.73 467.325 387.472C524.632 288.213 490.66 161.313 391.447 104.032C292.234 46.7516 165.349 80.7812 108.042 180.04C50.7356 279.298 84.7074 406.198 183.921 463.479Z" fill="white"/>
</mask>
<g mask="url(#mask63_87_545)">
<path d="M151.763 269.226C148.829 267.532 145.068 268.54 143.373 271.476C141.678 274.411 142.685 278.173 145.619 279.867C148.553 281.561 152.314 280.552 154.009 277.617C155.741 274.702 154.734 270.941 151.763 269.226Z" fill="#3A4351" fill-opacity="0.05"/>
</g>
<mask id="mask64_87_545" style="mask-type:luminance" maskUnits="userSpaceOnUse" x="80" y="76" width="416" height="416">
<path d="M183.921 463.479C283.134 520.759 410.018 486.73 467.325 387.472C524.632 288.213 490.66 161.313 391.447 104.032C292.234 46.7516 165.349 80.7812 108.042 180.04C50.7356 279.298 84.7074 406.198 183.921 463.479Z" fill="white"/>
</mask>
<g mask="url(#mask64_87_545)">
<path d="M194.455 293.873C191.52 292.179 187.759 293.188 186.065 296.123C184.37 299.059 185.377 302.82 188.311 304.514C191.245 306.208 195.006 305.2 196.701 302.264C198.432 299.35 197.389 295.567 194.455 293.873Z" fill="#3A4351" fill-opacity="0.05"/>
</g>
<mask id="mask65_87_545" style="mask-type:luminance" maskUnits="userSpaceOnUse" x="80" y="76" width="416" height="416">
<path d="M183.921 463.479C283.134 520.759 410.018 486.73 467.325 387.472C524.632 288.213 490.66 161.313 391.447 104.032C292.234 46.7516 165.349 80.7812 108.042 180.04C50.7356 279.298 84.7074 406.198 183.921 463.479Z" fill="white"/>
</mask>
<g mask="url(#mask65_87_545)">
<path d="M231.002 329.163C233.939 330.858 237.696 329.851 239.392 326.912C241.089 323.974 240.083 320.217 237.146 318.522C234.209 316.826 230.453 317.833 228.756 320.772C227.06 323.71 228.065 327.467 231.002 329.163Z" fill="#3A4351" fill-opacity="0.05"/>
</g>
<mask id="mask66_87_545" style="mask-type:luminance" maskUnits="userSpaceOnUse" x="80" y="76" width="416" height="416">
<path d="M183.921 463.479C283.134 520.759 410.018 486.73 467.325 387.472C524.632 288.213 490.66 161.313 391.447 104.032C292.234 46.7516 165.349 80.7812 108.042 180.04C50.7356 279.298 84.7074 406.198 183.921 463.479Z" fill="white"/>
</mask>
<g mask="url(#mask66_87_545)">
<path d="M279.837 343.17C276.903 341.476 273.142 342.485 271.447 345.42C269.752 348.356 270.759 352.117 273.694 353.811C276.628 355.505 280.389 354.496 282.083 351.561C283.778 348.625 282.771 344.864 279.837 343.17Z" fill="#3A4351" fill-opacity="0.05"/>
</g>
<mask id="mask67_87_545" style="mask-type:luminance" maskUnits="userSpaceOnUse" x="80" y="76" width="416" height="416">
<path d="M183.921 463.479C283.134 520.759 410.018 486.73 467.325 387.472C524.632 288.213 490.66 161.313 391.447 104.032C292.234 46.7516 165.349 80.7812 108.042 180.04C50.7356 279.298 84.7074 406.198 183.921 463.479Z" fill="white"/>
</mask>
<g mask="url(#mask67_87_545)">
<path d="M322.529 367.816C319.595 366.122 315.834 367.131 314.139 370.067C312.444 373.002 313.451 376.763 316.385 378.457C319.319 380.152 323.08 379.143 324.775 376.207C326.47 373.272 325.463 369.511 322.529 367.816Z" fill="#3A4351" fill-opacity="0.05"/>
</g>
<mask id="mask68_87_545" style="mask-type:luminance" maskUnits="userSpaceOnUse" x="80" y="76" width="416" height="416">
<path d="M183.921 463.479C283.134 520.759 410.018 486.73 467.325 387.472C524.632 288.213 490.66 161.313 391.447 104.032C292.234 46.7516 165.349 80.7812 108.042 180.04C50.7356 279.298 84.7074 406.198 183.921 463.479Z" fill="white"/>
</mask>
<g mask="url(#mask68_87_545)">
<path d="M365.22 392.465C362.286 390.771 358.525 391.78 356.83 394.715C355.136 397.65 356.142 401.412 359.077 403.106C362.011 404.8 365.772 403.791 367.466 400.856C369.161 397.92 368.154 394.159 365.22 392.465Z" fill="#3A4351" fill-opacity="0.05"/>
</g>
<mask id="mask69_87_545" style="mask-type:luminance" maskUnits="userSpaceOnUse" x="80" y="76" width="416" height="416">
<path d="M183.921 463.479C283.134 520.759 410.018 486.73 467.325 387.472C524.632 288.213 490.66 161.313 391.447 104.032C292.234 46.7516 165.349 80.7812 108.042 180.04C50.7356 279.298 84.7074 406.198 183.921 463.479Z" fill="white"/>
</mask>
<g mask="url(#mask69_87_545)">
<path d="M407.912 417.113C404.977 415.419 401.216 416.428 399.522 419.363C397.827 422.299 398.834 426.06 401.768 427.754C404.702 429.448 408.463 428.44 410.158 425.504C411.853 422.569 410.846 418.807 407.912 417.113Z" fill="#3A4351" fill-opacity="0.05"/>
</g>
<mask id="mask70_87_545" style="mask-type:luminance" maskUnits="userSpaceOnUse" x="80" y="76" width="416" height="416">
<path d="M183.921 463.479C283.134 520.759 410.018 486.73 467.325 387.472C524.632 288.213 490.66 161.313 391.447 104.032C292.234 46.7516 165.349 80.7812 108.042 180.04C50.7356 279.298 84.7074 406.198 183.921 463.479Z" fill="white"/>
</mask>
<g mask="url(#mask70_87_545)">
<path d="M450.566 441.74C447.632 440.046 443.871 441.055 442.176 443.99C440.482 446.926 441.489 450.687 444.423 452.381C447.357 454.075 451.118 453.067 452.813 450.131C454.544 447.217 453.537 443.456 450.566 441.74Z" fill="#3A4351" fill-opacity="0.05"/>
</g>
<mask id="mask71_87_545" style="mask-type:luminance" maskUnits="userSpaceOnUse" x="80" y="76" width="416" height="416">
<path d="M183.921 463.479C283.134 520.759 410.018 486.73 467.325 387.472C524.632 288.213 490.66 161.313 391.447 104.032C292.234 46.7516 165.349 80.7812 108.042 180.04C50.7356 279.298 84.7074 406.198 183.921 463.479Z" fill="white"/>
</mask>
<g mask="url(#mask71_87_545)">
</g>
<mask id="mask72_87_545" style="mask-type:luminance" maskUnits="userSpaceOnUse" x="80" y="76" width="416" height="416">
<path d="M183.921 463.479C283.134 520.759 410.018 486.73 467.325 387.472C524.632 288.213 490.66 161.313 391.447 104.032C292.234 46.7516 165.349 80.7812 108.042 180.04C50.7356 279.298 84.7074 406.198 183.921 463.479Z" fill="white"/>
</mask>
<g mask="url(#mask72_87_545)">
<path d="M109.069 292.523C106.135 290.829 102.374 291.837 100.679 294.773C98.9846 297.708 99.9916 301.47 102.926 303.164C105.86 304.858 109.621 303.849 111.316 300.913C113.01 297.978 112.003 294.217 109.069 292.523Z" fill="#3A4351" fill-opacity="0.05"/>
</g>
<mask id="mask73_87_545" style="mask-type:luminance" maskUnits="userSpaceOnUse" x="80" y="76" width="416" height="416">
<path d="M183.921 463.479C283.134 520.759 410.018 486.73 467.325 387.472C524.632 288.213 490.66 161.313 391.447 104.032C292.234 46.7516 165.349 80.7812 108.042 180.04C50.7356 279.298 84.7074 406.198 183.921 463.479Z" fill="white"/>
</mask>
<g mask="url(#mask73_87_545)">
<path d="M151.761 317.17C148.827 315.476 145.066 316.485 143.371 319.42C141.676 322.356 142.683 326.117 145.617 327.811C148.551 329.505 152.312 328.496 154.007 325.561C155.702 322.625 154.695 318.864 151.761 317.17Z" fill="#3A4351" fill-opacity="0.05"/>
</g>
<mask id="mask74_87_545" style="mask-type:luminance" maskUnits="userSpaceOnUse" x="80" y="76" width="416" height="416">
<path d="M183.921 463.479C283.134 520.759 410.018 486.73 467.325 387.472C524.632 288.213 490.66 161.313 391.447 104.032C292.234 46.7516 165.349 80.7812 108.042 180.04C50.7356 279.298 84.7074 406.198 183.921 463.479Z" fill="white"/>
</mask>
<g mask="url(#mask74_87_545)">
<path d="M194.415 341.797C191.481 340.103 187.72 341.112 186.026 344.047C184.331 346.983 185.338 350.744 188.272 352.438C191.206 354.132 194.967 353.123 196.662 350.188C198.357 347.252 197.386 343.512 194.415 341.797Z" fill="#3A4351" fill-opacity="0.05"/>
</g>
<mask id="mask75_87_545" style="mask-type:luminance" maskUnits="userSpaceOnUse" x="80" y="76" width="416" height="416">
<path d="M183.921 463.479C283.134 520.759 410.018 486.73 467.325 387.472C524.632 288.213 490.66 161.313 391.447 104.032C292.234 46.7516 165.349 80.7812 108.042 180.04C50.7356 279.298 84.7074 406.198 183.921 463.479Z" fill="white"/>
</mask>
<g mask="url(#mask75_87_545)">
<path d="M237.107 366.445C234.173 364.751 230.412 365.76 228.717 368.696C227.022 371.631 228.029 375.392 230.963 377.086C233.897 378.78 237.658 377.772 239.353 374.836C241.048 371.901 240.078 368.161 237.107 366.445Z" fill="#3A4351" fill-opacity="0.05"/>
</g>
<mask id="mask76_87_545" style="mask-type:luminance" maskUnits="userSpaceOnUse" x="80" y="76" width="416" height="416">
<path d="M183.921 463.479C283.134 520.759 410.018 486.73 467.325 387.472C524.632 288.213 490.66 161.313 391.447 104.032C292.234 46.7516 165.349 80.7812 108.042 180.04C50.7356 279.298 84.7074 406.198 183.921 463.479Z" fill="white"/>
</mask>
<g mask="url(#mask76_87_545)">
<path d="M279.798 391.092C276.864 389.398 273.103 390.407 271.408 393.342C269.714 396.277 270.721 400.039 273.655 401.733C276.589 403.427 280.35 402.418 282.045 399.483C283.739 396.547 282.732 392.786 279.798 391.092Z" fill="#3A4351" fill-opacity="0.05"/>
</g>
<mask id="mask77_87_545" style="mask-type:luminance" maskUnits="userSpaceOnUse" x="80" y="76" width="416" height="416">
<path d="M183.921 463.479C283.134 520.759 410.018 486.73 467.325 387.472C524.632 288.213 490.66 161.313 391.447 104.032C292.234 46.7516 165.349 80.7812 108.042 180.04C50.7356 279.298 84.7074 406.198 183.921 463.479Z" fill="white"/>
</mask>
<g mask="url(#mask77_87_545)">
<path d="M322.49 415.74C319.556 414.046 315.795 415.055 314.1 417.99C312.405 420.926 313.412 424.687 316.346 426.381C319.28 428.075 323.041 427.067 324.736 424.131C326.431 421.196 325.424 417.434 322.49 415.74Z" fill="#3A4351" fill-opacity="0.05"/>
</g>
<mask id="mask78_87_545" style="mask-type:luminance" maskUnits="userSpaceOnUse" x="80" y="76" width="416" height="416">
<path d="M183.921 463.479C283.134 520.759 410.018 486.73 467.325 387.472C524.632 288.213 490.66 161.313 391.447 104.032C292.234 46.7516 165.349 80.7812 108.042 180.04C50.7356 279.298 84.7074 406.198 183.921 463.479Z" fill="white"/>
</mask>
<g mask="url(#mask78_87_545)">
<path d="M365.181 440.389C362.247 438.695 358.486 439.703 356.791 442.639C355.096 445.574 356.103 449.336 359.038 451.03C361.972 452.724 365.733 451.715 367.427 448.78C369.122 445.844 368.115 442.083 365.181 440.389Z" fill="#3A4351" fill-opacity="0.05"/>
</g>
<mask id="mask79_87_545" style="mask-type:luminance" maskUnits="userSpaceOnUse" x="80" y="76" width="416" height="416">
<path d="M183.921 463.479C283.134 520.759 410.018 486.73 467.325 387.472C524.632 288.213 490.66 161.313 391.447 104.032C292.234 46.7516 165.349 80.7812 108.042 180.04C50.7356 279.298 84.7074 406.198 183.921 463.479Z" fill="white"/>
</mask>
<g mask="url(#mask79_87_545)">
<path d="M407.873 465.037C404.938 463.343 401.177 464.352 399.483 467.287C397.788 470.223 398.795 473.984 401.729 475.678C404.663 477.372 408.424 476.364 410.119 473.428C411.814 470.493 410.807 466.731 407.873 465.037Z" fill="#3A4351" fill-opacity="0.05"/>
</g>
<mask id="mask80_87_545" style="mask-type:luminance" maskUnits="userSpaceOnUse" x="80" y="76" width="416" height="416">
<path d="M183.921 463.479C283.134 520.759 410.018 486.73 467.325 387.472C524.632 288.213 490.66 161.313 391.447 104.032C292.234 46.7516 165.349 80.7812 108.042 180.04C50.7356 279.298 84.7074 406.198 183.921 463.479Z" fill="white"/>
</mask>
<g mask="url(#mask80_87_545)">
</g>
<mask id="mask81_87_545" style="mask-type:luminance" maskUnits="userSpaceOnUse" x="80" y="76" width="416" height="416">
<path d="M183.921 463.479C283.134 520.759 410.018 486.73 467.325 387.472C524.632 288.213 490.66 161.313 391.447 104.032C292.234 46.7516 165.349 80.7812 108.042 180.04C50.7356 279.298 84.7074 406.198 183.921 463.479Z" fill="white"/>
</mask>
<g mask="url(#mask81_87_545)">
<path d="M112.846 336.631C109.912 334.937 106.151 335.946 104.457 338.881C102.762 341.817 103.769 345.578 106.703 347.272C109.637 348.966 113.398 347.957 115.093 345.022C116.824 342.108 115.817 338.346 112.846 336.631Z" fill="#3A4351" fill-opacity="0.05"/>
</g>
<mask id="mask82_87_545" style="mask-type:luminance" maskUnits="userSpaceOnUse" x="80" y="76" width="416" height="416">
<path d="M183.921 463.479C283.134 520.759 410.018 486.73 467.325 387.472C524.632 288.213 490.66 161.313 391.447 104.032C292.234 46.7516 165.349 80.7812 108.042 180.04C50.7356 279.298 84.7074 406.198 183.921 463.479Z" fill="white"/>
</mask>
<g mask="url(#mask82_87_545)">
<path d="M155.538 361.279C152.604 359.585 148.843 360.594 147.148 363.53C145.453 366.465 146.46 370.226 149.394 371.92C152.329 373.614 156.09 372.606 157.784 369.67C159.516 366.756 158.472 362.973 155.538 361.279Z" fill="#3A4351" fill-opacity="0.05"/>
</g>
<mask id="mask83_87_545" style="mask-type:luminance" maskUnits="userSpaceOnUse" x="80" y="76" width="416" height="416">
<path d="M183.921 463.479C283.134 520.759 410.018 486.73 467.325 387.472C524.632 288.213 490.66 161.313 391.447 104.032C292.234 46.7516 165.349 80.7812 108.042 180.04C50.7356 279.298 84.7074 406.198 183.921 463.479Z" fill="white"/>
</mask>
<g mask="url(#mask83_87_545)">
<path d="M198.229 385.926C195.295 384.232 191.534 385.241 189.839 388.176C188.145 391.111 189.152 394.873 192.086 396.567C195.02 398.261 198.781 397.252 200.476 394.317C202.17 391.381 201.163 387.62 198.229 385.926Z" fill="#3A4351" fill-opacity="0.05"/>
</g>
<mask id="mask84_87_545" style="mask-type:luminance" maskUnits="userSpaceOnUse" x="80" y="76" width="416" height="416">
<path d="M183.921 463.479C283.134 520.759 410.018 486.73 467.325 387.472C524.632 288.213 490.66 161.313 391.447 104.032C292.234 46.7516 165.349 80.7812 108.042 180.04C50.7356 279.298 84.7074 406.198 183.921 463.479Z" fill="white"/>
</mask>
<g mask="url(#mask84_87_545)">
<path d="M240.921 410.574C237.987 408.88 234.226 409.889 232.531 412.824C230.836 415.76 231.843 419.521 234.777 421.215C237.711 422.909 241.472 421.901 243.167 418.965C244.862 416.03 243.855 412.268 240.921 410.574Z" fill="#3A4351" fill-opacity="0.05"/>
</g>
<mask id="mask85_87_545" style="mask-type:luminance" maskUnits="userSpaceOnUse" x="80" y="76" width="416" height="416">
<path d="M183.921 463.479C283.134 520.759 410.018 486.73 467.325 387.472C524.632 288.213 490.66 161.313 391.447 104.032C292.234 46.7516 165.349 80.7812 108.042 180.04C50.7356 279.298 84.7074 406.198 183.921 463.479Z" fill="white"/>
</mask>
<g mask="url(#mask85_87_545)">
<path d="M283.612 435.223C280.678 433.529 276.917 434.537 275.222 437.473C273.528 440.408 274.535 444.17 277.469 445.864C280.403 447.558 284.164 446.549 285.859 443.614C287.553 440.678 286.546 436.917 283.612 435.223Z" fill="#3A4351" fill-opacity="0.05"/>
</g>
<mask id="mask86_87_545" style="mask-type:luminance" maskUnits="userSpaceOnUse" x="80" y="76" width="416" height="416">
<path d="M183.921 463.479C283.134 520.759 410.018 486.73 467.325 387.472C524.632 288.213 490.66 161.313 391.447 104.032C292.234 46.7516 165.349 80.7812 108.042 180.04C50.7356 279.298 84.7074 406.198 183.921 463.479Z" fill="white"/>
</mask>
<g mask="url(#mask86_87_545)">
<path d="M326.304 459.871C323.37 458.177 319.609 459.186 317.914 462.121C316.219 465.057 317.226 468.818 320.16 470.512C323.094 472.206 326.855 471.198 328.55 468.262C330.245 465.327 329.238 461.565 326.304 459.871Z" fill="#3A4351" fill-opacity="0.05"/>
</g>
<mask id="mask87_87_545" style="mask-type:luminance" maskUnits="userSpaceOnUse" x="80" y="76" width="416" height="416">
<path d="M183.921 463.479C283.134 520.759 410.018 486.73 467.325 387.472C524.632 288.213 490.66 161.313 391.447 104.032C292.234 46.7516 165.349 80.7812 108.042 180.04C50.7356 279.298 84.7074 406.198 183.921 463.479Z" fill="white"/>
</mask>
<g mask="url(#mask87_87_545)">
<path d="M368.995 484.518C366.061 482.824 362.3 483.832 360.605 486.768C358.91 489.703 359.917 493.465 362.851 495.159C365.786 496.853 369.547 495.844 371.241 492.909C372.936 489.973 371.929 486.212 368.995 484.518Z" fill="#3A4351" fill-opacity="0.05"/>
</g>
<mask id="mask88_87_545" style="mask-type:luminance" maskUnits="userSpaceOnUse" x="80" y="76" width="416" height="416">
<path d="M183.921 463.479C283.134 520.759 410.018 486.73 467.325 387.472C524.632 288.213 490.66 161.313 391.447 104.032C292.234 46.7516 165.349 80.7812 108.042 180.04C50.7356 279.298 84.7074 406.198 183.921 463.479Z" fill="white"/>
</mask>
<g mask="url(#mask88_87_545)">
</g>
<mask id="mask89_87_545" style="mask-type:luminance" maskUnits="userSpaceOnUse" x="80" y="76" width="416" height="416">
<path d="M183.921 463.479C283.134 520.759 410.018 486.73 467.325 387.472C524.632 288.213 490.66 161.313 391.447 104.032C292.234 46.7516 165.349 80.7812 108.042 180.04C50.7356 279.298 84.7074 406.198 183.921 463.479Z" fill="white"/>
</mask>
<g mask="url(#mask89_87_545)">
</g>
<mask id="mask90_87_545" style="mask-type:luminance" maskUnits="userSpaceOnUse" x="80" y="76" width="416" height="416">
<path d="M183.921 463.479C283.134 520.759 410.018 486.73 467.325 387.472C524.632 288.213 490.66 161.313 391.447 104.032C292.234 46.7516 165.349 80.7812 108.042 180.04C50.7356 279.298 84.7074 406.198 183.921 463.479Z" fill="white"/>
</mask>
<g mask="url(#mask90_87_545)">
</g>
<mask id="mask91_87_545" style="mask-type:luminance" maskUnits="userSpaceOnUse" x="80" y="76" width="416" height="416">
<path d="M183.921 463.479C283.134 520.759 410.018 486.73 467.325 387.472C524.632 288.213 490.66 161.313 391.447 104.032C292.234 46.7516 165.349 80.7812 108.042 180.04C50.7356 279.298 84.7074 406.198 183.921 463.479Z" fill="white"/>
</mask>
<g mask="url(#mask91_87_545)">
<path d="M116.488 378.264C113.554 376.57 109.793 377.578 108.098 380.514C106.403 383.449 107.41 387.211 110.344 388.905C113.279 390.599 117.04 389.59 118.734 386.655C120.429 383.719 119.422 379.958 116.488 378.264Z" fill="#3A4351" fill-opacity="0.05"/>
</g>
<mask id="mask92_87_545" style="mask-type:luminance" maskUnits="userSpaceOnUse" x="80" y="76" width="416" height="416">
<path d="M183.921 463.479C283.134 520.759 410.018 486.73 467.325 387.472C524.632 288.213 490.66 161.313 391.447 104.032C292.234 46.7516 165.349 80.7812 108.042 180.04C50.7356 279.298 84.7074 406.198 183.921 463.479Z" fill="white"/>
</mask>
<g mask="url(#mask92_87_545)">
<path d="M159.143 402.891C156.209 401.197 152.448 402.205 150.753 405.141C149.058 408.076 150.065 411.838 152.999 413.532C155.933 415.226 159.694 414.217 161.389 411.282C163.121 408.367 162.114 404.606 159.143 402.891Z" fill="#3A4351" fill-opacity="0.05"/>
</g>
<mask id="mask93_87_545" style="mask-type:luminance" maskUnits="userSpaceOnUse" x="80" y="76" width="416" height="416">
<path d="M183.921 463.479C283.134 520.759 410.018 486.73 467.325 387.472C524.632 288.213 490.66 161.313 391.447 104.032C292.234 46.7516 165.349 80.7812 108.042 180.04C50.7356 279.298 84.7074 406.198 183.921 463.479Z" fill="white"/>
</mask>
<g mask="url(#mask93_87_545)">
<path d="M201.834 427.539C198.9 425.845 195.139 426.854 193.444 429.789C191.75 432.725 192.756 436.486 195.691 438.18C198.625 439.874 202.386 438.865 204.08 435.93C205.812 433.016 204.805 429.254 201.834 427.539Z" fill="#3A4351" fill-opacity="0.05"/>
</g>
<mask id="mask94_87_545" style="mask-type:luminance" maskUnits="userSpaceOnUse" x="80" y="76" width="416" height="416">
<path d="M183.921 463.479C283.134 520.759 410.018 486.73 467.325 387.472C524.632 288.213 490.66 161.313 391.447 104.032C292.234 46.7516 165.349 80.7812 108.042 180.04C50.7356 279.298 84.7074 406.198 183.921 463.479Z" fill="white"/>
</mask>
<g mask="url(#mask94_87_545)">
<path d="M244.526 452.188C241.591 450.494 237.831 451.502 236.136 454.438C234.441 457.373 235.448 461.135 238.382 462.829C241.316 464.523 245.077 463.514 246.772 460.578C248.503 457.664 247.46 453.882 244.526 452.188Z" fill="#3A4351" fill-opacity="0.05"/>
</g>
<mask id="mask95_87_545" style="mask-type:luminance" maskUnits="userSpaceOnUse" x="80" y="76" width="416" height="416">
<path d="M183.921 463.479C283.134 520.759 410.018 486.73 467.325 387.472C524.632 288.213 490.66 161.313 391.447 104.032C292.234 46.7516 165.349 80.7812 108.042 180.04C50.7356 279.298 84.7074 406.198 183.921 463.479Z" fill="white"/>
</mask>
<g mask="url(#mask95_87_545)">
<path d="M287.217 476.834C284.283 475.14 280.522 476.149 278.827 479.084C277.132 482.02 278.139 485.781 281.073 487.475C284.008 489.169 287.769 488.16 289.463 485.225C291.195 482.311 290.151 478.528 287.217 476.834Z" fill="#3A4351" fill-opacity="0.05"/>
</g>
<mask id="mask96_87_545" style="mask-type:luminance" maskUnits="userSpaceOnUse" x="80" y="76" width="416" height="416">
<path d="M183.921 463.479C283.134 520.759 410.018 486.73 467.325 387.472C524.632 288.213 490.66 161.313 391.447 104.032C292.234 46.7516 165.349 80.7812 108.042 180.04C50.7356 279.298 84.7074 406.198 183.921 463.479Z" fill="white"/>
</mask>
<g mask="url(#mask96_87_545)">
</g>
<mask id="mask97_87_545" style="mask-type:luminance" maskUnits="userSpaceOnUse" x="80" y="76" width="416" height="416">
<path d="M183.921 463.479C283.134 520.759 410.018 486.73 467.325 387.472C524.632 288.213 490.66 161.313 391.447 104.032C292.234 46.7516 165.349 80.7812 108.042 180.04C50.7356 279.298 84.7074 406.198 183.921 463.479Z" fill="white"/>
</mask>
<g mask="url(#mask97_87_545)">
</g>
<mask id="mask98_87_545" style="mask-type:luminance" maskUnits="userSpaceOnUse" x="80" y="76" width="416" height="416">
<path d="M183.921 463.479C283.134 520.759 410.018 486.73 467.325 387.472C524.632 288.213 490.66 161.313 391.447 104.032C292.234 46.7516 165.349 80.7812 108.042 180.04C50.7356 279.298 84.7074 406.198 183.921 463.479Z" fill="white"/>
</mask>
<g mask="url(#mask98_87_545)">
</g>
<mask id="mask99_87_545" style="mask-type:luminance" maskUnits="userSpaceOnUse" x="80" y="76" width="416" height="416">
<path d="M183.921 463.479C283.134 520.759 410.018 486.73 467.325 387.472C524.632 288.213 490.66 161.313 391.447 104.032C292.234 46.7516 165.349 80.7812 108.042 180.04C50.7356 279.298 84.7074 406.198 183.921 463.479Z" fill="white"/>
</mask>
<g mask="url(#mask99_87_545)">
<path d="M77.5739 397.725C74.6398 396.031 70.8789 397.039 69.1841 399.975C67.4893 402.91 68.4962 406.672 71.4303 408.366C74.3645 410.06 78.1255 409.051 79.8202 406.116C81.5517 403.201 80.5447 399.44 77.5739 397.725Z" fill="#3A4351" fill-opacity="0.05"/>
</g>
<mask id="mask100_87_545" style="mask-type:luminance" maskUnits="userSpaceOnUse" x="80" y="76" width="416" height="416">
<path d="M183.921 463.479C283.134 520.759 410.018 486.73 467.325 387.472C524.632 288.213 490.66 161.313 391.447 104.032C292.234 46.7516 165.349 80.7812 108.042 180.04C50.7356 279.298 84.7074 406.198 183.921 463.479Z" fill="white"/>
</mask>
<g mask="url(#mask100_87_545)">
<path d="M120.265 422.373C117.331 420.679 113.57 421.688 111.875 424.623C110.18 427.559 111.187 431.32 114.122 433.014C117.056 434.708 120.817 433.699 122.511 430.764C124.243 427.85 123.199 424.067 120.265 422.373Z" fill="#3A4351" fill-opacity="0.05"/>
</g>
<mask id="mask101_87_545" style="mask-type:luminance" maskUnits="userSpaceOnUse" x="80" y="76" width="416" height="416">
<path d="M183.921 463.479C283.134 520.759 410.018 486.73 467.325 387.472C524.632 288.213 490.66 161.313 391.447 104.032C292.234 46.7516 165.349 80.7812 108.042 180.04C50.7356 279.298 84.7074 406.198 183.921 463.479Z" fill="white"/>
</mask>
<g mask="url(#mask101_87_545)">
<path d="M162.957 447.022C160.023 445.328 156.262 446.336 154.567 449.272C152.872 452.207 153.879 455.969 156.813 457.663C159.747 459.357 163.508 458.348 165.203 455.412C166.898 452.477 165.891 448.716 162.957 447.022Z" fill="#3A4351" fill-opacity="0.05"/>
</g>
<mask id="mask102_87_545" style="mask-type:luminance" maskUnits="userSpaceOnUse" x="80" y="76" width="416" height="416">
<path d="M183.921 463.479C283.134 520.759 410.018 486.73 467.325 387.472C524.632 288.213 490.66 161.313 391.447 104.032C292.234 46.7516 165.349 80.7812 108.042 180.04C50.7356 279.298 84.7074 406.198 183.921 463.479Z" fill="white"/>
</mask>
<g mask="url(#mask102_87_545)">
<path d="M205.648 471.668C202.714 469.974 198.953 470.983 197.258 473.918C195.564 476.854 196.57 480.615 199.505 482.309C202.439 484.003 206.2 482.994 207.894 480.059C209.589 477.124 208.582 473.362 205.648 471.668Z" fill="#3A4351" fill-opacity="0.05"/>
</g>
<mask id="mask103_87_545" style="mask-type:luminance" maskUnits="userSpaceOnUse" x="80" y="76" width="416" height="416">
<path d="M183.921 463.479C283.134 520.759 410.018 486.73 467.325 387.472C524.632 288.213 490.66 161.313 391.447 104.032C292.234 46.7516 165.349 80.7812 108.042 180.04C50.7356 279.298 84.7074 406.198 183.921 463.479Z" fill="white"/>
</mask>
<g mask="url(#mask103_87_545)">
</g>
<mask id="mask104_87_545" style="mask-type:luminance" maskUnits="userSpaceOnUse" x="80" y="76" width="416" height="416">
<path d="M183.921 463.479C283.134 520.759 410.018 486.73 467.325 387.472C524.632 288.213 490.66 161.313 391.447 104.032C292.234 46.7516 165.349 80.7812 108.042 180.04C50.7356 279.298 84.7074 406.198 183.921 463.479Z" fill="white"/>
</mask>
<g mask="url(#mask104_87_545)">
</g>
<mask id="mask105_87_545" style="mask-type:luminance" maskUnits="userSpaceOnUse" x="80" y="76" width="416" height="416">
<path d="M183.921 463.479C283.134 520.759 410.018 486.73 467.325 387.472C524.632 288.213 490.66 161.313 391.447 104.032C292.234 46.7516 165.349 80.7812 108.042 180.04C50.7356 279.298 84.7074 406.198 183.921 463.479Z" fill="white"/>
</mask>
<g mask="url(#mask105_87_545)">
</g>
<mask id="mask106_87_545" style="mask-type:luminance" maskUnits="userSpaceOnUse" x="80" y="76" width="416" height="416">
<path d="M183.921 463.479C283.134 520.759 410.018 486.73 467.325 387.472C524.632 288.213 490.66 161.313 391.447 104.032C292.234 46.7516 165.349 80.7812 108.042 180.04C50.7356 279.298 84.7074 406.198 183.921 463.479Z" fill="white"/>
</mask>
<g mask="url(#mask106_87_545)">
</g>
</g>
<defs>
<clipPath id="clip0_87_545">
<rect width="433.668" height="423.612" fill="white" transform="translate(211.806 0.316406) rotate(30)"/>
</clipPath>
</defs>
</svg>
