<svg width="18" height="16" viewBox="0 0 18 16" fill="none" xmlns="http://www.w3.org/2000/svg">
<path d="M0.25 5.057V12.5C0.25 13.2956 0.557291 14.0587 1.10427 14.6213C1.65125 15.1839 2.39312 15.5 3.16667 15.5H14.8333C15.6069 15.5 16.3487 15.1839 16.8957 14.6213C17.4427 14.0587 17.75 13.2956 17.75 12.5V3.5C17.75 2.70435 17.4427 1.94129 16.8957 1.37868C16.3487 0.81607 15.6069 0.5 14.8333 0.5H3.16667C2.39312 0.5 1.65125 0.81607 1.10427 1.37868C0.557291 1.94129 0.25 2.70435 0.25 3.5V5.057ZM3.16667 2H14.8333C15.2201 2 15.591 2.15804 15.8645 2.43934C16.138 2.72064 16.2917 3.10218 16.2917 3.5V4.61L9 8.648L1.70833 4.61V3.5C1.70833 3.10218 1.86198 2.72064 2.13547 2.43934C2.40896 2.15804 2.77989 2 3.16667 2ZM1.70833 6.314L8.65438 10.16C8.7606 10.2188 8.87936 10.2496 9 10.2496C9.12064 10.2496 9.2394 10.2188 9.34563 10.16L16.2917 6.314V12.5C16.2917 12.8978 16.138 13.2794 15.8645 13.5607C15.591 13.842 15.2201 14 14.8333 14H3.16667C2.77989 14 2.40896 13.842 2.13547 13.5607C1.86198 13.2794 1.70833 12.8978 1.70833 12.5V6.314Z" fill="#0C1518"/>
</svg>
