<svg width="249" height="241" viewBox="0 0 249 241" fill="none" xmlns="http://www.w3.org/2000/svg">
<g opacity="0.2" clip-path="url(#clip0_301_5141)">
<path d="M108.594 207.494C105.839 207.494 103.061 207.299 100.282 206.906C90.8046 205.565 81.481 201.969 73.3207 196.511L73.0288 196.316L73.3705 196.394C92.6528 200.84 112.996 202.569 133.31 201.555C152.562 191.682 160.33 171.912 164.543 157.469C176.243 117.363 177.441 77.2432 167.914 44.4977C163.587 29.6223 153.181 4.60191 131.524 0.6343C130.311 0.467083 129.094 0.316449 127.875 0.185163L127.888 0.0566406L129.447 0.193455C130.144 0.27499 130.834 0.377255 131.519 0.501632C142.875 2.06186 154.063 5.192 164.827 9.82433C176.382 14.7966 187.294 21.4286 197.259 29.5366C207.129 37.5658 215.888 46.8926 223.293 57.2546C230.794 67.7506 236.763 79.1199 241.037 91.0435C245.427 103.288 248.022 116.071 248.751 129.039C249.147 136.061 248.036 142.773 245.449 148.989C242.975 154.936 239.091 160.574 233.905 165.747C217.544 182.066 192.673 193.172 159.984 198.755C151.179 200.258 142.28 201.233 133.374 201.679C131.93 202.413 130.437 203.085 128.896 203.695C122.551 206.212 115.652 207.492 108.597 207.492L108.594 207.494ZM73.6859 196.599C90.7673 207.899 111.361 210.511 128.845 203.578C130.297 203.002 131.69 202.374 133.03 201.697C112.92 202.675 92.787 200.967 73.6845 196.598L73.6859 196.599ZM133.46 0.918984C141.566 2.92006 148.746 8.07477 154.847 16.2864C161.631 25.417 165.766 36.6482 168.039 44.4618C173.055 61.7045 175.142 80.7672 174.24 101.121C173.423 119.564 170.202 138.535 164.668 157.505C161.344 168.9 157.281 177.912 152.25 185.054C147.14 192.308 141.022 197.736 133.651 201.538C142.458 201.085 151.254 200.116 159.96 198.63C192.624 193.053 217.471 181.958 233.812 165.658C244.41 155.086 249.393 142.77 248.621 129.049C247.892 116.093 245.299 103.322 240.914 91.0891C224.013 43.9339 181.28 8.31938 133.46 0.918984Z" fill="#84AAB6"/>
<path d="M48.908 166.973L48.7544 166.643C41.4366 150.966 40.2732 132.766 45.4787 115.396C47.2853 109.368 49.7905 103.653 52.957 98.3314C53.5712 95.4238 54.2407 92.5424 54.9628 89.6928C58.3119 76.4978 62.7939 64.11 68.2857 52.8746C74.1455 40.8847 81.1645 30.1953 89.1491 21.102C100.697 7.95263 112.646 1.03177 124.662 0.534263C137.486 0.00359079 152.157 5.26195 162.076 9.26272C173.999 14.0719 185.271 20.6211 195.581 28.7276C205.683 36.6698 214.666 46.0201 222.278 56.5175C229.919 67.0508 236.001 78.4948 240.359 90.533C245.02 103.413 247.71 116.977 248.364 130.892C248.433 131.825 248.468 132.764 248.468 133.708L248.339 133.712C248.314 132.792 248.28 131.873 248.238 130.955C246.157 102.498 212.653 86.5046 197.991 80.8427C174.877 71.918 148.545 67.8426 119.729 68.7271C104.836 69.1845 90.2295 71.075 76.3132 74.3461C66.616 80.4599 58.7794 88.7199 53.0898 98.1822C48.0448 122.201 47.1235 146.283 48.8762 166.613L48.908 166.973ZM52.9335 98.442C40.8985 118.641 38.5952 144.265 48.7171 166.258C47.6782 153.966 47.6491 141.297 48.6327 128.595C49.4267 118.345 50.8695 108.239 52.9335 98.442ZM127.232 68.4825C138.334 68.4825 149.158 69.2495 159.51 70.771C173.176 72.7804 186.139 76.1289 198.04 80.7225C207.461 84.3598 220.937 90.7016 231.623 100.252C241.14 108.758 246.664 118.193 248.096 128.359C247.249 115.346 244.614 102.658 240.24 90.5759C231.569 66.6224 215.681 44.6934 195.504 28.8285C185.204 20.7288 173.941 14.1866 162.029 9.38157C152.12 5.38633 137.465 0.134877 124.668 0.662786C112.688 1.15891 100.771 8.06318 89.246 21.1877C70.2445 42.825 58.9399 70.402 53.1133 98.0702C54.3362 96.0346 55.6545 94.057 57.0696 92.1403C62.3982 84.9223 68.8529 78.8969 76.2551 74.2314L76.2745 74.2231C90.2019 70.9479 104.821 69.056 119.726 68.5986C122.24 68.5212 124.744 68.4825 127.232 68.4825Z" fill="#84AAB6"/>
<path d="M120.398 201.997C117.327 201.997 114.277 201.938 111.256 201.821C100.878 201.419 90.7896 200.322 81.2695 198.56C59.8998 194.603 41.3548 187.346 26.1478 176.989C19.8689 172.711 11.1912 165.528 5.51262 155.59C0.146672 146.203 -1.31136 136.551 1.18002 126.902C3.43071 118.183 8.60299 109.995 16.553 102.565C22.9233 96.6097 31.0808 91.1274 40.7959 86.2698C57.638 77.8496 76.7667 72.2305 97.6523 69.5689C116.954 67.109 136.951 67.2485 157.087 69.9807C167.375 71.3765 193.722 75.9411 216.124 88.1355C226.5 93.7849 234.551 100.316 240.05 107.549C246.408 115.91 249.403 125.291 248.954 135.43C248.694 140.506 247.379 145.564 245.045 150.465C238.152 164.941 223.522 177.131 201.563 186.695C183.757 194.451 163.314 199.317 140.801 201.156C133.959 201.716 127.128 201.997 120.396 201.997H120.398ZM125.275 67.9368C94.3531 67.9368 65.1564 74.2343 40.854 86.3859C25.6221 94.0019 6.39519 107.219 1.30591 126.935C-3.22866 144.497 6.08532 163.169 26.2197 176.882C64.4412 202.916 114.41 203.185 140.793 201.029C163.291 199.191 183.721 194.328 201.513 186.579C223.443 177.027 238.051 164.859 244.93 150.411C247.256 145.527 248.567 140.486 248.827 135.426C249.668 116.416 238.644 100.543 216.063 88.2502C193.679 76.0654 167.352 71.505 157.071 70.1092C146.358 68.6554 135.717 67.9368 125.275 67.9368Z" fill="#84AAB6"/>
<path d="M95.5176 240.801C89.6426 240.801 83.964 239.08 78.6257 235.682C69.2274 229.699 61.8252 219.773 56.6224 206.177C54.7757 201.35 53.1904 196.01 51.8762 190.193C30.53 182.389 15.3299 171.494 6.55407 157.67C0.730238 148.498 -1.09161 138.817 1.13694 128.901C2.72639 121.826 6.32167 114.865 11.8204 108.213C16.7686 102.226 23.1776 96.6649 30.3557 92.1293C42.3464 84.5534 56.3914 78.7672 73.2916 74.4389L73.6471 74.3477L73.3442 74.5536C43.33 94.99 32.2633 137.57 48.6724 169.471L48.6793 169.493C49.4582 176.913 50.5634 183.785 51.9897 190.096C58.5397 192.487 65.6722 194.589 73.3718 196.394L73.3926 196.404C88.8098 206.748 107.428 209.707 124.472 204.521C140.634 199.606 153.142 188.09 159.69 172.101L160.342 170.423L160.462 170.469C154.677 186.483 147.896 199.825 139.734 211.26C135.165 217.66 125.618 229.393 113.006 236.06C107.306 239.075 101.657 240.667 96.2162 240.792C95.9838 240.798 95.7486 240.801 95.5176 240.801ZM52.0215 190.247C57.0222 212.262 65.9572 227.466 78.6935 235.574C100.758 249.619 124.637 232.184 139.628 211.185C147.166 200.627 153.524 188.438 159.008 174.016C155.704 181.385 151.096 187.754 145.289 192.968C139.304 198.343 132.313 202.27 124.51 204.644C116.304 207.14 107.385 207.768 98.72 206.456C89.6661 205.087 81.124 201.742 73.3303 196.516C65.6584 194.718 58.5536 192.625 52.0229 190.244L52.0215 190.247ZM72.9679 74.6545C56.2393 78.9689 42.3188 84.722 30.4235 92.2385C14.9315 102.027 4.30201 115.4 1.26144 128.93C-0.960195 138.813 0.857505 148.459 6.66197 157.602C15.4116 171.385 30.5646 182.252 51.8416 190.045C50.4251 183.745 49.324 176.886 48.5507 169.52C40.4997 153.861 38.6612 135.378 43.3729 117.47C45.6568 108.789 49.3599 100.68 54.3787 93.3662C59.4818 85.9285 65.7345 79.635 72.9679 74.6545Z" fill="#84AAB6"/>
<path d="M48.7128 169.833L48.5565 169.53C40.4999 153.87 38.6601 135.381 43.3731 117.469C45.6307 108.887 49.2758 100.864 54.2074 93.6165C55.1923 89.4983 56.2782 85.4519 57.4637 81.4898C61.622 67.5914 67.0447 54.5914 73.5782 42.853C81.0191 29.4853 89.1573 19.0929 97.7685 11.9662C109.034 2.64209 121.147 -1.10578 133.771 0.824816C147.191 2.92816 160.279 7.17769 172.668 13.4545C195.081 24.8087 214.096 42.2684 227.659 63.9458C240.159 83.9207 247.393 106.463 248.739 129.488C248.974 131.461 249.047 133.445 248.954 135.432L248.826 135.429C248.797 133.436 248.723 131.45 248.607 129.469C246.731 113.88 235.026 102.386 227.661 96.5905C200.604 75.3 164.272 67.6785 130.051 67.6785C109.577 67.6785 89.8669 70.4037 73.332 74.562C65.6973 79.7624 59.2897 86.3944 54.2489 93.9192C52.0687 103.1 50.3949 112.659 49.2343 122.566C47.3405 138.735 47.1524 154.525 48.6768 169.494L48.7128 169.833ZM54.0732 94.1845C39.5164 116.116 36.5132 145.533 48.5163 169.167C47.0293 154.289 47.2271 138.608 49.1084 122.551C50.2483 112.823 51.911 103.326 54.0732 94.1845ZM130.051 67.4864C137.975 67.4864 145.799 67.8982 153.394 68.7316C167.642 70.2946 181.009 73.3017 193.123 77.6701C206.232 82.3978 217.878 88.7285 227.74 96.4882C234.309 101.657 239.485 107.388 243.126 113.521C245.896 118.185 247.691 122.968 248.499 127.814C245.064 79.7665 215.9 35.501 172.608 13.5693C160.23 7.2993 147.156 3.05392 133.75 0.951956C105.797 -3.32245 85.6588 21.4119 73.6902 42.9152C65.2602 58.0615 58.8014 74.9476 54.3817 93.3595C59.5553 85.8209 65.909 79.4583 73.2683 74.4487L73.2891 74.4391C91.5422 69.8482 111.079 67.4864 130.051 67.4864Z" fill="#84AAB6"/>
<path d="M95.9077 240.788C88.7807 240.788 82.0273 238.314 75.7636 233.399C67.4401 226.866 62.0962 217.682 59.0792 211.127C51.7752 195.257 47.7857 176.596 47.224 155.664C46.7482 137.925 48.7097 118.815 53.0548 98.865C57.7346 77.3755 64.8947 58.0778 74.336 41.5081C86.0666 20.9197 98.6564 8.20153 112.826 2.62808C117.257 0.885431 121.705 0.000976562 126.052 0.000976562C126.138 0.000976562 126.222 0.000976562 126.306 0.000976562C135.329 0.135027 143.526 4.01281 150.675 11.5293C157.809 19.0292 162.388 28.6145 164.972 35.3349C168.357 44.1366 170.833 53.9099 172.333 64.3837C173.654 73.6125 174.258 83.6911 174.128 94.3377C173.618 136.105 162.694 175.719 143.368 205.884C137.744 214.664 131.863 221.88 125.89 227.333C118.199 234.355 110.113 238.694 101.86 240.228C99.8488 240.603 97.8637 240.79 95.9063 240.79L95.9077 240.788ZM126.051 0.128117C121.721 0.128117 117.288 1.00843 112.871 2.74555C98.7297 8.30932 86.1607 21.0082 74.4453 41.5703C65.0109 58.129 57.8563 77.4142 53.1779 98.8913C46.4936 129.583 42.1112 173.959 59.194 211.073C62.8695 219.06 76.808 244.754 101.835 240.101C116.49 237.377 130.427 225.841 143.258 205.813C162.571 175.669 173.488 136.078 173.997 94.3349C174.276 71.3972 171.284 52.1133 164.849 35.3792C159.841 22.3542 148.171 0.452877 126.304 0.129499C126.219 0.129499 126.135 0.128117 126.051 0.128117Z" fill="#84AAB6"/>
<path d="M120.684 201.595C112.478 201.595 104.366 201.146 96.3812 200.246C75.3185 197.873 56.1234 192.435 39.3284 184.081C24.0315 176.472 4.99126 163.178 1.14836 143.054C-0.644443 133.662 1.29914 124.305 6.92516 115.24C11.5469 107.793 18.6434 100.668 27.4469 94.6353C42.7231 84.1669 61.2888 76.7085 82.6267 72.4686C92.1731 70.5712 102.281 69.3288 112.671 68.7747C122.364 68.2578 132.353 68.3352 142.36 69.0068C164.775 70.509 185.092 75.0957 202.746 82.6371C224.703 92.0178 239.024 104.167 245.305 118.746C247.398 123.603 248.462 128.638 248.469 133.713C248.415 142.954 244.961 151.88 238.202 160.241C232.705 167.042 225.203 173.299 215.907 178.842C199.518 188.614 179.322 195.366 155.878 198.911C144.041 200.701 132.27 201.598 120.682 201.598L120.684 201.595ZM125.705 68.5784C98.0758 68.5784 58.9828 73.179 27.5202 94.7403C18.0914 101.202 -3.34194 118.843 1.27562 143.029C5.10884 163.102 24.1158 176.37 39.3865 183.965C71.6264 200.001 112.991 205.263 155.86 198.781C179.287 195.239 199.467 188.492 215.842 178.729C227.924 171.525 248.21 156.095 248.342 133.71C248.336 128.654 247.275 123.636 245.189 118.795C238.92 104.247 224.623 92.1201 202.697 82.7532C185.057 75.2174 164.754 70.6348 142.353 69.1326C137.527 68.8092 131.902 68.577 125.706 68.577L125.705 68.5784Z" fill="#84AAB6"/>
<path d="M96.8318 239.911C93.5395 239.911 90.2804 239.384 87.0973 238.335C80.911 236.297 75.1412 232.378 69.9481 226.688C65.1466 221.426 61.0049 214.744 57.974 207.366C55.7192 201.879 53.8586 196.032 52.3729 189.746C43.6759 186.51 35.9112 182.692 28.9046 178.219C21.9036 173.748 15.7477 168.23 11.1011 162.26C6.09623 155.83 2.89658 149.062 1.5921 142.147C0.640364 137.097 0.735814 132.042 1.87845 127.119C3.09993 121.858 5.52768 116.709 9.09668 111.814C16.0977 102.214 26.2542 93.9717 39.2838 87.3203C49.6588 82.0232 62.1032 77.6175 76.2713 74.2221L76.6504 74.1309L76.3211 74.3382C46.4591 93.1577 34.1378 133.098 48.2658 165.261L48.8744 166.609C49.6173 174.921 50.8111 182.564 52.4808 189.646C58.1898 191.766 64.3014 193.636 70.8625 195.273L70.8846 195.285C86.3531 206.517 105.328 210.118 122.946 205.164C139.45 200.522 152.247 189.041 158.979 172.833L159.1 172.88C153.997 186.462 148.527 197.67 142.377 207.143C134.59 219.137 125.681 228.217 115.897 234.13C110.911 237.143 105.855 238.999 100.866 239.647C99.5169 239.822 98.1709 239.909 96.8291 239.909L96.8318 239.911ZM52.5181 189.8C53.9983 196.047 55.852 201.861 58.093 207.317C64.5338 222.993 75.1204 234.254 87.1374 238.214C96.4818 241.293 106.136 239.883 115.832 234.022C132.919 223.695 146.748 204.452 158.064 175.242C154.68 182.515 150.022 188.771 144.192 193.864C138.073 199.209 130.938 203.053 122.984 205.29C114.527 207.668 105.373 208.073 96.5109 206.46C87.2564 204.777 78.6147 201.054 70.821 195.398C64.2903 193.767 58.205 191.908 52.5181 189.8ZM75.9255 74.439C44.1849 82.1006 21.7348 94.7 9.20043 111.892C2.24918 121.424 -0.267103 131.596 1.71798 142.123C4.25086 155.55 14.1846 168.668 28.9724 178.111C35.9486 182.565 43.68 186.371 52.3355 189.595C50.6755 182.533 49.4872 174.917 48.7472 166.634L48.1482 165.315C34.0423 133.211 46.2461 93.3774 75.9241 74.4377L75.9255 74.439Z" fill="#84AAB6"/>
<path d="M108.25 207.82C106.034 207.82 103.798 207.693 101.549 207.439C90.5903 206.196 79.9608 202.031 70.81 195.391L70.5444 195.197L70.864 195.276C88.8473 199.701 110.841 202.36 133.613 201.516C133.669 201.487 133.725 201.456 133.782 201.426C153.201 191.044 160.713 170.911 165.938 150.698C170.512 133.001 173.052 114.926 173.488 96.9772C174.055 73.5903 171.239 53.9071 164.878 36.8012C160.42 24.8113 150.602 5.49426 132.713 1.41195C132.508 1.38154 132.296 1.35114 132.092 1.32212C130.022 1.04158 128.106 0.819085 126.233 0.642194L126.24 0.513672C128.423 0.545457 130.556 0.798356 132.637 1.27099C159.562 5.22477 185.54 18.1337 205.844 37.658C215.046 46.5067 223.003 56.5632 229.492 67.5484C236.048 78.6442 240.978 90.4751 244.149 102.714C247.332 115.001 250.237 129.199 247.637 141.34C246.337 147.415 243.496 153.352 239.191 158.987C235.521 163.792 230.765 168.412 225.057 172.72C215.045 180.273 203.353 186.492 190.305 191.202C178.151 195.59 164.838 198.669 150.736 200.356C145.085 201.032 139.342 201.481 133.533 201.704C125.85 205.744 117.224 207.82 108.25 207.82ZM71.1545 195.481C90.0979 209.086 114.359 211.513 133.234 201.716C125.503 202.001 117.659 201.885 109.773 201.364C96.5456 200.49 83.5547 198.511 71.1545 195.481ZM133.965 1.60266C140.085 3.2845 145.731 6.89833 150.821 12.4082C157.907 20.0795 162.442 29.8831 164.997 36.7556C168.342 45.7521 170.749 55.7396 172.152 66.4387C173.386 75.8595 173.878 86.1344 173.615 96.9786C173.179 114.939 170.638 133.023 166.061 150.729C163.708 159.832 160.594 170.408 155.334 179.816C149.861 189.61 142.851 196.704 133.907 201.502C165.704 200.283 198.986 192.226 224.978 172.615C237.509 163.161 245.089 152.629 247.511 141.311C250.104 129.196 247.203 115.016 244.023 102.743C237.658 78.1771 224.425 55.7022 205.753 37.7478C185.807 18.5676 160.379 5.77756 133.962 1.59989L133.965 1.60266ZM128.956 0.796974C129.326 0.839814 129.7 0.884037 130.079 0.931024C129.708 0.879891 129.333 0.835669 128.956 0.796974Z" fill="#84AAB6"/>
<path d="M95.8844 240.31C92.9559 240.31 90.0647 239.894 87.2137 239.059C79.0271 236.663 71.8656 231.087 65.9283 222.488C61.337 215.84 57.4748 207.396 54.4508 197.393C49.2633 180.238 47.043 161.185 47.8537 140.763C48.5841 122.372 51.7229 103.379 57.1856 84.3089C60.1183 74.07 63.5988 64.4626 67.5302 55.7549C71.9015 46.0729 76.9645 37.2062 82.5767 29.4023C88.7602 20.8037 95.2536 13.9976 101.877 9.17315C110.402 2.95986 119.127 0.067418 127.808 0.571833C132.142 0.855135 136.344 2.04915 140.296 4.12209C147.776 8.04547 154.161 14.6872 159.274 23.8648C163.225 30.9556 166.499 39.7297 169.007 49.9424C173.352 67.6356 174.686 87.6201 172.972 109.34C171.372 129.614 167.634 148.715 161.861 166.114C155.285 185.938 146.195 203.048 134.842 216.969C130.291 222.551 122.966 230.252 113.919 235.249C107.818 238.619 101.78 240.31 95.8844 240.31ZM125.881 0.643695C107.376 0.643695 92.2421 16.1825 82.6819 29.4755C72.0316 44.2846 63.495 62.7448 57.3101 84.3435C45.733 124.767 44.7605 164.903 54.5753 197.356C59.4211 213.378 69.0228 233.598 87.251 238.935C107.979 245.005 125.904 227.726 134.744 216.887C161.839 183.661 170.42 140.059 172.845 109.331C174.559 87.6242 173.225 67.6535 168.884 49.9728C163.139 26.5803 153.502 11.1922 140.238 4.23541C136.301 2.17076 132.117 0.980894 127.801 0.700356C127.157 0.663043 126.516 0.645077 125.881 0.645077V0.643695Z" fill="#84AAB6"/>
<path d="M248.827 135.429L248.762 132.237L248.621 129.048L248.404 125.862L248.111 122.682L247.741 119.508L247.297 116.345L246.778 113.19L246.185 110.048L245.518 106.921L244.777 103.81L243.962 100.716L243.075 97.6425L242.117 94.5884L241.086 91.5578L239.985 88.552L238.815 85.5725L237.575 82.6206L236.268 79.6978L234.893 76.8053L233.451 73.9474L231.945 71.1227L230.375 68.3339L228.74 65.5824L227.044 62.8696L225.287 60.1969L223.471 57.5671L221.595 54.9787L219.662 52.4372L217.674 49.94L215.631 47.4912L213.536 45.0907L211.387 42.74L209.189 40.4404L206.941 38.1948L204.648 36.0016L202.307 33.8637L199.922 31.7811L197.494 29.7565L195.025 27.79L192.517 25.8829L189.97 24.0352L187.388 22.2497L184.771 20.5264L182.121 18.8653L179.441 17.2691L176.729 15.7365L173.992 14.2703L171.228 12.8703L168.439 11.5367L165.629 10.2709L162.798 9.07271L159.948 7.94365L157.082 6.88369L154.199 5.8942L151.304 4.9752L148.397 4.12668L145.48 3.34863L142.555 2.64107L139.624 2.00675L136.689 1.44291L133.752 0.952316L130.812 0.533583L127.874 0.186711L127.889 0.0595703L130.829 0.406442L133.771 0.825176L136.712 1.31715L139.65 1.88099L142.584 2.5167L145.512 3.22288L148.432 4.0023L151.341 4.85221L154.24 5.77259L157.125 6.76346L159.994 7.82342L162.846 8.95386L165.681 10.152L168.493 11.4193L171.284 12.7543L174.051 14.1556L176.791 15.6246L179.504 17.1572L182.188 18.7561L184.841 20.4172L187.46 22.1433L190.045 23.9302L192.593 25.7792L195.104 27.6891L197.575 29.657L200.005 31.683L202.393 33.767L204.735 35.9076L207.031 38.1022L209.282 40.3506L211.481 42.6516L213.631 45.0051L215.73 47.4069L217.774 49.8585L219.765 52.3571L221.699 54.9027L223.576 57.4924L225.393 60.1251L227.153 62.8006L228.85 65.5147L230.486 68.269L232.058 71.0605L233.566 73.888L235.009 76.7501L236.385 79.6439L237.694 82.5695L238.935 85.5241L240.107 88.5064L241.208 91.5149L242.238 94.5483L243.198 97.6052L244.086 100.681L244.901 103.778L245.644 106.893L246.312 110.023L246.906 113.167L247.424 116.325L247.87 119.493L248.238 122.668L248.531 125.852L248.75 129.041L248.891 132.233L248.956 135.427L248.827 135.429Z" fill="#84AAB6"/>
<path d="M248.342 133.711L248.235 130.531L248.054 127.355L247.797 124.185L247.465 121.021L247.057 117.863L246.574 114.716L246.016 111.582L245.385 108.46L244.681 105.352L243.903 102.263L243.053 99.1911L242.13 96.1398L241.137 93.1119L240.072 90.1061L238.938 87.1266L237.734 84.1734L236.463 81.2491L235.122 78.3539L233.717 75.4919L232.247 72.6644L230.71 69.8701L229.111 67.1131L227.449 64.3934L225.726 61.7138L223.942 59.0756L222.101 56.4803L220.2 53.9278L218.244 51.4209L216.234 48.961L214.169 46.5481L212.051 44.1864L209.884 41.873L207.666 39.6135L205.402 37.4051L203.089 35.252L200.733 33.1542L198.331 31.113L195.89 29.1299L193.408 27.2048L190.888 25.3392L188.33 23.533L185.736 21.7903L183.111 20.1085L180.452 18.4916L177.764 16.9383L175.047 15.4485L172.303 14.0265L169.535 12.6694L166.743 11.38L163.931 10.157L161.098 9.00443L158.248 7.91959L155.382 6.90385L152.502 5.95721L149.609 5.08243L146.705 4.27675L143.792 3.54293L140.873 2.87959L137.949 2.28949L135.02 1.76987L132.09 1.32212L129.161 0.946225L126.233 0.642194L126.246 0.513672L129.176 0.817703L132.108 1.1936L135.041 1.64273L137.972 2.16235L140.901 2.75383L143.822 3.41717L146.737 4.15237L149.644 4.95806L152.54 5.83422L155.423 6.78224L158.292 7.79798L161.145 8.8842L163.98 10.0395L166.795 11.2626L169.59 12.5533L172.361 13.9104L175.108 15.3352L177.826 16.8249L180.518 18.381L183.178 19.9993L185.808 21.6825L188.403 23.4279L190.962 25.2342L193.486 27.1012L195.97 29.029L198.414 31.0149L200.817 33.0574L203.176 35.1566L205.49 37.3125L207.757 39.5223L209.978 41.7845L212.147 44.0993L214.266 46.4638L216.333 48.8781L218.345 51.3408L220.304 53.8504L222.205 56.4043L224.049 59.0024L225.833 61.6433L227.558 64.3257L229.221 67.0467L230.822 69.8065L232.36 72.6036L233.832 75.4339L235.24 78.2987L236.581 81.1966L237.853 84.1236L239.058 87.0783L240.194 90.0619L241.259 93.0691L242.254 96.1011L243.176 99.1552L244.028 102.23L244.806 105.323L245.511 108.432L246.143 111.557L246.701 114.695L247.184 117.845L247.592 121.005L247.925 124.173L248.183 127.347L248.364 130.526L248.47 133.707L248.342 133.711Z" fill="#84AAB6"/>
<path d="M206.575 184.381L206.46 184.323C211.732 173.994 215.204 162.973 216.778 151.565C219.604 131.088 216.346 109.901 207.356 90.2956C198.514 71.0145 184.581 54.196 167.061 41.6617L167.136 41.5566C184.674 54.1048 198.622 70.9399 207.472 90.2417C211.875 99.8436 214.929 109.942 216.547 120.252C218.2 130.783 218.32 141.323 216.904 151.583C215.327 163.005 211.853 174.04 206.575 184.381Z" fill="#84AAB6"/>
<path d="M207.748 85.0138C202.043 74.7348 194.731 65.542 186.011 57.6939C171.229 44.387 152.381 35.2909 132.94 32.0848C113.609 28.8966 93.4318 31.5375 76.1277 39.5225L76.0737 39.405C84.8205 35.3697 94.1996 32.6859 103.953 31.4311C113.575 30.1929 123.334 30.3698 132.961 31.9576C142.739 33.5704 152.294 36.6107 161.356 40.9915C170.376 45.3516 178.7 50.9389 186.097 57.5985C194.826 65.4577 202.148 74.6602 207.86 84.9517L207.746 85.0138H207.748Z" fill="#84AAB6"/>
<path d="M139.98 201.22L139.931 201.101C147.107 198.169 153.603 194.004 159.24 188.719C179.94 169.312 185.555 136.911 173.546 106.169L173.667 106.122C176.4 113.118 178.258 120.398 179.19 127.762C180.145 135.301 180.103 142.75 179.068 149.903C176.833 165.346 170.008 178.801 159.328 188.812C153.68 194.107 147.17 198.282 139.98 201.22Z" fill="#84AAB6"/>
<path d="M52.7218 103.355L52.6069 103.296C58.8015 91.3112 68.0228 81.3473 79.2721 74.4803C85.1581 70.8872 91.5519 68.1745 98.2791 66.4166C105.024 64.6532 111.93 63.8959 118.804 64.1654C126.619 64.4722 134.329 66.0863 141.714 68.9649L141.667 69.0852C134.294 66.2121 126.6 64.6007 118.798 64.2939C105.109 63.7577 91.094 67.4144 79.3385 74.5895C68.1086 81.444 58.9053 91.3914 52.7218 103.355Z" fill="#84AAB6"/>
<path d="M108.099 208.111C103.014 208.111 97.8627 207.447 92.7789 206.108C85.2619 204.129 78.0782 200.746 71.4258 196.055L71.5005 195.949C78.1391 200.633 85.3089 204.009 92.8121 205.984C106.366 209.553 120.405 208.311 132.344 202.488C144.477 196.57 154.182 185.829 159.671 172.246L159.79 172.294C154.287 185.907 144.56 196.671 132.399 202.604C124.911 206.256 116.6 208.111 108.099 208.111Z" fill="#84AAB6"/>
<path d="M49.0215 169.43C42.8559 157.545 40.2871 143.834 41.5916 129.783C42.2224 122.983 43.7523 116.297 46.1386 109.911C48.558 103.435 51.8116 97.3935 55.8109 91.9541C60.6982 85.3042 66.6092 79.5801 73.3792 74.9395L73.4525 75.0459C66.6949 79.6782 60.795 85.3926 55.9146 92.0315C39.4695 114.405 36.7458 145.487 49.1363 169.372L49.0215 169.431V169.43Z" fill="#84AAB6"/>
<path d="M95.926 235.24C87.7519 235.24 79.5778 233.835 71.6029 231.054C62.6264 227.925 54.1175 223.214 46.3114 217.055C38.7805 211.112 32.1281 204.004 26.538 195.927C20.0488 186.552 15.1421 176.06 11.9521 164.744L12.0766 164.709C15.2625 176.012 20.1636 186.491 26.6445 195.854C38.0529 212.335 54.0345 224.794 71.6457 230.933C89.167 237.041 107.455 236.477 123.139 229.343L123.193 229.461C115.251 233.073 106.634 235.011 97.5819 235.221C97.0313 235.233 96.4766 235.24 95.926 235.24Z" fill="#84AAB6"/>
<path d="M69.9526 227.434C61.737 224.952 53.8741 220.863 46.5812 215.281C39.7254 210.033 33.5709 203.629 28.2907 196.245C22.5679 188.243 18.0333 179.338 14.8157 169.773C11.6437 160.347 9.82601 150.517 9.41516 140.556C8.94067 129.091 10.3448 117.602 13.5887 106.406L13.7132 106.442C10.4734 117.624 9.07209 129.099 9.54519 140.55C10.3738 160.579 17.0691 180.331 28.3973 196.169C39.327 211.449 54.0996 222.509 69.9913 227.31L69.954 227.433L69.9526 227.434Z" fill="#84AAB6"/>
<path d="M68.7062 226.746C60.5639 224.099 52.8048 219.886 45.6447 214.224C38.8968 208.887 32.8627 202.418 27.7084 194.994C22.0713 186.875 17.6488 177.863 14.5639 168.206C11.522 158.687 9.85507 148.784 9.61022 138.773C9.33079 127.427 10.905 116.045 14.29 104.945L14.4132 104.983C11.0337 116.07 9.46082 127.437 9.73887 138.77C10.2341 158.905 16.6528 178.847 27.8149 194.922C38.4541 210.245 52.9902 221.504 68.7463 226.624L68.7062 226.746Z" fill="#84AAB6"/>
<path d="M96.2759 234.071C88.6717 234.071 81.0496 232.835 73.5754 230.389C56.0195 224.642 39.9895 212.547 28.4386 196.332C21.9411 187.211 16.9653 176.953 13.6494 165.842L13.7725 165.805C17.0842 176.903 22.0545 187.148 28.5438 196.258C40.0794 212.45 56.0859 224.528 73.6169 230.266C90.993 235.954 109.018 235.049 124.37 227.717L124.425 227.833C116.647 231.547 108.186 233.624 99.2764 234.006C98.2776 234.049 97.2774 234.069 96.2787 234.069L96.2759 234.071Z" fill="#84AAB6"/>
<path d="M48.4083 167.991C42.7753 156.366 40.4513 143.127 41.6866 129.705C42.341 122.601 43.994 115.619 46.6016 108.957C49.2286 102.246 52.7644 96.0035 57.115 90.4052C62.0756 84.0206 68.0447 78.5204 74.859 74.0566L74.9295 74.1644C68.1277 78.6199 62.1683 84.1118 57.2159 90.484C48.4664 101.746 43.1405 115.312 41.8139 129.716C40.58 143.115 42.8998 156.33 48.5231 167.933L48.4069 167.99L48.4083 167.991Z" fill="#84AAB6"/>
<path d="M107.928 207.006C103.569 207.006 99.1919 206.495 94.8455 205.473C87.2786 203.694 80.0729 200.514 73.4287 196.019L73.5006 195.912C80.1323 200.398 87.3243 203.572 94.8759 205.347C122.457 211.828 149.807 197.096 159.906 170.315L160.027 170.361C157.556 176.912 154.024 182.85 149.527 188.013C145.138 193.053 139.959 197.21 134.134 200.37C128.288 203.542 121.981 205.605 115.392 206.501C112.917 206.838 110.426 207.005 107.93 207.005L107.928 207.006Z" fill="#84AAB6"/>
<path d="M52.6164 101.532L52.5029 101.471C59.0101 89.4011 68.7972 79.404 80.8032 72.5577C92.9156 65.6521 106.518 62.4086 120.14 63.1798C128.278 63.64 136.171 65.4572 143.598 68.5805L143.548 68.6993C136.135 65.5816 128.257 63.7671 120.133 63.3083C92.4813 61.7453 65.978 76.7479 52.6164 101.532Z" fill="#84AAB6"/>
<path d="M141.68 200.569L141.627 200.452C148.717 197.316 155.066 193.025 160.501 187.695C170.416 177.974 177.108 164.651 179.346 150.179C181.604 135.58 179.471 119.792 173.177 104.52L173.296 104.472C179.599 119.764 181.735 135.577 179.474 150.198C178.37 157.336 176.212 164.174 173.059 170.521C169.821 177.041 165.626 182.85 160.591 187.787C155.145 193.127 148.783 197.428 141.68 200.569Z" fill="#84AAB6"/>
<path d="M209.755 85.4434C204.109 74.9888 196.879 65.6371 188.265 57.6466C173.305 43.7704 154.121 34.2072 134.246 30.7191C114.487 27.2518 94.62 29.6246 76.7874 37.5792L76.7349 37.4617C85.6214 33.4982 95.1249 30.9015 104.983 29.7448C114.71 28.6033 124.562 28.8894 134.268 30.592C144.269 32.3471 154.02 35.574 163.249 40.1842C172.426 44.7681 180.871 50.6111 188.353 57.5513C196.977 65.5514 204.216 74.9142 209.87 85.3812L209.756 85.442L209.755 85.4434Z" fill="#84AAB6"/>
<path d="M207.767 183.254L207.651 183.197C212.837 172.708 216.18 161.461 217.591 149.768C220.047 129.412 216.522 108.413 207.398 89.0389C198.236 69.5851 183.986 52.8012 166.191 40.499L166.264 40.3926C175.082 46.487 183.097 53.7506 190.088 61.9802C197.099 70.2319 202.961 79.3182 207.514 88.9837C211.983 98.4722 215.135 108.462 216.883 118.676C218.669 129.112 218.95 139.577 217.72 149.782C216.308 161.49 212.96 172.753 207.767 183.254Z" fill="#84AAB6"/>
<path d="M100.109 202.202C76.8803 202.202 56.2908 198.559 38.8968 191.37C25.5296 185.845 8.3818 175.644 2.60777 158.413C-0.0814312 150.387 0.138519 141.907 3.2607 133.211C5.90287 125.854 10.6698 118.393 17.0456 111.635C23.4906 104.804 31.4005 98.5178 40.554 92.9499C48.4929 88.1213 57.6008 83.6949 67.6272 79.7923C78.7243 75.4723 90.4716 72.0353 102.541 69.5768C114.284 67.1846 126.437 65.6977 138.66 65.1545C162.712 64.0877 184.452 66.8709 203.28 73.4283C222.4 80.0866 235.634 89.6263 242.619 101.779C245.204 106.279 246.816 111.056 247.411 115.979C248.419 123.975 246.725 132.198 242.375 140.417C238.768 147.235 233.449 153.892 226.567 160.204C219.418 166.76 210.923 172.728 201.317 177.942C192.867 182.527 183.321 186.658 172.945 190.215C161.5 194.14 149.516 197.148 137.328 199.158C125.29 201.142 112.976 202.166 100.728 202.199C100.523 202.199 100.314 202.199 100.111 202.199L100.109 202.202ZM148.536 65.0606C145.29 65.0606 142.002 65.1338 138.666 65.2831C113.642 66.3928 89.7578 71.3153 67.6742 79.9125C46.1523 88.2913 29.1512 98.9946 17.1397 111.724C3.05182 126.656 -2.19931 143.658 2.73089 158.372C8.4897 175.555 25.6029 185.736 38.9466 191.251C56.4789 198.497 77.2607 202.141 100.726 202.072C125.64 202.003 149.923 197.973 172.903 190.093C195.034 182.505 213.06 172.417 226.48 160.109C235.307 152.015 249.746 135.52 247.283 115.994C246.691 111.088 245.085 106.326 242.508 101.843C235.54 89.7175 222.328 80.1972 203.238 73.5486C187.038 67.906 168.671 65.0606 148.536 65.0606Z" fill="#84AAB6"/>
<path d="M100.646 201.708C94.8328 201.708 89.0685 201.47 83.3899 200.995C72.9513 200.122 63.214 198.494 54.452 196.157C44.373 193.469 35.2513 189.757 27.3386 185.126C19.3015 180.42 12.6822 174.495 8.19605 167.99C2.95737 160.393 0.659649 152.201 1.36653 143.638C2.00702 135.881 5.01162 128.123 10.2973 120.577C14.6189 114.407 20.4704 108.358 27.69 102.599C42.63 90.6828 61.7532 81.2579 84.5284 74.5871C96.1498 71.1834 108.136 68.6958 120.155 67.1923C132.267 65.6776 144.497 65.1511 156.505 65.6307C179.454 66.5469 199.281 71.0493 215.435 79.0136C226.338 84.3894 244.936 96.4484 246.973 116.803C247.438 121.658 246.937 126.61 245.485 131.524C241.545 144.856 231.21 157.459 214.764 168.982C198.335 180.494 178.187 189.244 154.878 194.992C143.121 197.891 131.176 199.877 119.373 200.896C113.107 201.436 106.847 201.707 100.644 201.707L100.646 201.708ZM147.7 65.5837C126.471 65.5837 105.276 68.6447 84.5657 74.7101C61.8058 81.3767 42.6978 90.7934 27.7716 102.699C16.5915 111.617 2.95737 125.96 1.49657 143.648C0.185166 159.529 9.62918 174.606 27.4064 185.014C42.1721 193.66 61.0131 198.993 83.4024 200.866C106.745 202.819 130.783 200.802 154.85 194.866C178.144 189.121 198.278 180.378 214.693 168.875C231.115 157.369 241.433 144.789 245.364 131.487C246.811 126.589 247.311 121.653 246.847 116.816C244.817 96.523 226.261 84.493 215.381 79.1283C199.244 71.1709 179.435 66.6727 156.502 65.7578C153.569 65.6403 150.635 65.5823 147.701 65.5823L147.7 65.5837Z" fill="#84AAB6"/>
<path d="M82.3695 205.111C67.9551 205.111 54.7415 203.299 42.8836 199.683C29.8844 195.719 12.9165 187.645 5.89604 171.686C2.91772 164.914 2.15274 157.445 3.62322 149.482C4.89035 142.623 7.8742 135.402 12.2511 128.602C17.4552 120.516 24.3829 112.776 32.8378 105.595C40.0685 99.4549 48.6438 93.5373 58.3258 88.0067C69.1697 81.8114 80.8616 76.4853 93.0779 72.1736C104.959 67.9808 117.393 64.7262 130.036 62.5027C155.021 58.1067 177.796 58.2476 197.727 62.9214C206.622 65.0068 214.446 67.9158 220.984 71.5656C228.941 76.0086 235.034 81.5848 239.097 88.1408C240.898 91.047 242.304 94.249 243.276 97.6597C245.217 104.889 244.928 112.617 242.416 120.628C240.273 127.46 236.579 134.363 231.436 141.143C225.387 149.118 217.727 156.671 208.668 163.592C200.797 169.606 191.646 175.311 181.47 180.548C170.181 186.359 158.183 191.25 145.811 195.088C133.553 198.89 120.894 201.665 108.188 203.338C99.2102 204.52 90.592 205.111 82.3667 205.111H82.3695ZM164.73 59.4361C153.74 59.4361 142.161 60.5002 130.06 62.6298C104.121 67.1944 80.0081 75.7695 58.3908 88.1187C37.4762 100.066 21.9897 113.71 12.3604 128.671C6.75924 137.372 -1.51171 154.525 6.01362 171.633C13.0147 187.548 29.9481 195.603 42.921 199.559C61.5296 205.233 83.4844 206.461 108.174 203.21C133.659 199.854 158.985 191.977 181.413 180.434C203.249 169.194 220.046 155.949 231.335 141.066C239.241 130.643 247.71 114.658 243.153 97.6929C242.183 94.2947 240.782 91.1023 238.988 88.2071C231.541 76.1896 217.65 67.7237 197.698 63.0458C187.435 60.6398 176.415 59.4347 164.729 59.4347L164.73 59.4361Z" fill="#84AAB6"/>
<path d="M82.2904 204.561C73.6017 204.561 65.4567 203.956 58.0102 202.755C47.2963 201.026 37.6406 198.005 29.3143 193.775C22.2828 190.204 16.2612 185.503 11.9009 180.181C6.92782 174.111 4.09614 167.333 3.48194 160.034C2.84837 152.489 4.47517 144.591 8.31946 136.56C11.4914 129.933 16.1491 123.237 22.1625 116.66C35.5808 101.984 53.9957 89.3803 76.8954 79.2008C88.586 74.0033 100.769 69.7703 113.104 66.6194C125.629 63.4188 138.353 61.3252 150.923 60.3923C162.11 59.5632 172.646 59.6696 182.234 60.7074C193.354 61.9125 203.56 64.4069 212.571 68.123C220.225 71.2794 226.69 75.3368 231.786 80.1834C237.679 85.7872 241.515 92.2741 243.187 99.4631C243.929 102.896 244.204 106.373 244.003 109.797C243.172 124.03 235.131 138.584 220.104 153.057C205.117 167.49 185.509 179.541 161.829 188.873C149.973 193.546 137.799 197.238 125.648 199.849C113.081 202.549 100.458 204.105 88.1336 204.475C86.1624 204.535 84.2147 204.564 82.2946 204.564L82.2904 204.561ZM165.268 59.9736C160.633 59.9736 155.853 60.156 150.931 60.5209C126.045 62.3658 100.462 68.8651 76.9466 79.3183C54.0635 89.4895 35.6638 102.082 22.2565 116.746C12.9467 126.928 2.15532 142.702 3.61059 160.023C4.75737 173.667 14.1461 185.928 29.3724 193.66C44.7288 201.459 64.4952 205.056 88.1253 204.344C112.609 203.609 137.39 198.363 161.778 188.752C185.443 179.426 205.036 167.385 220.011 152.962C235.015 138.512 243.042 123.986 243.871 109.788C244.07 106.374 243.796 102.91 243.057 99.4894C238.881 81.5363 222.132 72.2053 212.519 68.2405C199.183 62.7403 183.335 59.9722 165.267 59.9722L165.268 59.9736Z" fill="#84AAB6"/>
<path d="M71.1959 209.788C67.4069 209.788 63.6816 209.635 60.0186 209.328C43.8114 207.971 22.2868 202.832 11.7707 186.052C7.30526 178.925 5.58024 170.597 6.64403 161.301C7.53489 153.518 10.4316 145.106 15.0215 136.974C25.2167 118.911 42.0574 102.185 65.076 87.2597C79.3562 78.0006 94.956 70.2478 111.443 64.2169C134.629 55.7358 156.924 51.6162 177.718 51.9713C188.42 52.1538 198.005 53.5081 206.209 55.997C216.49 59.1147 224.675 64.0442 230.538 70.6485C233.166 73.6087 235.288 76.9268 236.845 80.5102C240.151 88.3432 240.668 97.1283 238.384 106.625C236.496 114.47 232.772 122.612 227.313 130.823C221.086 140.193 213.08 149.194 203.52 157.578C195.126 164.94 185.332 172 174.411 178.566C160.249 187.077 144.918 194.128 128.845 199.52C108.492 206.349 89.1529 209.788 71.1959 209.788ZM175.232 52.0791C155.168 52.0791 133.738 56.1988 111.487 64.3385C95.0086 70.3666 79.4184 78.1139 65.1452 87.3675C42.1445 102.282 25.3176 118.992 15.1322 137.038C4.91486 155.14 3.72934 172.98 11.8786 185.984C22.3656 202.718 43.8502 207.847 60.0269 209.201C81.0314 210.959 104.17 207.662 128.802 199.399C144.867 194.009 160.188 186.964 174.343 178.457C197.718 164.406 215.502 148.356 227.204 130.753C234.218 120.201 244.779 99.649 236.724 80.5613C235.173 76.9903 233.058 73.6847 230.44 70.7342C219.832 58.7858 202.094 52.5172 177.714 52.0999C176.888 52.0861 176.061 52.0791 175.231 52.0791H175.232Z" fill="#84AAB6"/>
<path d="M70.8543 209.392C60.9067 209.392 51.5748 208.253 43.0299 205.989C34.2762 203.672 26.5088 199.864 20.566 194.98C13.6119 189.266 9.23646 182.246 7.56263 174.114C5.81409 165.619 6.89724 156.4 10.7816 146.714C13.8941 138.956 18.7884 130.906 25.3288 122.787C38.5645 106.358 56.6959 91.7563 79.2193 79.3878C94.0569 71.2397 109.701 64.7404 125.719 60.0694C151.955 52.4174 175.654 50.4412 196.155 54.1946C205.433 55.8931 213.831 58.9527 220.442 63.042C228.467 68.0046 234.034 74.4832 236.99 82.2968C238.323 85.9383 239.087 89.7939 239.257 93.7574C239.946 109.835 231.855 127.195 215.205 145.36C201.267 160.565 183.311 173.903 161.836 185.003C145.87 193.256 129.378 199.542 112.819 203.69C100.488 206.778 88.7767 208.633 78.0103 209.201C75.5922 209.328 73.2059 209.392 70.8543 209.392ZM174.974 52.4796C159.847 52.4796 143.377 55.057 125.756 60.1951C109.748 64.8634 94.1109 71.36 79.2829 79.5039C56.7747 91.8641 38.6558 106.455 25.4298 122.871C15.1516 135.628 3.73218 154.868 7.68851 174.091C12.0917 195.481 33.893 203.438 43.0617 205.866C62.5889 211.037 86.0474 210.264 112.789 203.565C129.337 199.421 145.82 193.137 161.778 184.888C183.239 173.796 201.184 160.467 215.111 145.273C231.737 127.136 239.817 109.805 239.13 93.7629C238.96 89.8133 238.2 85.97 236.871 82.3424C229.6 63.1207 208.228 56.5371 196.133 54.3232C189.417 53.0932 182.355 52.4796 174.974 52.4796Z" fill="#84AAB6"/>
<path d="M63.9432 215.548C48.8483 215.548 30.2175 212.368 19.1246 198.879C13.8928 192.518 11.1428 184.653 10.9491 175.506C10.7872 167.841 12.4777 159.297 15.8392 150.795C19.404 141.778 24.5556 132.729 31.1499 123.897C36.8894 116.21 43.8904 108.466 51.9594 100.879C68.2537 85.5582 87.0421 72.6452 107.805 62.5002C128.705 52.2861 149.017 46.1019 168.173 44.1187C178.496 43.0505 187.88 43.2426 196.065 44.6923C206.302 46.5054 214.751 50.3058 221.18 55.9898C224.017 58.4994 226.412 61.3725 228.294 64.5289C232.569 71.6792 234.22 80.1893 233.206 89.8243C232.374 97.7291 229.802 106.167 225.562 114.903C221.245 123.797 215.474 132.646 208.41 141.203C202.159 148.777 194.732 156.317 186.338 163.615C169.196 178.519 149.894 190.779 128.97 200.061C107.578 209.549 87.1555 214.731 68.2717 215.464C66.8703 215.518 65.422 215.548 63.9432 215.548ZM180.934 43.5535C176.891 43.5535 172.641 43.7843 168.186 44.2445C149.043 46.2262 128.747 52.4077 107.86 62.6135C87.1099 72.753 68.3325 85.6577 52.0465 100.97C34.7549 117.227 22.6134 134.006 15.9581 150.839C11.5716 161.932 6.16415 182.915 19.2228 198.795C31.3699 213.565 52.5957 215.941 68.2634 215.333C87.132 214.6 107.538 209.422 128.914 199.94C149.827 190.665 169.118 178.409 186.251 163.516C204.122 147.98 217.308 131.604 225.445 114.845C230.93 103.544 238.581 81.9886 228.182 64.5939C226.306 61.4485 223.922 58.5851 221.094 56.0851C211.668 47.7505 198.193 43.5535 180.934 43.5535Z" fill="#84AAB6"/>
<path d="M64.6226 215.107C60.4726 215.107 56.4429 214.862 52.5516 214.372C43.7425 213.262 35.6943 210.617 29.2784 206.723C21.7365 202.144 16.4978 195.963 13.7076 188.35C10.7902 180.385 10.5163 171.321 12.8956 161.41C14.8032 153.462 18.3985 144.989 23.5832 136.228C33.2071 119.959 47.223 104.413 65.2382 90.0217C83.2658 75.6217 103.009 64.1473 123.921 55.9177C134.21 51.8685 144.211 48.8103 153.647 46.8299C164.419 44.569 174.815 43.6321 184.548 44.0467C196.766 44.5677 218.72 48.1027 228.489 65.93C230.223 69.1361 231.475 72.6463 232.209 76.3652C235.235 91.6787 230.003 109.476 216.659 129.262C205.9 145.217 191.135 160.223 172.778 173.858C154.115 187.722 134.031 198.478 113.089 205.826C102.652 209.488 92.6185 212.096 83.2671 213.579C76.8443 214.597 70.6096 215.107 64.6226 215.107ZM180.041 44.0812C162.986 44.0812 144.15 48.0944 123.968 56.0379C103.068 64.2633 83.3349 75.7308 65.3184 90.1226C47.3143 104.505 33.3094 120.039 23.6939 136.294C15.5461 150.066 7.22116 170.269 13.8293 188.307C18.9698 202.338 33.0895 211.792 52.5682 214.245C70.2112 216.467 90.5601 213.594 113.048 205.704C133.977 198.36 154.048 187.612 172.702 173.755C191.047 160.127 205.801 145.134 216.553 129.191C229.877 109.434 235.102 91.669 232.083 76.39C231.352 72.6836 230.104 69.1845 228.376 65.9908C218.637 48.2188 196.732 44.6934 184.541 44.1738C183.057 44.1102 181.554 44.0784 180.041 44.0784V44.0812Z" fill="#84AAB6"/>
<path d="M61.8626 221.688C50.013 221.688 37.48 219.089 28.2089 210.573C22.161 205.018 18.3969 197.624 17.0219 188.596C15.8737 181.059 16.452 172.398 18.6916 163.549C20.9796 154.51 24.7423 145.223 29.8731 135.946C34.3246 127.898 39.9603 119.586 46.6238 111.244C61.1433 93.0625 78.8818 76.9889 99.3441 63.4678C118.953 50.512 138.51 41.749 157.476 37.4234C179.606 32.3765 197.154 34.0335 209.633 42.3473C212.877 44.5087 215.667 47.0916 217.925 50.0241C223.007 56.4889 225.671 64.648 225.847 74.2762C225.99 82.116 224.505 90.7256 221.437 99.8659C218.403 108.904 214.009 118.094 208.376 127.18C203.389 135.225 197.294 143.407 190.259 151.5C182.48 160.452 173.875 168.906 164.684 176.625C155.538 184.309 145.73 191.335 135.533 197.508C115.828 209.439 96.5871 217.073 78.3451 220.201C73.3277 221.062 67.6768 221.688 61.8626 221.688ZM180.522 34.6996C173.518 34.6996 165.838 35.649 157.506 37.5492C138.556 41.8719 119.012 50.6281 99.4174 63.5756C78.9662 77.0884 61.2388 93.1537 46.7262 111.324C32.2635 129.432 23.1348 146.526 18.8175 163.581C15.8876 175.154 13.2246 196.635 28.2961 210.478C42.0768 223.137 63.1076 222.683 78.3229 220.074C96.5483 216.95 115.774 209.32 135.467 197.399C156.098 184.909 174.501 169.438 190.163 151.416C205.121 134.203 215.602 116.846 221.315 99.8244C225.294 87.9741 230.13 65.7564 217.824 50.1015C215.574 47.1801 212.795 44.6068 209.563 42.4538C201.809 37.2866 192.088 34.6982 180.521 34.6982L180.522 34.6996Z" fill="#84AAB6"/>
<path d="M62.2665 221.187C53.9651 221.187 46.188 219.765 39.678 217.049C31.4555 213.618 25.3412 208.239 21.5052 201.064C17.6429 193.841 16.1434 185.217 17.0453 175.434C17.7688 167.586 20.0292 158.999 23.7614 149.907C27.5158 140.761 32.5663 131.554 38.772 122.541C44.3413 114.454 50.9882 106.307 58.5315 98.3279C66.6724 89.7155 75.5368 81.6684 84.8771 74.4103C94.31 67.0804 104.307 60.4953 114.594 54.8362C123.922 49.705 133.108 45.5232 141.902 42.4096C151.895 38.8718 161.713 36.5902 171.084 35.6297C183.321 34.3763 205.655 34.6624 217.739 50.6447C219.966 53.5648 221.74 56.905 223.011 60.5755C227.899 74.6839 225.438 92.2127 215.698 112.675C207.255 130.411 194.472 147.716 177.706 164.109C160.195 181.229 140.901 195.091 120.355 205.314C110.88 210.029 101.675 213.731 92.9986 216.321C82.9349 219.323 73.1699 220.955 63.9749 221.168C63.4036 221.181 62.8337 221.187 62.2665 221.187ZM179.855 35.3036C176.62 35.3036 173.64 35.4971 171.096 35.7583C153.515 37.559 134.525 44.0155 114.655 54.9482C93.9946 66.3148 75.144 80.9401 58.6242 98.4149C42.6882 115.273 30.999 132.614 23.879 149.954C18.0233 164.218 12.876 184.653 21.6172 201.002C31.6367 219.741 54.5738 221.257 63.9721 221.038C81.261 220.635 99.6857 215.453 120.299 205.198C140.832 194.982 160.115 181.127 177.616 164.017C194.372 147.635 207.146 130.342 215.581 112.62C225.308 92.1892 227.766 74.6936 222.889 60.6183C221.622 56.9617 219.854 53.6325 217.637 50.7235C208.102 38.109 192.148 35.3036 179.855 35.3036Z" fill="#84AAB6"/>
<path d="M63.5007 227.58C62.6085 227.58 61.7273 227.561 60.8586 227.522C52.1892 227.139 44.7095 224.83 38.6256 220.658C32.6898 216.586 28.306 210.779 25.5974 203.396C23.2748 197.066 22.2373 189.561 22.5956 181.693C23.3979 164.073 29.6879 145.258 41.8253 124.173C48.0572 113.347 55.465 102.805 63.8466 92.8415C71.9571 83.1982 81.0248 74.0372 90.7994 65.6114C109.956 49.097 129.473 37.4636 148.805 31.032C168.274 24.5547 184.419 24.3764 196.792 30.5013C199.792 31.9869 202.58 33.9051 205.074 36.2019C210.358 41.2073 213.966 47.7924 215.797 55.7746C217.348 62.5337 217.612 70.1373 216.58 78.3765C215.353 88.1843 212.537 98.4495 208.211 108.889C204.48 117.891 199.498 127.327 193.399 136.933C186.617 147.614 178.767 157.9 170.062 167.505C161.482 176.972 152.035 185.823 141.987 193.808C122.457 209.324 103.03 219.701 84.2452 224.649C76.8513 226.596 69.8862 227.578 63.4994 227.578L63.5007 227.58ZM176.135 26.1661C167.958 26.1661 158.843 27.8286 148.845 31.155C129.529 37.5811 110.026 49.2075 90.8824 65.7095C70.7881 83.031 54.3209 102.723 41.9373 124.237C29.811 145.303 23.5266 164.1 22.7256 181.699C22.265 191.802 23.7285 210.286 38.699 220.553C52.5973 230.084 71.1215 227.974 84.2134 224.526C102.981 219.582 122.392 209.214 141.908 193.708C162.101 177.665 179.87 158.008 193.291 136.865C206.566 115.952 214.143 96.816 216.453 78.3613C218.045 65.6362 217.348 48.008 204.987 36.2972C202.501 34.0073 199.724 32.0961 196.734 30.6174C190.74 27.6503 183.855 26.1675 176.133 26.1675L176.135 26.1661Z" fill="#84AAB6"/>
<path d="M64.1603 227.042C58.4222 227.042 52.9691 226.227 48.1551 224.633C40.8138 222.202 34.9595 218.041 30.7528 212.263C26.4216 206.315 23.8721 198.89 23.1763 190.196C22.6091 183.103 23.2662 175.184 25.1309 166.661C27.3526 156.51 31.0848 146.044 36.2266 135.556C40.7598 126.31 46.5173 116.784 53.3399 107.243C60.7628 96.8628 69.0988 87.0233 78.1154 77.9977C87.2274 68.8781 97.0739 60.5504 107.383 53.2454C116.551 46.7488 125.614 41.373 134.317 37.2686C144.442 32.4925 154.446 29.2601 164.051 27.6584C172.132 26.311 179.637 26.3027 186.356 27.6335C194.256 29.1979 200.828 32.5989 205.891 37.7412C208.211 40.1679 210.17 42.8931 211.716 45.8422C218.114 58.0436 218.484 74.2664 212.817 94.063C207.194 113.706 196.464 133.786 180.926 153.747C173.084 163.822 164.46 173.251 155.297 181.772C145.867 190.54 135.799 198.406 125.374 205.149C116.218 211.071 107.273 215.844 98.7893 219.336C88.7546 223.467 78.962 225.975 69.6853 226.795C67.8234 226.959 65.978 227.041 64.1617 227.041L64.1603 227.042ZM175.649 26.803C171.248 26.803 167.239 27.259 164.073 27.7869C146.257 30.7568 127.208 39.3581 107.459 53.3518C87.006 67.843 68.3283 86.505 53.445 107.319C38.9145 127.639 29.4303 147.614 25.2568 166.691C22.3546 179.953 20.9712 198.612 30.8565 212.189C41.5165 226.828 59.7516 227.544 69.6743 226.669C86.9715 225.142 105.168 218.068 125.305 205.043C146.061 191.618 164.74 174.334 180.825 153.67C196.353 133.722 207.075 113.656 212.694 94.0298C218.352 74.2678 217.986 58.0754 211.603 45.9044C210.062 42.9664 208.11 40.2508 205.798 37.8338C197.168 29.0653 185.444 26.803 175.649 26.803Z" fill="#84AAB6"/>
<path d="M67.9051 232.814C61.6648 232.814 55.9517 231.626 50.8444 229.258C43.3149 225.768 37.5921 219.775 33.8363 211.449C30.7086 204.516 29.0182 195.993 28.949 186.803C28.8785 177.559 30.1802 167.68 32.8196 157.439C35.0924 148.622 38.4428 139.214 42.7796 129.478C51.9566 108.873 64.5187 89.3778 80.1157 71.534C95.4389 54.0024 111.758 40.3003 128.617 30.8062C137.51 25.798 145.973 22.2408 153.769 20.2356C163.628 17.6983 172.694 17.5615 180.719 19.8279C184.503 20.8962 187.998 22.5338 191.106 24.6924C197.949 29.4685 202.777 36.6215 205.457 45.9511C207.629 53.5132 208.359 62.2845 207.63 72.0232C206.94 81.2422 205.038 90.9395 201.98 100.845C199.28 109.593 195.591 118.776 191.018 128.14C180.767 149.124 167.278 168.568 150.929 185.933C135.213 202.624 118.788 215.258 102.109 223.485C93.1772 227.89 84.6973 230.773 76.905 232.053C73.7967 232.563 70.7948 232.817 67.9051 232.817V232.814ZM168.733 18.352C156.946 18.352 143.531 22.5532 128.68 30.9168C111.834 40.4039 95.5275 54.0978 80.2126 71.6183C64.6238 89.4525 52.0687 108.937 42.8972 129.529C33.4642 150.706 28.9435 169.44 29.0763 186.802C29.151 196.525 31.4252 220.115 50.8984 229.142C64.3914 235.397 81.6014 233.454 102.053 223.367C118.718 215.147 135.13 202.522 150.835 185.843C167.176 168.487 180.656 149.054 190.901 128.082C200.619 108.19 206.205 89.3253 207.501 72.0121C208.452 59.3354 207.573 36.3424 191.033 24.7961C187.937 22.6444 184.455 21.015 180.684 19.9496C176.913 18.8854 172.925 18.3534 168.733 18.3534V18.352Z" fill="#84AAB6"/>
<path d="M68.0114 232.12C66.1342 232.12 64.3041 232.02 62.532 231.815C53.4505 230.769 46.0178 227.111 40.4388 220.945C34.9954 214.928 31.5205 206.943 30.1136 197.214C28.9987 189.502 29.1702 180.665 30.6255 170.943C32.071 161.284 34.7146 151.244 38.4842 141.106C41.8637 132.014 46.2433 122.589 51.5 113.091C62.9733 92.3615 77.3171 73.665 94.1329 57.5209C101.613 50.3402 109.193 44.0509 116.666 38.8271C125.122 32.9165 133.736 28.1612 142.266 24.6952C151.143 21.0883 159.919 19.0637 167.645 18.8426C177.304 18.5648 185.534 21.0026 192.112 26.0841C195.062 28.374 197.638 31.1877 199.771 34.4463C204.302 41.3699 206.879 50.0017 207.431 60.101C207.866 68.0791 207.042 77.1599 204.981 87.0893C201.08 105.876 193.077 125.41 181.194 145.147C168.959 165.469 154.282 183.354 137.57 198.305C120.339 213.721 103.966 223.735 87.515 228.917C80.7907 231.036 74.1493 232.12 68.0114 232.12ZM169.139 18.9794C158.881 18.9794 148.949 22.1192 142.317 24.8154C126.29 31.3286 110.11 42.3636 94.2242 57.6149C77.4181 73.7506 63.0826 92.4361 51.6148 113.154C40.5108 133.215 33.4931 152.665 30.7541 170.963C27.423 193.217 30.714 210.005 40.5343 220.86C54.9749 236.822 78.172 231.728 87.4763 228.797C103.91 223.619 120.267 213.615 137.484 198.211C154.186 183.268 168.855 165.393 181.084 145.082C192.96 125.357 200.957 105.837 204.855 87.0644C209.521 64.591 207.774 46.9116 199.663 34.5168C197.538 31.2706 194.972 28.468 192.033 26.1863C185.111 20.8382 177.028 18.9794 169.139 18.9794Z" fill="#84AAB6"/>
<path d="M74.0802 236.919C70.265 236.919 66.6033 236.404 63.1104 235.371C54.412 232.801 47.5479 227.001 42.7076 218.133C37.729 209.012 36.0441 198.706 35.5074 191.668C34.8185 182.638 35.275 172.949 36.8644 162.872C38.2602 154.026 40.5759 144.592 43.7493 134.829C50.2689 114.769 59.7185 95.3828 71.8365 77.2087C83.5727 59.6066 96.6078 44.8915 110.581 33.471C119.304 26.3415 127.754 20.891 135.695 17.2689C145.926 12.6034 155.679 10.7848 164.682 11.8627C168.8 12.3561 172.679 13.5252 176.212 15.3356C184.318 19.4441 190.318 26.6911 194.046 36.8762C196.937 44.7755 198.445 54.5818 198.406 65.2326C198.373 74.301 197.31 83.8932 195.246 93.7397C193.4 102.552 190.697 111.827 187.213 121.307C179.916 141.164 169.847 160.151 157.286 177.738C145.428 194.341 132.375 208.062 118.488 218.524C109.456 225.327 100.696 230.319 92.4509 233.358C86.0157 235.729 79.8723 236.918 74.0789 236.918L74.0802 236.919ZM159.591 11.6913C144.879 11.6913 128.451 19.0323 110.663 33.5705C96.6991 44.9827 83.6723 59.6882 71.943 77.2805C59.8319 95.445 50.3879 114.82 43.871 134.87C37.0208 155.946 34.3274 174.522 35.6347 191.66C36.4674 202.568 40.8138 228.651 63.1464 235.25C78.8403 239.886 97.4337 234.226 118.411 218.424C132.287 207.971 145.332 194.258 157.181 177.666C169.735 160.088 179.799 141.112 187.093 121.266C194.452 101.24 198.215 82.3883 198.277 65.234C198.328 50.8561 195.523 25.2705 176.154 15.453C172.634 13.6482 168.769 12.4846 164.666 11.9926C163 11.7922 161.306 11.6927 159.591 11.6927V11.6913Z" fill="#84AAB6"/>
<path d="M73.5547 236.266C65.2381 236.266 58.0157 233.814 52.0342 228.949C44.9972 223.226 40.1624 214.763 37.6669 203.795C35.7427 195.338 35.2018 185.409 36.0581 174.28C37.3874 157.006 42.0686 138.502 49.9702 119.285C58.0531 99.628 68.6549 81.2161 81.484 64.558C87.5692 56.6559 93.8938 49.4891 100.281 43.2564C107.39 36.3204 114.813 30.3102 122.345 25.3932C131.483 19.4273 140.353 15.3961 148.706 13.4144C159.356 10.8882 168.807 11.8376 176.798 16.2391C180.221 18.1282 183.297 20.6545 185.942 23.7473C191.835 30.635 195.614 39.7863 197.175 50.947C198.38 59.5649 198.282 69.6132 196.883 80.8112C194.688 98.3911 189.286 116.86 180.828 135.703C171.867 155.668 160.602 173.897 147.344 189.885C140.828 197.744 134.154 204.722 127.509 210.626C119.928 217.361 112.083 222.969 104.194 227.295C97.9332 230.728 88.3024 235.032 77.9744 236.044C76.4694 236.192 74.9947 236.266 73.5547 236.266ZM159.933 12.201C145.48 12.201 131.107 19.8281 122.414 25.5024C108.145 34.8182 94.4084 47.9855 81.5849 64.6367C68.7642 81.2852 58.1679 99.6888 50.0892 119.335C42.1918 138.54 37.5147 157.03 36.1853 174.291C34.8103 192.153 36.4592 216.118 52.1144 228.85C69.9165 243.327 94.4223 232.508 104.132 227.184C119.082 218.988 133.183 206.76 147.245 189.805C160.496 173.827 171.755 155.607 180.71 135.652C189.163 116.82 194.56 98.3648 196.754 80.7974C199.953 55.1966 196.281 36.0315 185.843 23.833C183.206 20.7526 180.142 18.236 176.733 16.3538C171.351 13.3895 165.635 12.201 159.933 12.201Z" fill="#84AAB6"/>
<path d="M80.8116 239.666C78.5733 239.666 76.3821 239.464 74.2435 239.061C67.396 237.767 61.3384 234.315 56.238 228.797C51.8556 224.055 48.2272 217.761 45.7455 210.591C40.1665 194.476 39.194 175.155 42.7727 151.523C44.618 139.337 47.6171 126.982 51.6869 114.802C55.6225 103.025 60.5886 91.3153 66.4484 79.9998C78.0878 57.525 91.7911 39.2914 107.179 25.8063C114.046 19.7878 120.818 15.0961 127.305 11.8595C135.45 7.79658 143.38 5.90467 150.875 6.23634C154.297 6.38698 157.552 7.00748 160.547 8.07712C167.134 10.3795 172.778 14.8501 177.323 21.3647C181.118 26.8068 184.057 33.4996 186.053 41.2566C188.454 50.5862 189.548 60.9454 189.305 72.0453C189.093 81.6596 187.93 91.7451 185.747 102.875C183.33 115.197 179.811 127.546 175.288 139.579C170.831 151.435 165.369 163.06 159.057 174.131C153.28 184.263 147.093 193.441 140.666 201.409C133.371 210.454 125.528 218.243 117.352 224.56C110.465 229.883 103.675 233.859 97.1736 236.377C91.5158 238.569 86.0378 239.669 80.8102 239.669L80.8116 239.666ZM149.186 6.32617C136.188 6.32617 122.094 12.9043 107.265 25.9016C91.8893 39.3771 78.1943 57.5983 66.5632 80.0579C54.5227 103.308 46.5602 127.358 42.8986 151.543C39.324 175.152 40.2937 194.454 45.8658 210.549C49.0502 219.749 56.9754 235.671 74.2656 238.935C87.2095 241.378 101.679 236.508 117.273 224.456C132.623 212.593 146.643 195.639 158.945 174.064C171.799 151.52 180.773 127.561 185.62 102.849C190.32 78.8832 190.421 58.7453 185.927 41.287C183.371 31.3535 176.667 13.8454 160.503 8.19596C157.52 7.13047 154.278 6.51274 150.868 6.3621C150.309 6.33723 149.747 6.32479 149.184 6.32479L149.186 6.32617Z" fill="#84AAB6"/>
<path d="M80.5517 239.084C75.5385 239.084 70.3635 238.06 65.3683 235.403C51.1517 227.839 45.3805 210.989 43.044 198.185C41.2443 188.325 40.7352 177.559 41.5307 166.189C42.2209 156.316 43.9224 145.653 46.5867 134.496C49.5249 122.191 53.502 109.995 58.4046 98.2472C63.3237 86.4619 69.2029 75.0593 75.8816 64.3588C81.8949 54.7224 88.2154 46.1335 94.6659 38.8298C102.139 30.3709 110.086 23.2897 118.288 17.7826C129.056 10.5535 145.108 3.08958 160.432 8.59255C163.431 9.66357 166.277 11.2045 168.891 13.1724C179.356 21.0482 185.783 35.0253 187.992 54.7141C189.159 65.1133 189.058 76.2837 187.689 87.9157C186.478 98.214 184.238 109.174 181.032 120.495C177.593 132.636 173.2 144.53 167.98 155.85C162.65 167.406 156.415 178.447 149.449 188.662C135.832 208.631 121.782 222.586 106.496 231.324C100.577 234.709 90.9115 239.084 80.5517 239.086V239.084ZM149.265 6.81673C137.679 6.81673 126.506 12.4192 118.36 17.889C102.924 28.2523 89.0648 43.4746 75.9909 64.4279C62.5131 86.0265 52.6623 109.611 46.7126 134.528C40.9317 158.733 39.7738 179.548 43.1713 198.163C45.5036 210.939 51.2583 227.751 65.4291 235.291C70.4022 237.936 75.5593 238.957 80.5531 238.957C90.8866 238.957 100.526 234.59 106.433 231.212C121.702 222.484 135.737 208.543 149.342 188.589C163.264 168.172 173.884 145.249 180.907 120.459C187.72 96.412 190.061 74.2965 187.865 54.7279C185.66 35.0751 179.251 21.1283 168.814 13.2746C166.209 11.315 163.375 9.77965 160.388 8.71416C156.696 7.38886 152.958 6.81811 149.263 6.81811L149.265 6.81673Z" fill="#84AAB6"/>
<path d="M88.204 240.999C79.8722 240.999 72.3275 237.85 65.7594 231.623C58.4679 224.712 54.1795 215.696 51.8666 209.348C46.3028 194.087 44.1684 176.292 45.34 154.946C46.5588 132.76 51.2759 110.226 59.3629 87.968C67.1096 66.6458 77.1194 48.1938 89.1115 33.1263C95.1788 25.5034 101.057 19.4795 107.08 14.7117C114.547 8.80106 122.212 4.93434 129.862 3.22071C134.4 2.20358 138.882 2.04051 143.183 2.73287C151.49 4.17564 158.713 8.74855 164.65 16.3217C169.397 22.3774 173.336 30.4688 176.039 39.721C180.802 56.0199 182.127 74.5547 180.092 96.3828C177.986 118.961 172.435 141.471 163.593 163.286C155.267 183.828 144.932 201.236 132.875 215.028C118.332 231.663 103.762 240.391 89.5694 240.969C89.1115 240.987 88.655 240.997 88.2026 240.997L88.204 240.999ZM137.877 2.44404C135.251 2.44404 132.58 2.74669 129.887 3.34923C116.038 6.45173 102.732 16.2194 89.2097 33.2092C77.2259 48.2657 67.2244 66.7052 59.4819 88.015C51.399 110.26 46.6833 132.784 45.4659 154.956C44.2942 176.284 46.4273 194.061 51.9856 209.307C59.4238 229.71 73.4715 241.502 89.5638 240.845C103.719 240.268 118.258 231.555 132.776 214.947C144.824 201.166 155.152 183.77 163.473 163.242C172.311 141.439 177.858 118.942 179.962 96.3759C181.995 74.5644 180.672 56.0461 175.913 39.7625C172.326 27.4852 163.297 6.36605 143.158 2.86554C141.424 2.58639 139.66 2.44681 137.875 2.44681L137.877 2.44404Z" fill="#84AAB6"/>
<path d="M88.1446 240.486C83.8618 240.486 79.7492 239.646 75.8371 237.964C68.4418 234.785 62.232 228.871 57.3793 220.385C53.571 213.724 50.5982 205.499 48.5453 195.938C46.5713 186.746 45.5407 176.787 45.484 166.34C45.4328 157.031 46.1535 147.035 47.6268 136.629C50.8361 113.95 57.2396 91.9846 66.6587 71.3451C70.9678 61.9021 75.6766 53.2276 80.6525 45.5605C86.273 36.9011 92.4412 29.2077 98.983 22.6946C105.854 15.8552 112.809 10.6895 119.657 7.34237C128.281 3.12601 136.673 1.84769 144.604 3.54059C148.782 4.47618 152.706 6.24647 156.27 8.80448C162.619 13.3622 167.814 20.1158 171.708 28.8747C174.768 35.7582 177.097 44.0638 178.631 53.562C181.574 71.7776 181.098 92.1629 177.217 114.153C173.16 137.146 166.008 158.988 155.961 179.07C151.501 187.985 146.693 196.107 141.669 203.213C135.948 211.302 129.73 218.388 123.186 224.276C116.049 230.696 108.437 235.467 101.171 238.072C96.6853 239.68 92.3333 240.485 88.1446 240.485V240.486ZM137.725 2.94773C122.466 2.94773 108.553 13.3525 99.0743 22.7872C86.605 35.1985 76.0404 51.1007 66.7763 71.4004C57.3627 92.0275 50.9634 113.98 47.7554 136.648C44.5987 158.953 44.8988 178.338 48.674 195.914C51.9372 211.11 59.3076 230.721 75.8897 237.848C94.7445 245.952 113.562 232.765 123.101 224.183C135.521 213.011 146.232 198.237 155.848 179.015C165.889 158.943 173.037 137.114 177.092 114.132C180.969 92.1574 181.445 71.7859 178.505 53.5855C175.03 32.0739 167.524 17.0437 156.195 8.91227C152.645 6.36532 148.737 4.60056 144.576 3.6705C142.27 3.17852 139.982 2.9505 137.725 2.9505V2.94773Z" fill="#84AAB6"/>
<path d="M108.586 206.987C105.771 206.987 102.933 206.781 100.095 206.368C90.7633 205.008 81.5794 201.439 73.5367 196.046L73.2476 195.851L73.5879 195.929C92.7899 200.34 113.031 202.055 133.244 201.052C147.603 193.727 157.363 180.101 163.726 158.652C175.718 118.228 177.064 77.8016 167.513 44.8183C163.222 29.9968 152.893 5.05932 131.372 1.13594C130.181 0.971486 128.993 0.82638 127.797 0.697858L127.809 0.569336L129.354 0.704768C130.031 0.78354 130.702 0.883041 131.367 1.00327C142.698 2.55383 153.861 5.6743 164.604 10.297C176.115 15.2513 186.985 21.8584 196.915 29.9374C206.749 37.9375 215.475 47.2285 222.854 57.5531C230.326 68.0104 236.273 79.3341 240.531 91.2093C244.904 103.405 247.489 116.139 248.217 129.056C248.61 136.035 247.503 142.704 244.928 148.877C242.465 154.781 238.597 160.376 233.435 165.509C217.324 181.526 192.896 192.49 160.832 198.097C151.712 199.692 142.483 200.717 133.254 201.177C131.662 201.993 130.017 202.727 128.326 203.38C122.136 205.77 115.428 206.983 108.582 206.983L108.586 206.987ZM73.9005 196.133C90.69 207.268 110.993 209.935 128.283 203.263C129.895 202.641 131.453 201.953 132.962 201.195C112.951 202.164 92.9227 200.468 73.9005 196.133ZM133.311 1.42201C141.377 3.41065 148.516 8.55154 154.576 16.7479C161.293 25.8302 165.386 37.0089 167.638 44.7865C172.67 62.1688 174.723 81.3864 173.737 101.906C172.845 120.476 169.518 139.582 163.849 158.692C160.588 169.684 156.517 178.439 151.406 185.458C148.473 189.483 145.137 192.995 141.486 195.893C139.022 197.848 136.362 199.57 133.535 201.039C142.667 200.574 151.789 199.554 160.814 197.975C192.852 192.373 217.255 181.421 233.348 165.422C243.9 154.932 248.86 142.7 248.091 129.067C247.364 116.162 244.781 103.441 240.412 91.2563C223.563 44.2559 180.969 8.76851 133.311 1.42201Z" fill="#84AAB6"/>
<path d="M120.361 201.488C117.459 201.488 114.575 201.436 111.718 201.332C101.336 200.952 91.246 199.877 81.7259 198.136C60.3437 194.226 41.7849 187.004 26.5641 176.673C20.3156 172.431 11.6808 165.307 6.02577 155.455C0.676423 146.135 -0.77746 136.551 1.70424 126.969C3.93556 118.352 9.05251 110.258 16.9098 102.912C23.204 97.0261 31.2647 91.6019 40.8678 86.7885C57.6684 78.3682 76.7598 72.7492 97.6135 70.0847C116.871 67.6249 136.834 67.7561 156.947 70.4758C167.185 71.8606 193.402 76.3837 215.693 88.4593C226.037 94.0631 234.061 100.545 239.545 107.725C245.885 116.028 248.873 125.348 248.426 135.425C248.166 140.464 246.856 145.483 244.533 150.345C237.711 164.627 223.244 176.679 201.536 186.169C183.888 193.885 163.608 198.742 141.263 200.609C134.251 201.195 127.251 201.49 120.36 201.49L120.361 201.488ZM125.265 68.4471C94.3516 68.4471 65.1799 74.7475 40.9273 86.9032C25.8752 94.4473 6.87376 107.528 1.83012 127.001C-2.68508 144.429 6.58879 162.958 26.6374 176.568C64.8589 202.512 114.854 202.687 141.254 200.481C163.586 198.615 183.851 193.76 201.487 186.051C223.165 176.574 237.61 164.542 244.418 150.288C246.734 145.442 248.039 140.439 248.299 135.418C249.137 116.53 238.148 100.768 215.634 88.5712C193.362 76.5053 167.163 71.9863 156.932 70.603C146.261 69.1602 135.663 68.4471 125.265 68.4471Z" fill="#84AAB6"/>
<path d="M95.6576 240.319C90.0564 240.319 84.6241 238.74 79.4878 235.619C66.4305 227.683 57.3129 212.315 52.2707 189.807C30.9729 182.061 15.806 171.237 7.05644 157.502C1.26304 148.407 -0.55328 138.812 1.6559 128.98C3.23567 121.951 6.81574 115.034 12.2993 108.422C17.2281 102.478 23.6108 96.9569 30.7571 92.4572C42.7257 84.92 56.7098 79.1766 73.5104 74.8994L73.8631 74.8096L73.5616 75.0155C43.7756 95.3414 32.8141 137.62 49.125 169.264L49.1319 169.286C49.8983 176.642 50.9814 183.452 52.38 189.71C58.8803 192.07 65.9532 194.145 73.5879 195.929L73.6086 195.938C88.9553 206.259 107.511 209.198 124.518 204.002C140.532 199.11 152.883 187.699 159.296 171.876L159.942 170.209L160.063 170.255C154.492 185.706 147.968 198.693 140.118 209.958C135.632 216.397 126.247 228.229 113.804 235.149C108.149 238.293 102.53 240.02 97.1059 240.283C96.6217 240.306 96.1362 240.317 95.6548 240.317L95.6576 240.319ZM52.4146 189.859C57.4527 212.288 66.5439 227.602 79.5542 235.509C90.1242 241.933 101.627 241.774 113.745 235.037C126.166 228.131 135.535 216.314 140.016 209.885C147.232 199.53 153.327 187.716 158.591 173.87C155.351 181.129 150.822 187.405 145.108 192.551C139.201 197.87 132.288 201.763 124.56 204.125C116.379 206.625 107.482 207.257 98.8309 205.951C89.7991 204.588 81.2944 201.258 73.5505 196.052C65.9449 194.274 58.8955 192.208 52.4146 189.859ZM73.1908 75.115C56.5604 79.3797 42.7008 85.0886 30.8263 92.5664C15.3883 102.288 4.8016 115.57 1.78179 129.009C-0.419096 138.805 1.39169 148.369 7.16572 157.433C15.8904 171.129 31.0061 181.924 52.2375 189.657C50.8472 183.419 49.7682 176.637 49.0046 169.311C41.0007 153.776 39.165 135.426 43.8379 117.642C46.1024 109.023 49.7752 100.969 54.7524 93.7037C59.814 86.3172 66.0169 80.0638 73.1908 75.115Z" fill="#84AAB6"/>
<path d="M49.1649 169.625L49.01 169.324C41.0019 153.786 39.1648 135.434 43.8377 117.644C46.0801 109.109 49.7017 101.13 54.607 93.9198C55.5712 89.8652 56.6349 85.881 57.7942 81.9783C61.8722 68.2472 67.1829 55.3867 73.5794 43.7547C80.9816 30.2944 89.0796 19.8288 97.6522 12.6482C108.893 3.22872 121.013 -0.575816 133.671 1.33682C147.041 3.43463 160.079 7.67034 172.423 13.9237C194.75 25.2351 213.693 42.627 227.205 64.2174C239.662 84.1217 246.872 106.588 248.211 129.533C248.445 131.488 248.517 133.454 248.426 135.424L248.297 135.421C248.268 133.449 248.196 131.477 248.08 129.516C246.215 114.041 234.556 102.632 227.221 96.88C184.159 63.1104 117.531 64.0004 73.5503 75.0229C65.9918 80.1832 59.6465 86.7558 54.6512 94.21C52.5029 103.301 50.8512 112.759 49.7031 122.56C47.8162 138.658 47.6239 154.381 49.129 169.288L49.1649 169.625ZM54.4742 94.4781C40.0031 116.272 37.0276 145.499 48.9685 168.962C47.4994 154.146 47.7028 138.531 49.5758 122.544C50.7032 112.922 52.3438 103.527 54.4728 94.4781H54.4742ZM130.055 67.997C137.932 67.997 145.706 68.4047 153.254 69.2284C167.443 70.7775 180.753 73.7612 192.817 78.0964C205.873 82.7882 217.475 89.0747 227.301 96.7805C233.839 101.908 238.991 107.59 242.616 113.671C245.377 118.303 247.168 123.056 247.973 127.87C244.557 80.0021 215.497 35.8927 172.365 14.0398C160.034 7.79195 147.008 3.56177 133.652 1.46534C111.187 -1.93014 91.0108 12.3193 73.6901 43.8183C65.4454 58.8111 59.1222 75.4956 54.7827 93.6614C59.9093 86.1919 66.2021 79.8833 73.4881 74.9124L73.5088 74.9027C91.6955 70.3436 111.158 67.997 130.055 67.997Z" fill="#84AAB6"/>
<path d="M95.9633 240.279C88.8433 240.279 82.1037 237.785 75.8621 232.826C67.6063 226.267 62.3123 217.062 59.3243 210.496C52.1213 194.665 48.2037 176.079 47.6808 155.254C47.2367 137.587 49.2121 118.57 53.553 98.7304C58.1858 77.556 65.2298 58.514 74.4884 42.1336C86.1596 21.4857 98.712 8.72886 112.862 3.1333C117.339 1.36301 121.841 0.482704 126.242 0.518635C135.291 0.652685 143.497 4.58574 150.63 12.21C157.711 19.779 162.246 29.4472 164.803 36.2243C168.065 44.8685 170.456 54.4565 171.91 64.7204C173.191 73.7722 173.783 83.6477 173.669 94.0732C173.214 135.652 162.413 175.139 143.255 205.259C137.649 214.074 131.797 221.312 125.863 226.772C118.195 233.828 110.126 238.185 101.881 239.722C99.8823 240.095 97.9096 240.28 95.9647 240.28L95.9633 240.279ZM125.989 0.643012C121.684 0.643012 117.285 1.51917 112.908 3.24939C98.7867 8.83389 86.255 21.5714 74.5991 42.193C65.346 58.5623 58.3076 77.5919 53.6775 98.7553C47.0043 129.259 42.5874 173.398 59.4405 210.441C63.087 218.455 76.9217 244.242 101.855 239.594C116.463 236.87 130.354 225.293 143.143 205.187C162.289 175.088 173.083 135.626 173.538 94.069C173.783 71.6163 170.886 52.7084 164.682 36.2672C159.714 23.1026 148.114 0.967772 126.239 0.644393C126.156 0.644393 126.072 0.643012 125.989 0.643012Z" fill="#84AAB6"/>
<path d="M248.299 135.423L248.232 132.243L248.091 129.066L247.874 125.893L247.582 122.725L247.215 119.563L246.773 116.411L246.255 113.27L245.665 110.141L244.999 107.026L244.261 103.928L243.449 100.846L242.565 97.7835L241.61 94.7418L240.584 91.7236L239.487 88.7289L238.321 85.7618L237.085 82.821L235.782 79.9092L234.413 77.0292L232.977 74.1824L231.476 71.3687L229.911 68.591L228.283 65.8491L226.594 63.1474L224.843 60.4858L223.033 57.8656L221.166 55.2882L219.24 52.7551L217.259 50.2689L215.224 47.8284L213.136 45.4376L210.996 43.0966L208.806 40.8067L206.568 38.5679L204.281 36.3844L201.95 34.2548L199.573 32.1805L197.155 30.1628L194.696 28.2046L192.196 26.3044L189.66 24.4636L187.087 22.685L184.48 20.9686L181.84 19.313L179.169 17.7224L176.469 16.1967L173.741 14.736L170.988 13.3402L168.21 12.0121L165.411 10.7504L162.59 9.55777L159.75 8.43285L156.895 7.37565L154.023 6.39032L151.139 5.47408L148.243 4.62694L145.337 3.85166L142.424 3.14824L139.504 2.5153L136.579 1.95284L133.652 1.46363L130.724 1.04628L127.796 0.700788L127.812 0.572266L130.74 0.917756L133.671 1.33649L136.601 1.82709L139.528 2.38816L142.451 3.02248L145.369 3.72728L148.278 4.50394L151.176 5.35108L154.065 6.26732L156.938 7.25542L159.797 8.31262L162.638 9.43754L165.462 10.6329L168.264 11.8947L171.045 13.2241L173.801 14.6213L176.531 16.0834L179.234 17.6118L181.907 19.2039L184.55 20.8594L187.159 22.5786L189.735 24.3586L192.274 26.2007L194.775 28.1023L197.237 30.0633L199.658 32.0823L202.036 34.158L204.369 36.2904L206.657 38.4767L208.898 40.7168L211.09 43.0081L213.232 45.3519L215.323 47.7455L217.359 50.1874L219.343 52.6763L221.27 55.2122L223.138 57.7909L224.951 60.4139L226.702 63.0783L228.394 65.7828L230.023 68.526L231.589 71.3065L233.092 74.1229L234.529 76.9725L235.9 79.8553L237.204 82.7699L238.44 85.7121L239.607 88.6833L240.705 91.6807L241.732 94.7017L242.689 97.7462L243.573 100.811L244.385 103.896L245.125 106.998L245.791 110.116L246.383 113.248L246.9 116.392L247.343 119.548L247.711 122.711L248.003 125.881L248.22 129.059L248.361 132.239L248.427 135.42L248.299 135.423Z" fill="#84AAB6"/>
<path d="M206.171 184.032L206.056 183.974C211.292 173.695 214.735 162.715 216.288 151.337C219.069 130.984 215.806 109.925 206.853 90.4426C198.028 71.2403 184.14 54.5075 166.688 42.0533L166.762 41.9482C184.232 54.4149 198.136 71.1656 206.97 90.3887C211.355 99.9311 214.4 109.964 216.021 120.211C217.677 130.678 217.81 141.156 216.417 151.354C214.861 162.745 211.412 173.739 206.171 184.032Z" fill="#84AAB6"/>
<path d="M139.902 200.718L139.854 200.599C146.971 197.678 153.413 193.532 159.002 188.276C179.53 168.973 185.054 136.772 173.074 106.24L173.195 106.193C175.92 113.139 177.778 120.369 178.716 127.684C179.677 135.173 179.649 142.575 178.634 149.681C176.441 165.032 169.682 178.41 159.09 188.37C153.489 193.637 147.034 197.791 139.903 200.719L139.902 200.718Z" fill="#84AAB6"/>
<path d="M108.127 207.592C103.068 207.592 97.9412 206.93 92.881 205.594C85.4262 203.625 78.3006 200.264 71.7021 195.605L71.7768 195.5C78.3629 200.151 85.4746 203.505 92.9142 205.47C106.381 209.027 120.328 207.797 132.187 202.008C144.222 196.133 153.849 185.467 159.296 171.977L159.415 172.025C153.955 185.545 144.306 196.234 132.242 202.123C124.812 205.75 116.564 207.592 108.127 207.592Z" fill="#84AAB6"/>
<path d="M96.0255 234.701C87.5332 234.701 79.0271 233.178 70.7271 230.17C53.5669 223.951 37.9781 211.596 26.8326 195.384C20.4402 186.088 15.6096 175.719 12.4722 164.567L12.5967 164.532C15.7299 175.671 20.555 186.027 26.9391 195.313C38.0708 211.504 53.6374 223.839 70.7714 230.05C88.5749 236.502 107.141 236.074 123.048 228.842L123.101 228.959C115.027 232.63 106.268 234.56 97.0658 234.694C96.7199 234.7 96.3713 234.701 96.0255 234.701Z" fill="#84AAB6"/>
<path d="M68.9478 226.258C60.8415 223.632 53.1142 219.441 45.9845 213.801C39.2684 208.49 33.262 202.047 28.1312 194.654C22.537 186.591 18.1449 177.642 15.0809 168.052C12.0597 158.601 10.401 148.769 10.1507 138.827C9.86568 127.518 11.4289 116.183 14.7959 105.139L14.919 105.176C11.5561 116.208 9.99433 127.529 10.2793 138.824C10.7828 158.818 17.16 178.62 28.2377 194.582C38.8341 209.851 53.3051 221.057 68.988 226.136L68.9478 226.259V226.258Z" fill="#84AAB6"/>
<path d="M48.8591 167.751C43.2677 156.212 40.9617 143.069 42.1929 129.746C42.8444 122.699 44.485 115.774 47.0691 109.167C49.6725 102.51 53.1793 96.3191 57.4911 90.7622C62.4158 84.4162 68.3448 78.9478 75.112 74.5117L75.1826 74.6195C68.4264 79.0487 62.5085 84.5061 57.5921 90.841C48.9214 102.015 43.6398 115.472 42.3201 129.757C41.0917 143.057 43.3922 156.176 48.974 167.695L48.8591 167.751Z" fill="#84AAB6"/>
<path d="M53.0631 101.638L52.9497 101.577C59.4417 89.6093 69.1817 79.7048 81.1158 72.9345C93.148 66.109 106.659 62.9098 120.189 63.6837C128.263 64.1453 136.103 65.9625 143.493 69.083L143.443 69.2019C136.067 66.0869 128.242 64.2738 120.182 63.8122C92.7261 62.2395 66.3791 77.0887 53.0631 101.638Z" fill="#84AAB6"/>
<path d="M209.327 85.7865C203.714 75.379 196.537 66.0742 187.998 58.1321C173.106 44.2835 154.002 34.7341 134.206 31.2461C114.561 27.7843 94.7958 30.1184 77.0462 37.9969L76.9937 37.8795C85.8415 33.9519 95.2979 31.3843 105.102 30.2469C114.777 29.1248 124.576 29.4177 134.228 31.1189C144.19 32.874 153.903 36.0995 163.094 40.7042C172.231 45.2813 180.64 51.1131 188.085 58.0381C196.635 65.9899 203.82 75.3043 209.441 85.7257L209.327 85.7865Z" fill="#84AAB6"/>
<path d="M100.258 201.696C77.194 201.696 56.7691 198.134 39.5341 191.103C26.1116 185.628 8.89882 175.491 3.12202 158.286C0.42314 150.247 0.673524 141.756 3.86626 133.05C6.55822 125.709 11.3888 118.269 17.8352 111.532C24.2552 104.822 32.0946 98.649 41.1374 93.1806C48.9947 88.4294 57.9975 84.0707 67.8952 80.2261C78.9467 75.9323 90.6455 72.5161 102.664 70.0701C114.356 67.6903 126.456 66.2089 138.626 65.6644C162.416 64.6003 183.957 67.3158 202.648 73.7322C221.938 80.3546 235.251 89.9081 242.216 102.127C244.731 106.54 246.302 111.226 246.883 116.053C247.89 124.044 246.174 132.257 241.78 140.464C238.146 147.253 232.794 153.88 225.873 160.166C218.709 166.672 210.218 172.587 200.637 177.75C192.184 182.305 182.657 186.392 172.32 189.9C161.002 193.74 149.185 196.691 137.199 198.668C125.306 200.631 113.169 201.649 101.123 201.696C100.834 201.696 100.543 201.698 100.256 201.698L100.258 201.696ZM148.553 65.5676C145.293 65.5676 141.987 65.6423 138.635 65.7929C113.718 66.9067 89.9345 71.803 67.9436 80.3463C46.7275 88.5883 29.9006 99.1106 17.9306 111.62C3.65737 126.537 -1.69613 143.531 3.24514 158.246C9.00672 175.404 26.1863 185.52 39.5839 190.985C57.0195 198.096 77.7307 201.659 101.127 201.566C125.564 201.472 149.505 197.505 172.283 189.777C194.313 182.302 212.315 172.307 225.792 160.07C234.677 152.002 249.217 135.556 246.76 116.07C246.181 111.259 244.615 106.59 242.108 102.192C235.158 90.0007 221.87 80.4665 202.611 73.8552C186.569 68.3481 168.422 65.5704 148.555 65.5704L148.553 65.5676Z" fill="#84AAB6"/>
<path d="M82.3288 204.616C68.039 204.616 54.9416 202.829 43.1902 199.262C30.2519 195.336 13.3641 187.333 6.3935 171.504C3.43178 164.781 2.67787 157.362 4.1525 149.453C5.42102 142.649 8.39657 135.482 12.7582 128.731C17.9485 120.695 24.8541 113.003 33.2786 105.868C40.4775 99.772 49.0168 93.8918 58.66 88.393C69.4611 82.2336 81.106 76.9351 93.271 72.6441C105.1 68.472 117.481 65.2313 130.069 63.0119C154.944 58.6255 177.616 58.7444 197.454 63.3657C206.305 65.4276 214.087 68.3048 220.586 71.9172C228.508 76.3202 234.574 81.8535 238.615 88.3626C240.405 91.2453 241.802 94.4238 242.768 97.8083C244.696 104.988 244.4 112.663 241.889 120.622C239.751 127.4 236.068 134.251 230.944 140.983C224.913 148.909 217.279 156.414 208.254 163.292C200.416 169.265 191.304 174.935 181.171 180.143C169.926 185.922 157.978 190.788 145.659 194.608C133.454 198.391 120.851 201.158 108.2 202.83C99.2013 204.02 90.5666 204.616 82.3288 204.616ZM164.762 59.9384C153.775 59.9384 142.195 61.0053 130.091 63.139C104.264 67.6926 80.2524 76.2276 58.7236 88.5049C37.6001 100.551 22.5993 113.731 12.8647 128.8C7.2816 137.443 -0.967218 154.476 6.5097 171.452C13.4623 187.236 30.3141 195.22 43.2261 199.139C61.7365 204.757 83.5904 205.956 108.182 202.705C133.556 199.351 158.775 191.509 181.111 180.031C202.859 168.855 219.59 155.692 230.842 140.907C238.722 130.554 247.164 114.678 242.645 97.8456C241.683 94.4722 240.29 91.3048 238.506 88.4317C231.104 76.5095 217.281 68.1182 197.424 63.4928C187.253 61.1241 176.336 59.9384 164.76 59.9384H164.762Z" fill="#84AAB6"/>
<path d="M71.2044 209.303C67.2079 209.303 63.2875 209.131 59.4363 208.787C43.5944 207.371 22.5456 202.234 12.2384 185.802C7.81449 178.75 6.10469 170.507 7.15879 161.303C8.03997 153.603 10.9076 145.275 15.4491 137.221C25.6028 119.216 42.4117 102.534 65.4082 87.6405C79.7243 78.3689 95.3394 70.6217 111.818 64.6143C133.986 56.534 155.311 52.4434 175.248 52.4434C176.086 52.4434 176.919 52.4503 177.751 52.4655C188.359 52.6493 197.857 53.9884 205.978 56.4469C216.168 59.53 224.281 64.407 230.095 70.9423C232.707 73.8776 234.815 77.1694 236.361 80.7266C239.632 88.4793 240.144 97.1788 237.879 106.583C236.009 114.351 232.321 122.412 226.918 130.542C215.186 148.192 197.348 164.259 173.899 178.297C159.786 186.745 144.551 193.735 128.617 199.072C108.303 205.875 89.0452 209.304 71.203 209.304L71.2044 209.303ZM175.248 52.5719C155.326 52.5719 134.016 56.6597 111.862 64.7359C95.392 70.7391 79.7866 78.4822 65.4774 87.7483C42.4988 102.631 25.7038 119.297 15.5598 137.283C5.44899 155.213 4.27731 172.871 12.3463 185.733C22.6258 202.119 43.6331 207.245 59.4474 208.659C80.4713 210.538 103.729 207.271 128.575 198.949C144.502 193.615 159.728 186.629 173.832 178.185C197.265 164.157 215.09 148.103 226.81 130.469C233.754 120.02 244.214 99.6691 236.242 80.7749C234.702 77.2302 232.601 73.9508 229.999 71.0252C219.491 59.2136 201.911 53.0113 177.749 52.5926C176.917 52.5788 176.083 52.5705 175.246 52.5705L175.248 52.5719Z" fill="#84AAB6"/>
<path d="M63.9334 215.064C48.9201 215.064 30.5978 211.894 19.6155 198.642C14.4253 192.381 11.6821 184.629 11.4622 175.602C11.2782 168.047 12.9188 159.608 16.207 151.197C19.7207 142.211 24.8335 133.182 31.4057 124.358C37.1078 116.702 44.077 108.977 52.1211 101.397C68.3518 86.1025 87.0918 73.1991 107.82 63.0431C128.738 52.7945 149.053 46.5909 168.199 44.605C178.443 43.5423 187.75 43.7274 195.859 45.155C206.016 46.9433 214.399 50.7036 220.776 56.3309C223.599 58.8226 225.977 61.6736 227.84 64.8023C232.086 71.9042 233.717 80.3604 232.69 89.9374C231.849 97.7842 229.278 106.163 225.049 114.842C220.761 123.642 215.035 132.404 208.031 140.879C201.852 148.358 194.498 155.832 186.174 163.093C177.693 170.49 168.505 177.346 158.865 183.473C149.286 189.559 139.18 194.977 128.827 199.574C107.72 208.946 87.5469 214.119 68.8677 214.948C67.2755 215.019 65.6238 215.059 63.932 215.059L63.9334 215.064ZM180.908 44.0453C176.883 44.0453 172.651 44.2747 168.213 44.7349C149.082 46.7194 128.781 52.9188 107.876 63.1606C87.1596 73.311 68.4306 86.2075 52.2096 101.492C34.9498 117.756 22.8761 134.495 16.3274 151.244C12.0376 162.214 6.77544 182.946 19.7151 198.559C30.6656 211.772 48.9505 214.934 63.9334 214.934C65.6252 214.934 67.2714 214.894 68.8636 214.824C87.5275 213.996 107.685 208.826 128.777 199.46C149.746 190.149 169.029 177.881 186.091 162.999C203.806 147.547 216.875 131.327 224.934 114.788C230.408 103.555 238.049 82.1321 227.731 64.87C225.873 61.7523 223.505 58.9124 220.691 56.429C211.358 48.1925 198.009 44.0453 180.908 44.0453Z" fill="#84AAB6"/>
<path d="M61.9099 221.201C50.1654 221.201 37.7652 218.627 28.5951 210.21C22.5859 204.696 18.8536 197.35 17.5035 188.374C16.3761 180.885 16.9668 172.284 19.2092 163.496C21.5096 154.48 25.2806 145.22 30.4155 135.972C34.8713 127.948 40.507 119.664 47.1691 111.348C61.6263 93.2994 79.2583 77.3392 99.5753 63.9093C119.091 51.0087 138.555 42.2692 157.425 37.9326C179.432 32.876 196.879 34.4929 209.283 42.7404C212.506 44.8838 215.276 47.446 217.516 50.355C222.584 56.8032 225.223 64.9499 225.359 74.5683C225.468 82.3819 223.954 90.968 220.855 100.086C217.799 109.079 213.39 118.222 207.752 127.26C202.772 135.242 196.683 143.383 189.651 151.455C181.938 160.311 173.394 168.685 164.259 176.346C155.194 183.946 145.466 190.913 135.343 197.051C115.744 208.936 96.5984 216.555 78.4366 219.696C73.4082 220.565 67.7407 221.2 61.9113 221.2L61.9099 221.201ZM180.47 35.1866C173.47 35.1866 165.789 36.1429 157.451 38.0597C138.596 42.3921 119.148 51.1261 99.6445 64.0184C79.3399 77.44 61.7176 93.392 47.2687 111.429C32.8129 129.476 23.6746 146.517 19.3337 163.529C14.3384 183.101 17.747 200.081 28.6822 210.117C42.3648 222.673 63.278 222.188 78.4131 219.57C96.5596 216.432 115.69 208.819 135.275 196.942C155.786 184.505 174.047 169.172 189.551 151.372C204.498 134.212 214.988 116.943 220.73 100.046C224.752 88.2096 229.669 66.0264 217.412 50.4338C215.18 47.5358 212.421 44.9833 209.21 42.8482C201.532 37.7432 191.914 35.1852 180.471 35.1852L180.47 35.1866Z" fill="#84AAB6"/>
<path d="M63.5671 227.091C62.7219 227.091 61.8864 227.073 61.0619 227.038C52.441 226.673 45.0055 224.39 38.9604 220.249C33.0632 216.209 28.714 210.438 26.0359 203.097C23.7423 196.811 22.7242 189.355 23.0935 181.537C23.9208 164.018 30.2053 145.302 42.3025 124.32C48.5151 113.545 55.8965 103.053 64.2436 93.1333C72.3208 83.5328 81.3485 74.4105 91.0775 66.0179C110.161 49.5573 129.578 37.9585 148.791 31.5435C168.162 25.0759 184.209 24.8714 196.49 30.9354C199.47 32.4072 202.237 34.3102 204.713 36.5904C209.961 41.5613 213.537 48.1077 215.344 56.0456C216.871 62.7578 217.118 70.313 216.081 78.5011C214.844 88.2577 212.026 98.4718 207.709 108.857C203.988 117.81 199.019 127.196 192.942 136.755C186.183 147.386 178.362 157.625 169.695 167.188C161.152 176.615 151.748 185.429 141.745 193.385C132.652 200.615 123.512 206.784 114.576 211.721C104.417 217.331 94.2301 221.512 84.2991 224.143C76.9038 226.103 69.9429 227.092 63.5671 227.092V227.091ZM176.071 26.6624C167.917 26.6624 158.819 28.329 148.832 31.6637C129.635 38.0732 110.231 49.6637 91.1618 66.1146C71.1616 83.3656 54.7608 102.97 42.4146 124.384C30.327 145.348 24.048 164.044 23.2222 181.543C22.7477 191.588 24.1712 209.961 39.0337 220.144C52.8311 229.596 71.2474 227.468 84.2659 224.017C102.928 219.071 122.24 208.731 141.663 193.283C161.76 177.299 179.454 157.727 192.831 136.684C206.063 115.872 213.626 96.8342 215.952 78.4831C217.557 65.8299 216.892 48.3053 204.624 36.683C202.158 34.411 199.401 32.5164 196.432 31.0501C190.51 28.1259 183.704 26.6638 176.071 26.6638V26.6624Z" fill="#84AAB6"/>
<path d="M67.988 232.319C61.8169 232.319 56.1688 231.146 51.1155 228.807C43.6455 225.35 37.971 219.404 34.2499 211.135C31.1498 204.247 29.4829 195.79 29.4303 186.678C29.3307 169.347 33.8542 150.669 43.2623 129.573C52.4047 109.073 64.9156 89.6619 80.4504 71.8816C95.6823 54.4454 111.894 40.8041 128.635 31.3349C137.485 26.3295 145.901 22.7695 153.652 20.756C163.47 18.2049 172.497 18.0501 180.483 20.2958C184.242 21.353 187.711 22.9754 190.796 25.1175C197.53 29.83 202.294 36.8641 204.956 46.0279C207.115 53.4656 207.862 62.0987 207.175 71.6854C206.508 80.9832 204.6 90.7716 201.506 100.778C198.775 109.605 195.037 118.867 190.395 128.306C180.16 149.118 166.777 168.38 150.62 185.555C135.005 202.153 118.689 214.733 102.124 222.946C93.2366 227.353 84.8024 230.242 77.0571 231.534C73.9239 232.056 70.8971 232.317 67.9866 232.317L67.988 232.319ZM168.655 18.8503C156.906 18.8503 143.524 23.0625 128.7 31.4482C111.972 40.9105 95.7722 54.5422 80.5486 71.9673C65.0235 89.7379 52.5182 109.136 43.3812 129.625C33.9815 150.704 29.4608 169.366 29.5604 186.678C29.6157 196.328 31.8332 219.739 51.1694 228.69C64.5808 234.899 81.7051 232.927 102.068 222.832C118.619 214.626 134.923 202.055 150.527 185.468C166.676 168.301 180.052 149.05 190.28 128.25C200.154 108.172 205.796 89.1381 207.048 71.6771C207.941 59.2201 207.005 36.6181 190.724 25.2239C187.652 23.0888 184.195 21.4732 180.45 20.4202C176.728 19.3727 172.792 18.8503 168.655 18.8503Z" fill="#84AAB6"/>
<path d="M74.1658 236.418C70.3948 236.418 66.7746 235.909 63.3218 234.891C54.6802 232.342 47.8672 226.576 43.074 217.748C38.1507 208.683 36.4935 198.437 35.9706 191.439C35.2983 182.452 35.7658 172.809 37.3608 162.779C38.7594 153.98 41.0723 144.589 44.2374 134.871C50.7404 114.902 60.1526 95.6003 72.2125 77.5008C83.892 59.9706 96.8594 45.3108 110.752 33.929C119.546 26.7248 127.706 21.4416 135.699 17.7794C145.869 13.1194 155.564 11.2952 164.511 12.3566C168.6 12.8416 172.452 13.9997 175.957 15.7977C184.009 19.8786 189.96 27.0883 193.647 37.2263C196.501 45.0759 197.981 54.8242 197.928 65.4169C197.883 74.4425 196.814 83.9891 194.75 93.7913C192.904 102.56 190.207 111.79 186.733 121.229C179.458 140.996 169.432 159.902 156.932 177.419C145.134 193.954 132.15 207.626 118.343 218.053C109.366 224.833 100.666 229.808 92.4839 232.843C86.0652 235.222 79.9384 236.415 74.1658 236.415V236.418ZM159.515 12.1949C144.89 12.1949 128.545 19.5207 110.834 34.0299C96.9507 45.4034 83.993 60.0535 72.319 77.5726C60.266 95.6625 50.8594 114.955 44.3591 134.913C37.5268 155.894 34.8238 174.382 36.0978 191.431C36.9085 202.283 41.1885 228.231 63.3578 234.768C66.8535 235.799 70.4972 236.313 74.2792 236.313C87.3489 236.313 102.09 230.169 118.264 217.952C132.06 207.532 145.034 193.87 156.825 177.346C169.318 159.837 179.341 140.942 186.611 121.186C193.949 101.248 197.713 82.4855 197.798 65.4183C197.87 51.1123 195.12 25.6579 175.898 15.9151C172.406 14.1241 168.569 12.9715 164.495 12.4879C162.858 12.293 161.197 12.1963 159.513 12.1963L159.515 12.1949Z" fill="#84AAB6"/>
<path d="M80.8932 239.161C78.6826 239.161 76.5177 238.962 74.4039 238.564C67.6035 237.283 61.5901 233.849 56.5313 228.355C52.1904 223.641 48.5979 217.381 46.1438 210.252C40.6243 194.217 39.6809 174.985 43.261 151.46C45.1063 139.328 48.0985 127.027 52.1544 114.899C56.0748 103.173 61.0188 91.515 66.8496 80.2451C78.4295 57.8643 92.0553 39.7012 107.348 26.263C114.171 20.2667 120.894 15.5915 127.33 12.366C135.423 8.31137 143.304 6.41808 150.749 6.74146C154.146 6.88933 157.376 7.50154 160.349 8.56426C166.892 10.8514 172.493 15.2999 176.997 21.7841C180.756 27.1945 183.661 33.85 185.634 41.5655C188.009 50.855 189.082 61.1658 188.828 72.2146C188.606 81.7805 187.439 91.8163 185.259 102.898C182.845 115.166 179.337 127.461 174.833 139.441C170.393 151.246 164.96 162.823 158.679 173.849C152.933 183.941 146.78 193.081 140.394 201.015C133.143 210.025 125.345 217.787 117.218 224.086C110.376 229.389 103.637 233.352 97.1847 235.865C91.5504 238.059 86.0945 239.161 80.8904 239.161H80.8932ZM149.111 6.83543C136.197 6.83543 122.186 13.397 107.434 26.3598C92.1535 39.7883 78.5373 57.9375 66.9644 80.3046C54.9833 103.461 47.0513 127.407 43.3896 151.48C39.8137 174.984 40.7544 194.195 46.2669 210.21C49.4182 219.364 57.2672 235.204 74.4289 238.437C76.5661 238.839 78.7476 239.041 80.9679 239.041C92.0912 239.041 104.224 233.996 117.142 223.984C132.395 212.163 146.333 195.273 158.57 173.786C171.356 151.333 180.294 127.475 185.134 102.875C189.829 79.0152 189.951 58.9713 185.511 41.5986C182.983 31.7135 176.35 14.2939 160.309 8.68726C157.349 7.62868 154.131 7.01923 150.746 6.87136C150.204 6.84787 149.657 6.83543 149.111 6.83543Z" fill="#84AAB6"/>
<path d="M88.276 240.491C80.0064 240.491 72.5212 237.355 66.0099 231.155C58.7847 224.279 54.5407 215.31 52.2526 208.998C46.7428 193.801 44.6388 176.086 45.8187 154.839C47.0458 132.752 51.7463 110.313 59.7918 88.1489C67.4983 66.9164 77.4473 48.5405 89.3619 33.5324C102.816 16.5855 116.053 6.83988 129.831 3.73738C134.337 2.72302 138.786 2.55718 143.055 3.2454C163.101 6.69339 172.073 27.7862 175.636 40.0525C180.351 56.2767 181.651 74.73 179.613 96.4627C177.505 118.943 171.977 141.357 163.184 163.082C154.903 183.537 144.63 200.875 132.652 214.612C118.204 231.182 103.736 239.878 89.6497 240.462C89.189 240.481 88.7311 240.491 88.276 240.491ZM137.808 2.95657C135.196 2.95657 132.537 3.25922 129.859 3.86175C116.111 6.95734 102.896 16.6891 89.4615 33.6112C77.5552 48.6082 67.6132 66.9717 59.9121 88.1917C51.8722 110.345 47.173 132.77 45.9474 154.846C44.7688 176.076 46.8701 193.775 52.373 208.954C59.7365 229.264 73.6652 240.989 89.6441 240.334C103.695 239.753 118.131 231.071 132.555 214.529C144.524 200.802 154.788 183.478 163.063 163.035C171.853 141.321 177.378 118.92 179.485 96.4517C181.521 74.7342 180.222 56.2975 175.512 40.0885C171.957 27.8512 163.006 6.81086 143.033 3.37254C141.317 3.09615 139.573 2.95795 137.808 2.95795V2.95657Z" fill="#84AAB6"/>
</g>
<defs>
<clipPath id="clip0_301_5141">
<rect width="249" height="241" fill="white"/>
</clipPath>
</defs>
</svg>
