<svg width="46" height="45" viewBox="0 0 46 45" fill="none" xmlns="http://www.w3.org/2000/svg">
<path d="M43.2715 7.42246C41.4643 6.3193 39.0453 6.83532 37.8928 8.72342L36.3636 11.2283L36.3635 11.2285L33.2601 16.3122V7.82706C33.2601 7.57135 33.1584 7.32865 32.9874 7.15051C32.9493 7.11021 26.1439 0.305016 26.1114 0.274495C26.0558 0.220692 26.0458 0.216975 26.0327 0.206703C25.9071 0.108548 25.7591 0.0431934 25.602 0.0165342C25.4267 -0.0137911 26.9606 0.00831685 0.978235 0.00117574C0.437956 0.00117574 0 0.439132 0 0.979411V44.0218C0 44.5619 0.437956 45 0.978235 45H32.2819C32.822 45 33.2601 44.5619 33.2601 44.0218V31.3319L41.5142 17.8108L44.5724 12.8011C45.6966 10.9595 45.113 8.54665 43.2715 7.42246ZM40.3539 15.9565L37.014 13.9176L37.5237 13.0827L40.8636 15.1216L40.3539 15.9565ZM29.65 33.4906L26.3102 31.4517L35.9947 15.5875L39.3345 17.6263L29.65 33.4906ZM25.7715 36.0893L25.4998 33.249L28.4219 35.0331L25.7715 36.0893ZM26.4125 3.34116L29.9201 6.84882H26.4125V3.34116ZM31.3036 43.0436H1.95647V1.95774H24.456V7.82716C24.456 8.36744 24.894 8.80539 25.4342 8.80539H31.3036V19.5173L23.6211 32.1022C23.5107 32.2828 23.462 32.4944 23.4822 32.7051L23.9027 37.0982C23.4512 37.3728 22.3826 37.7756 20.9524 37.8092C19.4535 37.8465 17.2722 37.475 15.3766 35.5157C14.3133 34.4168 13.0112 33.8313 11.4882 33.8313C7.83146 33.8313 4.34278 37.3157 4.19565 37.4645C3.8161 37.8483 3.81942 38.4667 4.20289 38.8467C4.58626 39.2269 5.20539 39.224 5.58592 38.841C5.61634 38.8103 8.652 35.7878 11.4871 35.7878C12.4344 35.7878 13.2502 36.1315 13.9705 36.876C16.2739 39.257 18.9184 39.7677 20.7628 39.7677C21.1851 39.7677 21.5655 39.741 21.8903 39.7036C23.2334 39.5496 24.7856 39.0622 25.5184 38.2962L29.8279 36.5788C30.0245 36.5004 30.1904 36.3603 30.3006 36.1796L31.3036 34.5366V43.0436ZM42.9025 11.7817L41.8829 13.4517L38.5432 11.4129L39.5626 9.74293C40.1355 8.80412 41.3426 8.53745 42.2519 9.09241C43.1728 9.6545 43.4646 10.861 42.9025 11.7817Z" fill="#3ACCE1"/>
<path d="M4.89108 6.84905H21.5211C22.0614 6.84905 22.4993 6.41109 22.4993 5.87081C22.4993 5.33053 22.0614 4.89258 21.5211 4.89258H4.89108C4.3508 4.89258 3.91284 5.33053 3.91284 5.87081C3.91284 6.41109 4.3508 6.84905 4.89108 6.84905ZM4.89108 12.7185H21.5211C22.0614 12.7185 22.4993 12.2805 22.4993 11.7402C22.4993 11.1999 22.0614 10.762 21.5211 10.762H4.89108C4.3508 10.762 3.91284 11.1999 3.91284 11.7402C3.91284 12.2805 4.3508 12.7185 4.89108 12.7185ZM4.89108 30.3267H21.5211C22.0614 30.3267 22.4993 29.8886 22.4993 29.3485C22.4993 28.8083 22.0614 28.3702 21.5211 28.3702H4.89108C4.3508 28.3702 3.91284 28.8083 3.91284 29.3485C3.91284 29.8886 4.3508 30.3267 4.89108 30.3267ZM4.89108 18.5879H25.4341C25.9743 18.5879 26.4124 18.1499 26.4124 17.6096C26.4124 17.0694 25.9743 16.6314 25.4341 16.6314H4.89108C4.3508 16.6314 3.91284 17.0694 3.91284 17.6096C3.91284 18.1499 4.3508 18.5879 4.89108 18.5879ZM4.89108 24.4573H25.4341C25.9743 24.4573 26.4124 24.0192 26.4124 23.479C26.4124 22.9389 25.9743 22.5008 25.4341 22.5008H4.89108C4.3508 22.5008 3.91284 22.9389 3.91284 23.479C3.91284 24.0192 4.3508 24.4573 4.89108 24.4573Z" fill="#3ACCE1"/>
</svg>
