<svg width="41" height="45" viewBox="0 0 41 45" fill="none" xmlns="http://www.w3.org/2000/svg">
<path d="M39.7714 7.78912C33.1958 6.08421 26.5814 3.42937 20.6436 0.111662C20.5126 0.0384422 20.365 0 20.2149 0C20.0648 0 19.9172 0.0384422 19.7862 0.111662C13.6777 3.52438 7.42091 6.0357 0.658304 7.78912C0.469839 7.83799 0.302936 7.94805 0.183789 8.10204C0.0646427 8.25602 -2.51411e-06 8.44521 0 8.63991V18.3425C0 28.3211 4.85967 34.9219 8.93641 38.7021C13.3096 42.7573 18.3811 45 20.2149 45C22.0486 45 27.1201 42.7573 31.4934 38.7021C35.5701 34.9218 40.4298 28.321 40.4298 18.3425V8.63991C40.4298 8.23956 40.159 7.88967 39.7714 7.78912ZM30.2982 37.4132C27.8761 39.6591 25.5225 41.077 23.9746 41.8709C22.0129 42.877 20.6514 43.2423 20.215 43.2423C19.7786 43.2423 18.417 42.8771 16.4554 41.8709C14.9075 41.0769 12.5537 39.6591 10.1317 37.4132C6.31154 33.8709 1.75782 27.6869 1.75782 18.3425V9.3172C8.25851 7.57695 14.3087 5.14026 20.215 1.88399C25.9716 5.05334 32.3287 7.61316 38.6719 9.31684V18.3425C38.6719 27.6869 34.1183 33.8709 30.2982 37.4132Z" fill="#3ACCE1"/>
<path d="M36.7203 10.1401C31.1536 8.52179 25.7396 6.32363 20.6285 3.60674C20.5014 3.53914 20.3596 3.50383 20.2155 3.50391C20.0715 3.50398 19.9297 3.53945 19.8026 3.60718C14.6841 6.33523 9.27012 8.53383 3.71092 10.1418C3.52791 10.1947 3.36705 10.3057 3.25257 10.4579C3.13809 10.6102 3.07618 10.7956 3.07617 10.9861V18.3426C3.07617 21.7772 3.727 25.0364 5.01048 28.0301C6.28754 31.0087 8.19222 33.7272 10.6714 36.11C12.4445 37.8142 14.4919 39.316 16.5922 40.4531C16.9685 40.6568 18.9039 41.6837 20.0553 41.8963C20.1608 41.9158 20.2689 41.9158 20.3744 41.8963C21.5255 41.6838 23.4611 40.6568 23.8374 40.4531C25.9376 39.3161 27.9849 37.8144 29.7582 36.1101C32.2375 33.7273 34.1421 31.0088 35.4191 28.0302C36.7029 25.0364 37.3538 21.7772 37.3538 18.3426V10.9841C37.3538 10.5933 37.0956 10.2493 36.7203 10.1401ZM35.5959 18.3426C35.5959 24.7916 33.222 30.343 28.5403 34.8426C26.8794 36.4389 24.9639 37.8444 23.0008 38.9071C22.1072 39.3908 20.9009 39.9547 20.215 40.1318C19.5289 39.9547 18.3226 39.3909 17.4292 38.9071C15.4659 37.8444 13.5503 36.4389 11.8895 34.8426C7.20784 30.343 4.83408 24.7917 4.83408 18.3426V11.6441C10.1387 10.0646 15.3081 7.95849 20.2165 5.37704C25.1172 7.94786 30.2861 10.0532 35.5959 11.6412V18.3426Z" fill="#3ACCE1"/>
<path d="M12.9224 31.4915L12.901 31.4685C12.5715 31.1122 12.0154 31.0905 11.659 31.4201C11.3027 31.7497 11.281 32.3058 11.6107 32.6621L11.6215 32.6738C11.7038 32.7637 11.8039 32.8354 11.9154 32.8844C12.027 32.9334 12.1475 32.9586 12.2694 32.9584C12.4864 32.9586 12.6959 32.8782 12.857 32.7328C13.2178 32.4079 13.2471 31.8522 12.9224 31.4915ZM17.6631 35.481C16.6045 34.813 15.585 34.0429 14.6332 33.1919C14.2714 32.8684 13.7157 32.8994 13.3922 33.2615C13.0686 33.6233 13.0998 34.179 13.4616 34.5025C14.4861 35.4183 15.584 36.2477 16.7249 36.9677C16.8649 37.0564 17.0273 37.1034 17.1931 37.1034C17.3417 37.1035 17.4879 37.066 17.618 36.9943C17.7482 36.9226 17.858 36.819 17.9372 36.6933C18.1964 36.2827 18.0735 35.74 17.6631 35.481ZM27.911 15.4148C27.3929 14.8966 26.7019 14.6113 25.9656 14.6113C25.2292 14.6113 24.5383 14.8967 24.0202 15.4148L18.4361 20.9991L16.4096 18.9727C15.8915 18.4545 15.2007 18.1692 14.4643 18.1692C13.7281 18.1692 13.0372 18.4545 12.5189 18.9727C11.4463 20.0454 11.4463 21.7908 12.5189 22.8634L16.4908 26.8351C17.0089 27.3533 17.6998 27.6387 18.4361 27.6387C19.1724 27.6387 19.8633 27.3533 20.3814 26.8351L27.911 19.3056C28.4292 18.7875 28.7145 18.0966 28.7145 17.3602C28.7145 16.6239 28.4292 15.933 27.911 15.4148ZM26.6679 18.0626L19.1385 25.5922C18.9522 25.7783 18.7028 25.8809 18.4361 25.8809C18.1693 25.8809 17.9198 25.7784 17.7336 25.5922L13.762 21.6206C13.5759 21.4344 13.4734 21.185 13.4734 20.9182C13.4733 20.6514 13.5759 20.4019 13.7621 20.2158C13.9482 20.0296 14.1977 19.9272 14.4644 19.9272C14.7312 19.9272 14.9805 20.0296 15.1668 20.2158L17.8147 22.8636C18.1579 23.2068 18.7144 23.2068 19.0576 22.8636L25.2633 16.6579C25.4494 16.4717 25.6988 16.3692 25.9656 16.3692C26.2323 16.3692 26.4818 16.4718 26.6679 16.658C26.8541 16.8441 26.9566 17.0935 26.9566 17.3603C26.9566 17.6271 26.8541 17.8766 26.6679 18.0626Z" fill="#3ACCE1"/>
</svg>
