<svg width="54" height="46" viewBox="0 0 54 46" fill="none" xmlns="http://www.w3.org/2000/svg">
<path d="M52.9033 30.6177C52.3143 29.4082 50.6262 28.4182 47.6549 29.2662L47.5734 29.2898V15.4851C47.5734 15.2236 47.4695 14.9728 47.2846 14.7878C47.0996 14.6029 46.8488 14.499 46.5873 14.499H40.6539C40.3924 14.499 40.1416 14.6029 39.9566 14.7878C39.7717 14.9728 39.6678 15.2236 39.6678 15.4851V31.6866C38.2584 32.1244 36.9306 32.5385 35.8722 32.8699V23.4445C35.8722 23.183 35.7683 22.9322 35.5834 22.7473C35.3985 22.5623 35.1477 22.4584 34.8861 22.4584H28.9527C28.6912 22.4584 28.4404 22.5623 28.2555 22.7473C28.0706 22.9322 27.9667 23.183 27.9667 23.4445V30.7229C26.8321 30.5099 25.6001 30.3285 24.3104 30.1313C24.2644 30.1247 24.217 30.1155 24.171 30.1063V15.4864C24.171 15.2249 24.0671 14.9741 23.8822 14.7891C23.6973 14.6042 23.4465 14.5003 23.185 14.5003H17.2516C16.99 14.5003 16.7392 14.6042 16.5543 14.7891C16.3694 14.9741 16.2655 15.2249 16.2655 15.4864V26.3304C15.5225 26.1432 14.7667 26.0113 14.0042 25.9359C13.4888 25.8833 12.976 25.8544 12.4699 25.8465V18.1159C12.4699 17.8544 12.366 17.6035 12.1811 17.4186C11.9961 17.2337 11.7453 17.1298 11.4838 17.1298H5.5504C5.28888 17.1298 5.03807 17.2337 4.85315 17.4186C4.66823 17.6035 4.56434 17.8544 4.56434 18.1159V27.2086C3.46763 27.5813 2.40128 28.038 1.37479 28.5746C1.1511 28.7032 0.986755 28.9144 0.917013 29.1629C0.847271 29.4113 0.877693 29.6772 1.00175 29.9035C1.1258 30.1297 1.33361 30.2983 1.58057 30.3731C1.82753 30.4479 2.09397 30.4229 2.32271 30.3035C2.37793 30.2732 7.91824 27.2901 13.8043 27.8949C16.9413 28.217 18.7398 29.3766 20.3281 30.3929C21.5021 31.1502 22.6118 31.8654 24.0198 32.0758C30.5133 33.0513 32.8207 33.7336 32.8286 35.6137C32.8377 35.7414 32.8133 35.8693 32.7577 35.9846C32.7021 36.0999 32.6173 36.1987 32.5117 36.2711C30.8026 37.5635 24.4498 36.4091 20.8474 35.3771C20.5956 35.3054 20.3257 35.3367 20.097 35.464C19.8683 35.5914 19.6996 35.8044 19.628 36.0561C19.5563 36.3079 19.5876 36.5778 19.7149 36.8065C19.8423 37.0352 20.0553 37.2039 20.307 37.2755C22.0688 37.7632 23.856 38.1538 25.6606 38.4457C26.9871 38.6715 28.3291 38.7941 29.6745 38.8125C31.5152 38.8125 32.8509 38.4904 33.7042 37.8461C34.0539 37.5897 34.3365 37.2526 34.5279 36.8634C34.7192 36.4743 34.8137 36.0446 34.8033 35.6111C34.8033 35.4967 34.8033 35.3849 34.7888 35.2758C37.0791 34.5553 44.6862 32.1704 48.1992 31.166C50.1292 30.6151 50.9601 31.1331 51.1337 31.4841C51.3072 31.8352 51.1008 32.5162 50.2331 33.1473C48.9998 34.0439 44.1524 36.7326 38.9013 39.3055C32.8904 42.2531 28.4439 44.0136 27.0069 44.0188H26.932C17.9918 44.0188 2.28722 39.4173 2.12945 39.3699C1.87787 39.2956 1.60709 39.3244 1.37668 39.4497C1.14627 39.5751 0.975097 39.7869 0.900826 40.0385C0.826555 40.29 0.855266 40.5608 0.980642 40.7912C1.10602 41.0216 1.31779 41.1928 1.56937 41.2671C1.60881 41.2789 5.65426 42.4674 10.7725 43.6336C17.6184 45.1995 23.0548 46.0001 26.9293 46.0001H27.0122C29.2827 45.9936 35.2017 43.3233 39.7651 41.0857C44.6915 38.6718 49.9057 35.8267 51.39 34.7512C52.9454 33.6127 53.5541 31.9574 52.9033 30.6177ZM6.53645 19.1019H10.4978V25.9123C9.15979 26.0298 7.83445 26.2625 6.53645 26.6078V19.1019ZM18.2376 26.9903V16.4724H22.1989V29.2504C21.936 29.0926 21.673 28.9217 21.3943 28.7403C20.5095 28.171 19.509 27.5268 18.2376 26.9917V26.9903ZM41.6399 16.4724H45.6013V29.8749C44.397 30.2351 43.0204 30.6532 41.6399 31.0779V16.4724ZM29.9388 31.1541V24.4306H33.9001V33.1473C33.06 32.2059 31.6782 31.6051 29.9388 31.1541Z" fill="#3ACCE1"/>
<path d="M46.3703 1.36741C45.6764 0.695221 44.7604 0.300477 43.7952 0.257772C42.8301 0.215067 41.8827 0.527359 41.1322 1.13563C40.3816 1.74391 39.8799 2.60603 39.7217 3.55909C39.5636 4.51214 39.76 5.49011 40.2739 6.30819L33.8001 13.7207C33.1763 13.3841 32.4737 13.221 31.7654 13.2483C31.0571 13.2756 30.3691 13.4923 29.7731 13.8758L23.9225 9.34261C24.1264 8.79365 24.2057 8.20625 24.1547 7.62288C24.1038 7.03951 23.9238 6.47476 23.6279 5.96946C23.3319 5.46415 22.9274 5.03093 22.4435 4.70112C21.9596 4.3713 21.4085 4.15314 20.83 4.0624C20.2515 3.97166 19.66 4.01062 19.0984 4.17645C18.5368 4.34228 18.019 4.63085 17.5826 5.02128C17.1462 5.41171 16.802 5.89425 16.5748 6.43401C16.3477 6.97376 16.2434 7.55724 16.2694 8.14225L11.8926 9.84484C11.3901 9.02029 10.604 8.40739 9.68179 8.12107C8.75958 7.83474 7.7646 7.89465 6.88341 8.28957C6.00223 8.68449 5.29537 9.38728 4.89537 10.2662C4.49538 11.1451 4.42973 12.1397 4.71073 13.0635C4.99173 13.9874 5.60009 14.777 6.42172 15.2843C7.24335 15.7916 8.22182 15.9818 9.17366 15.8191C10.1255 15.6565 10.9853 15.1523 11.5919 14.4009C12.1985 13.6496 12.5102 12.7028 12.4685 11.7381L16.8531 10.0289C17.2069 10.6047 17.7021 11.0804 18.2917 11.4107C18.8814 11.7409 19.5457 11.9147 20.2215 11.9155H20.2872C21.2123 11.9035 22.1033 11.5644 22.8023 10.9584L28.4399 15.3273C28.1162 15.9291 27.9541 16.6047 27.9693 17.2879C27.9846 17.9711 28.1768 18.6387 28.5272 19.2255C28.8775 19.8123 29.374 20.2982 29.9682 20.6357C30.5624 20.9733 31.234 21.1511 31.9174 21.1516H31.9832C32.687 21.1402 33.375 20.9411 33.976 20.5747C34.5771 20.2084 35.0694 19.6882 35.4021 19.0679C35.7348 18.4475 35.8958 17.7496 35.8684 17.0462C35.841 16.3429 35.6262 15.6596 35.2463 15.067L41.7056 7.67026C42.2909 7.99486 42.9493 8.16457 43.6186 8.16329H43.6843C44.4661 8.15102 45.2268 7.9071 45.8699 7.4624C46.5131 7.01771 47.0099 6.39222 47.2974 5.66508C47.585 4.93795 47.6504 4.14186 47.4854 3.37755C47.3203 2.61324 46.9323 1.91505 46.3703 1.37135V1.36741ZM8.56767 13.9205C8.17502 13.9205 7.7912 13.8041 7.46472 13.5859C7.13825 13.3678 6.88379 13.0578 6.73353 12.695C6.58328 12.3322 6.54396 11.9331 6.62056 11.548C6.69716 11.1629 6.88624 10.8091 7.16388 10.5315C7.44153 10.2538 7.79526 10.0648 8.18037 9.98816C8.56547 9.91156 8.96464 9.95088 9.32739 10.1011C9.69015 10.2514 10.0002 10.5059 10.2183 10.8323C10.4365 11.1588 10.5529 11.5426 10.5529 11.9353C10.5529 12.4618 10.3438 12.9668 9.97146 13.3391C9.59915 13.7114 9.09419 13.9205 8.56767 13.9205ZM20.2688 9.93424C19.8759 9.93424 19.4918 9.81773 19.1652 9.59944C18.8385 9.38115 18.5838 9.0709 18.4335 8.7079C18.2831 8.3449 18.2438 7.94547 18.3204 7.56011C18.3971 7.17476 18.5863 6.82078 18.8641 6.54296C19.1419 6.26513 19.4959 6.07593 19.8813 5.99927C20.2666 5.92262 20.6661 5.96196 21.0291 6.11232C21.3921 6.26268 21.7023 6.5173 21.9206 6.84399C22.1389 7.17068 22.2554 7.55477 22.2554 7.94767C22.2563 8.20949 22.2053 8.46888 22.1056 8.71094C22.0058 8.95299 21.8591 9.17291 21.674 9.35804C21.4888 9.54317 21.2689 9.68986 21.0268 9.78965C20.7848 9.88944 20.5254 9.94037 20.2636 9.9395L20.2688 9.93424ZM31.8767 19.1939C31.4838 19.1937 31.0999 19.0769 30.7733 18.8585C30.4468 18.6401 30.1924 18.3297 30.0422 17.9667C29.8921 17.6037 29.8529 17.2043 29.9297 16.819C30.0065 16.4337 30.1958 16.0799 30.4737 15.8022C30.7516 15.5245 31.1056 15.3354 31.4909 15.2589C31.8762 15.1823 32.2756 15.2217 32.6385 15.3721C33.0014 15.5225 33.3116 15.7772 33.5298 16.1038C33.7481 16.4305 33.8645 16.8145 33.8645 17.2074C33.8645 17.4684 33.8131 17.7268 33.7132 17.9679C33.6133 18.209 33.4668 18.4281 33.2822 18.6126C33.0976 18.797 32.8785 18.9433 32.6373 19.0431C32.3961 19.1429 32.1376 19.1941 31.8767 19.1939ZM43.6396 6.23457C43.247 6.23431 42.8633 6.11765 42.537 5.89935C42.2107 5.68105 41.9565 5.37091 41.8064 5.00813C41.6564 4.64535 41.6172 4.24622 41.694 3.86121C41.7707 3.47619 41.9599 3.12257 42.2376 2.84506C42.5153 2.56755 42.869 2.37861 43.2541 2.30211C43.6392 2.22562 44.0383 2.26501 44.401 2.4153C44.7636 2.5656 45.0736 2.82006 45.2917 3.1465C45.5098 3.47295 45.6262 3.85672 45.6262 4.24931C45.6262 4.77561 45.4172 5.28037 45.0452 5.65264C44.6732 6.02491 44.1685 6.23422 43.6422 6.23457H43.6396Z" fill="#3ACCE1"/>
</svg>
