<svg width="7" height="12" viewBox="0 0 7 12" fill="none" xmlns="http://www.w3.org/2000/svg">
<path d="M6.83468 5.62617L0.89447 0.142609C0.795355 0.0510667 0.663672 -2.7697e-07 0.526737 -2.82955e-07C0.389801 -2.88941e-07 0.258121 0.0510667 0.159006 0.142609L0.152609 0.148805C0.104393 0.193183 0.0660014 0.2466 0.0397658 0.305807C0.0135302 0.365014 4.58095e-07 0.428773 4.55278e-07 0.493205C4.52462e-07 0.557638 0.0135302 0.621397 0.0397658 0.680604C0.0660014 0.739811 0.104393 0.793228 0.152609 0.837606L5.74641 6.00103L0.152609 11.1624C0.104393 11.2068 0.0660009 11.2602 0.0397653 11.3194C0.0135298 11.3786 -2.33244e-08 11.4424 -2.61408e-08 11.5068C-2.89572e-08 11.5712 0.0135297 11.635 0.0397653 11.6942C0.0660009 11.7534 0.104393 11.8068 0.152609 11.8512L0.159005 11.8574C0.25812 11.9489 0.389801 12 0.526736 12C0.663672 12 0.795354 11.9489 0.89447 11.8574L6.83468 6.37383C6.88692 6.32561 6.92851 6.26761 6.95693 6.20335C6.98535 6.13909 7 6.06991 7 6C7 5.93009 6.98535 5.86091 6.95693 5.79665C6.92851 5.73239 6.88692 5.67439 6.83468 5.62617Z" fill="white"/>
</svg>
