<svg width="462" height="777" viewBox="0 0 462 777" fill="none" xmlns="http://www.w3.org/2000/svg">
<mask id="mask0_87_4" style="mask-type:luminance" maskUnits="userSpaceOnUse" x="-211" y="104" width="569" height="569">
<path d="M-68.4837 634.289C67.2088 712.632 240.747 666.09 319.125 530.336C397.502 394.581 351.04 221.022 215.347 142.68C79.6548 64.3379 -93.8834 110.88 -172.261 246.634C-250.639 382.388 -204.176 555.947 -68.4837 634.289Z" fill="white"/>
</mask>
<g mask="url(#mask0_87_4)">
</g>
<mask id="mask1_87_4" style="mask-type:luminance" maskUnits="userSpaceOnUse" x="-211" y="104" width="569" height="569">
<path d="M-68.4837 634.289C67.2088 712.632 240.747 666.09 319.125 530.336C397.502 394.581 351.04 221.022 215.347 142.68C79.6548 64.3379 -93.8834 110.88 -172.261 246.634C-250.639 382.388 -204.176 555.947 -68.4837 634.289Z" fill="white"/>
</mask>
<g mask="url(#mask1_87_4)">
<path d="M88.2935 86.4552C84.2805 84.1383 79.1367 85.5179 76.8188 89.5326C74.5008 93.5474 75.878 98.6919 79.891 101.009C83.9039 103.326 89.0478 101.946 91.3657 97.9313C93.6836 93.9165 92.3064 88.7721 88.2935 86.4552Z" fill="#3A4351" fill-opacity="0.03"/>
</g>
<mask id="mask2_87_4" style="mask-type:luminance" maskUnits="userSpaceOnUse" x="-211" y="104" width="569" height="569">
<path d="M-68.4837 634.289C67.2088 712.632 240.747 666.09 319.125 530.336C397.502 394.581 351.04 221.022 215.347 142.68C79.6548 64.3379 -93.8834 110.88 -172.261 246.634C-250.639 382.388 -204.176 555.947 -68.4837 634.289Z" fill="white"/>
</mask>
<g mask="url(#mask2_87_4)">
<path d="M146.632 120.137C142.619 117.82 137.475 119.2 135.157 123.214C132.839 127.229 134.216 132.374 138.229 134.69C142.242 137.007 147.386 135.628 149.704 131.613C152.022 127.598 150.695 122.483 146.632 120.137Z" fill="#3A4351" fill-opacity="0.03"/>
</g>
<mask id="mask3_87_4" style="mask-type:luminance" maskUnits="userSpaceOnUse" x="-211" y="104" width="569" height="569">
<path d="M-68.4837 634.289C67.2088 712.632 240.747 666.09 319.125 530.336C397.502 394.581 351.04 221.022 215.347 142.68C79.6548 64.3379 -93.8834 110.88 -172.261 246.634C-250.639 382.388 -204.176 555.947 -68.4837 634.289Z" fill="white"/>
</mask>
<g mask="url(#mask3_87_4)">
<path d="M205.021 153.847C201.008 151.53 195.864 152.909 193.546 156.924C191.228 160.939 192.605 166.083 196.618 168.4C200.631 170.717 205.775 169.338 208.093 165.323C210.411 161.308 209.084 156.193 205.021 153.847Z" fill="#3A4351" fill-opacity="0.03"/>
</g>
<mask id="mask4_87_4" style="mask-type:luminance" maskUnits="userSpaceOnUse" x="-211" y="104" width="569" height="569">
<path d="M-68.4837 634.289C67.2088 712.632 240.747 666.09 319.125 530.336C397.502 394.581 351.04 221.022 215.347 142.68C79.6548 64.3379 -93.8834 110.88 -172.261 246.634C-250.639 382.388 -204.176 555.947 -68.4837 634.289Z" fill="white"/>
</mask>
<g mask="url(#mask4_87_4)">
<path d="M263.409 187.558C259.396 185.241 254.252 186.62 251.934 190.635C249.616 194.65 250.993 199.794 255.006 202.111C259.019 204.428 264.163 203.049 266.481 199.034C268.799 195.019 267.422 189.875 263.409 187.558Z" fill="#3A4351" fill-opacity="0.03"/>
</g>
<mask id="mask5_87_4" style="mask-type:luminance" maskUnits="userSpaceOnUse" x="-211" y="104" width="569" height="569">
<path d="M-68.4837 634.289C67.2088 712.632 240.747 666.09 319.125 530.336C397.502 394.581 351.04 221.022 215.347 142.68C79.6548 64.3379 -93.8834 110.88 -172.261 246.634C-250.639 382.388 -204.176 555.947 -68.4837 634.289Z" fill="white"/>
</mask>
<g mask="url(#mask5_87_4)">
<path d="M321.797 221.269C317.784 218.952 312.641 220.331 310.323 224.346C308.005 228.361 309.382 233.505 313.395 235.822C317.408 238.139 322.552 236.76 324.87 232.745C327.188 228.73 325.81 223.586 321.797 221.269Z" fill="#3A4351" fill-opacity="0.03"/>
</g>
<mask id="mask6_87_4" style="mask-type:luminance" maskUnits="userSpaceOnUse" x="-211" y="104" width="569" height="569">
<path d="M-68.4837 634.289C67.2088 712.632 240.747 666.09 319.125 530.336C397.502 394.581 351.04 221.022 215.347 142.68C79.6548 64.3379 -93.8834 110.88 -172.261 246.634C-250.639 382.388 -204.176 555.947 -68.4837 634.289Z" fill="white"/>
</mask>
<g mask="url(#mask6_87_4)">
</g>
<mask id="mask7_87_4" style="mask-type:luminance" maskUnits="userSpaceOnUse" x="-211" y="104" width="569" height="569">
<path d="M-68.4837 634.289C67.2088 712.632 240.747 666.09 319.125 530.336C397.502 394.581 351.04 221.022 215.347 142.68C79.6548 64.3379 -93.8834 110.88 -172.261 246.634C-250.639 382.388 -204.176 555.947 -68.4837 634.289Z" fill="white"/>
</mask>
<g mask="url(#mask7_87_4)">
</g>
<mask id="mask8_87_4" style="mask-type:luminance" maskUnits="userSpaceOnUse" x="-211" y="104" width="569" height="569">
<path d="M-68.4837 634.289C67.2088 712.632 240.747 666.09 319.125 530.336C397.502 394.581 351.04 221.022 215.347 142.68C79.6548 64.3379 -93.8834 110.88 -172.261 246.634C-250.639 382.388 -204.176 555.947 -68.4837 634.289Z" fill="white"/>
</mask>
<g mask="url(#mask8_87_4)">
<path d="M35.0713 113.071C31.0584 110.755 25.9145 112.134 23.5966 116.149C21.2787 120.164 22.6559 125.308 26.6688 127.625C30.6818 129.942 35.8256 128.562 38.1435 124.548C40.4615 120.533 39.1344 115.417 35.0713 113.071Z" fill="#3A4351" fill-opacity="0.03"/>
</g>
<mask id="mask9_87_4" style="mask-type:luminance" maskUnits="userSpaceOnUse" x="-211" y="104" width="569" height="569">
<path d="M-68.4837 634.289C67.2088 712.632 240.747 666.09 319.125 530.336C397.502 394.581 351.04 221.022 215.347 142.68C79.6548 64.3379 -93.8834 110.88 -172.261 246.634C-250.639 382.388 -204.176 555.947 -68.4837 634.289Z" fill="white"/>
</mask>
<g mask="url(#mask9_87_4)">
<path d="M93.46 146.783C89.447 144.466 84.3032 145.846 81.9853 149.861C79.6673 153.876 81.0445 159.02 85.0575 161.337C89.0704 163.654 94.2143 162.274 96.5322 158.259C98.8502 154.245 97.473 149.1 93.46 146.783Z" fill="#3A4351" fill-opacity="0.03"/>
</g>
<mask id="mask10_87_4" style="mask-type:luminance" maskUnits="userSpaceOnUse" x="-211" y="104" width="569" height="569">
<path d="M-68.4837 634.289C67.2088 712.632 240.747 666.09 319.125 530.336C397.502 394.581 351.04 221.022 215.347 142.68C79.6548 64.3379 -93.8834 110.88 -172.261 246.634C-250.639 382.388 -204.176 555.947 -68.4837 634.289Z" fill="white"/>
</mask>
<g mask="url(#mask10_87_4)">
<path d="M151.848 180.493C147.835 178.176 142.691 179.556 140.373 183.571C138.056 187.586 139.433 192.73 143.446 195.047C147.459 197.364 152.602 195.984 154.92 191.969C157.238 187.955 155.861 182.81 151.848 180.493Z" fill="#3A4351" fill-opacity="0.03"/>
</g>
<mask id="mask11_87_4" style="mask-type:luminance" maskUnits="userSpaceOnUse" x="-211" y="104" width="569" height="569">
<path d="M-68.4837 634.289C67.2088 712.632 240.747 666.09 319.125 530.336C397.502 394.581 351.04 221.022 215.347 142.68C79.6548 64.3379 -93.8834 110.88 -172.261 246.634C-250.639 382.388 -204.176 555.947 -68.4837 634.289Z" fill="white"/>
</mask>
<g mask="url(#mask11_87_4)">
<path d="M210.237 214.203C206.224 211.886 201.08 213.266 198.762 217.281C196.444 221.295 197.821 226.44 201.834 228.757C205.847 231.074 210.991 229.694 213.309 225.679C215.627 221.665 214.25 216.52 210.237 214.203Z" fill="#3A4351" fill-opacity="0.03"/>
</g>
<mask id="mask12_87_4" style="mask-type:luminance" maskUnits="userSpaceOnUse" x="-211" y="104" width="569" height="569">
<path d="M-68.4837 634.289C67.2088 712.632 240.747 666.09 319.125 530.336C397.502 394.581 351.04 221.022 215.347 142.68C79.6548 64.3379 -93.8834 110.88 -172.261 246.634C-250.639 382.388 -204.176 555.947 -68.4837 634.289Z" fill="white"/>
</mask>
<g mask="url(#mask12_87_4)">
<path d="M268.625 247.914C264.612 245.597 259.468 246.977 257.15 250.992C254.832 255.006 256.21 260.151 260.223 262.468C264.235 264.785 269.379 263.405 271.697 259.39C274.015 255.376 272.638 250.231 268.625 247.914Z" fill="#3A4351" fill-opacity="0.03"/>
</g>
<mask id="mask13_87_4" style="mask-type:luminance" maskUnits="userSpaceOnUse" x="-211" y="104" width="569" height="569">
<path d="M-68.4837 634.289C67.2088 712.632 240.747 666.09 319.125 530.336C397.502 394.581 351.04 221.022 215.347 142.68C79.6548 64.3379 -93.8834 110.88 -172.261 246.634C-250.639 382.388 -204.176 555.947 -68.4837 634.289Z" fill="white"/>
</mask>
<g mask="url(#mask13_87_4)">
<path d="M327.014 281.624C323.001 279.307 317.857 280.687 315.539 284.702C313.221 288.716 314.598 293.861 318.611 296.178C322.624 298.495 327.768 297.115 330.086 293.1C332.404 289.085 331.027 283.941 327.014 281.624Z" fill="#3A4351" fill-opacity="0.03"/>
</g>
<mask id="mask14_87_4" style="mask-type:luminance" maskUnits="userSpaceOnUse" x="-211" y="104" width="569" height="569">
<path d="M-68.4837 634.289C67.2088 712.632 240.747 666.09 319.125 530.336C397.502 394.581 351.04 221.022 215.347 142.68C79.6548 64.3379 -93.8834 110.88 -172.261 246.634C-250.639 382.388 -204.176 555.947 -68.4837 634.289Z" fill="white"/>
</mask>
<g mask="url(#mask14_87_4)">
</g>
<mask id="mask15_87_4" style="mask-type:luminance" maskUnits="userSpaceOnUse" x="-211" y="104" width="569" height="569">
<path d="M-68.4837 634.289C67.2088 712.632 240.747 666.09 319.125 530.336C397.502 394.581 351.04 221.022 215.347 142.68C79.6548 64.3379 -93.8834 110.88 -172.261 246.634C-250.639 382.388 -204.176 555.947 -68.4837 634.289Z" fill="white"/>
</mask>
<g mask="url(#mask15_87_4)">
</g>
<mask id="mask16_87_4" style="mask-type:luminance" maskUnits="userSpaceOnUse" x="-211" y="104" width="569" height="569">
<path d="M-68.4837 634.289C67.2088 712.632 240.747 666.09 319.125 530.336C397.502 394.581 351.04 221.022 215.347 142.68C79.6548 64.3379 -93.8834 110.88 -172.261 246.634C-250.639 382.388 -204.176 555.947 -68.4837 634.289Z" fill="white"/>
</mask>
<g mask="url(#mask16_87_4)">
<path d="M40.0518 170.014C36.0388 167.697 30.895 169.076 28.5771 173.091C26.2591 177.106 27.6363 182.25 31.6493 184.567C35.6622 186.884 40.8061 185.505 43.124 181.49C45.4419 177.475 44.0647 172.331 40.0518 170.014Z" fill="#3A4351" fill-opacity="0.03"/>
</g>
<mask id="mask17_87_4" style="mask-type:luminance" maskUnits="userSpaceOnUse" x="-211" y="104" width="569" height="569">
<path d="M-68.4837 634.289C67.2088 712.632 240.747 666.09 319.125 530.336C397.502 394.581 351.04 221.022 215.347 142.68C79.6548 64.3379 -93.8834 110.88 -172.261 246.634C-250.639 382.388 -204.176 555.947 -68.4837 634.289Z" fill="white"/>
</mask>
<g mask="url(#mask17_87_4)">
<path d="M98.3902 203.694C94.3772 201.378 89.2334 202.757 86.9154 206.772C84.5975 210.787 85.9747 215.931 89.9876 218.248C94.0006 220.565 99.1444 219.185 101.462 215.171C103.83 211.185 102.453 206.04 98.3902 203.694Z" fill="#3A4351" fill-opacity="0.03"/>
</g>
<mask id="mask18_87_4" style="mask-type:luminance" maskUnits="userSpaceOnUse" x="-211" y="104" width="569" height="569">
<path d="M-68.4837 634.289C67.2088 712.632 240.747 666.09 319.125 530.336C397.502 394.581 351.04 221.022 215.347 142.68C79.6548 64.3379 -93.8834 110.88 -172.261 246.634C-250.639 382.388 -204.176 555.947 -68.4837 634.289Z" fill="white"/>
</mask>
<g mask="url(#mask18_87_4)">
<path d="M156.778 237.405C152.765 235.089 147.622 236.468 145.304 240.483C142.986 244.498 144.363 249.642 148.376 251.959C152.389 254.276 157.533 252.896 159.851 248.882C162.219 244.896 160.841 239.751 156.778 237.405Z" fill="#3A4351" fill-opacity="0.03"/>
</g>
<mask id="mask19_87_4" style="mask-type:luminance" maskUnits="userSpaceOnUse" x="-211" y="104" width="569" height="569">
<path d="M-68.4837 634.289C67.2088 712.632 240.747 666.09 319.125 530.336C397.502 394.581 351.04 221.022 215.347 142.68C79.6548 64.3379 -93.8834 110.88 -172.261 246.634C-250.639 382.388 -204.176 555.947 -68.4837 634.289Z" fill="white"/>
</mask>
<g mask="url(#mask19_87_4)">
<path d="M215.167 271.115C211.154 268.798 206.01 270.178 203.692 274.193C201.374 278.208 202.752 283.352 206.765 285.669C210.777 287.986 215.921 286.606 218.239 282.591C220.607 278.606 219.18 273.432 215.167 271.115Z" fill="#3A4351" fill-opacity="0.03"/>
</g>
<mask id="mask20_87_4" style="mask-type:luminance" maskUnits="userSpaceOnUse" x="-211" y="104" width="569" height="569">
<path d="M-68.4837 634.289C67.2088 712.632 240.747 666.09 319.125 530.336C397.502 394.581 351.04 221.022 215.347 142.68C79.6548 64.3379 -93.8834 110.88 -172.261 246.634C-250.639 382.388 -204.176 555.947 -68.4837 634.289Z" fill="white"/>
</mask>
<g mask="url(#mask20_87_4)">
<path d="M273.555 304.826C269.542 302.509 264.398 303.889 262.08 307.904C259.763 311.919 261.14 317.063 265.153 319.38C269.166 321.697 274.309 320.317 276.627 316.302C278.995 312.317 277.568 307.143 273.555 304.826Z" fill="#3A4351" fill-opacity="0.03"/>
</g>
<mask id="mask21_87_4" style="mask-type:luminance" maskUnits="userSpaceOnUse" x="-211" y="104" width="569" height="569">
<path d="M-68.4837 634.289C67.2088 712.632 240.747 666.09 319.125 530.336C397.502 394.581 351.04 221.022 215.347 142.68C79.6548 64.3379 -93.8834 110.88 -172.261 246.634C-250.639 382.388 -204.176 555.947 -68.4837 634.289Z" fill="white"/>
</mask>
<g mask="url(#mask21_87_4)">
<path d="M331.944 338.537C327.931 336.22 322.787 337.6 320.469 341.615C318.151 345.629 319.528 350.774 323.541 353.091C327.554 355.408 332.698 354.028 335.016 350.013C337.334 345.999 335.957 340.854 331.944 338.537Z" fill="#3A4351" fill-opacity="0.03"/>
</g>
<mask id="mask22_87_4" style="mask-type:luminance" maskUnits="userSpaceOnUse" x="-211" y="104" width="569" height="569">
<path d="M-68.4837 634.289C67.2088 712.632 240.747 666.09 319.125 530.336C397.502 394.581 351.04 221.022 215.347 142.68C79.6548 64.3379 -93.8834 110.88 -172.261 246.634C-250.639 382.388 -204.176 555.947 -68.4837 634.289Z" fill="white"/>
</mask>
<g mask="url(#mask22_87_4)">
</g>
<mask id="mask23_87_4" style="mask-type:luminance" maskUnits="userSpaceOnUse" x="-211" y="104" width="569" height="569">
<path d="M-68.4837 634.289C67.2088 712.632 240.747 666.09 319.125 530.336C397.502 394.581 351.04 221.022 215.347 142.68C79.6548 64.3379 -93.8834 110.88 -172.261 246.634C-250.639 382.388 -204.176 555.947 -68.4837 634.289Z" fill="white"/>
</mask>
<g mask="url(#mask23_87_4)">
<path d="M45.2178 230.34C41.2049 228.023 36.061 229.403 33.7431 233.417C31.4252 237.432 32.8024 242.577 36.8153 244.894C40.8283 247.21 45.9721 245.831 48.29 241.816C50.6581 237.83 49.2308 232.657 45.2178 230.34Z" fill="#3A4351" fill-opacity="0.03"/>
</g>
<mask id="mask24_87_4" style="mask-type:luminance" maskUnits="userSpaceOnUse" x="-211" y="104" width="569" height="569">
<path d="M-68.4837 634.289C67.2088 712.632 240.747 666.09 319.125 530.336C397.502 394.581 351.04 221.022 215.347 142.68C79.6548 64.3379 -93.8834 110.88 -172.261 246.634C-250.639 382.388 -204.176 555.947 -68.4837 634.289Z" fill="white"/>
</mask>
<g mask="url(#mask24_87_4)">
<path d="M103.606 264.05C99.5935 261.733 94.4497 263.113 92.1318 267.127C89.8138 271.142 91.191 276.287 95.204 278.603C99.2169 280.92 104.361 279.541 106.679 275.526C108.997 271.511 107.619 266.367 103.606 264.05Z" fill="#3A4351" fill-opacity="0.03"/>
</g>
<mask id="mask25_87_4" style="mask-type:luminance" maskUnits="userSpaceOnUse" x="-211" y="104" width="569" height="569">
<path d="M-68.4837 634.289C67.2088 712.632 240.747 666.09 319.125 530.336C397.502 394.581 351.04 221.022 215.347 142.68C79.6548 64.3379 -93.8834 110.88 -172.261 246.634C-250.639 382.388 -204.176 555.947 -68.4837 634.289Z" fill="white"/>
</mask>
<g mask="url(#mask25_87_4)">
<path d="M161.995 297.761C157.982 295.444 152.838 296.824 150.52 300.838C148.202 304.853 149.579 309.998 153.592 312.314C157.605 314.631 162.749 313.252 165.067 309.237C167.385 305.222 166.008 300.078 161.995 297.761Z" fill="#3A4351" fill-opacity="0.03"/>
</g>
<mask id="mask26_87_4" style="mask-type:luminance" maskUnits="userSpaceOnUse" x="-211" y="104" width="569" height="569">
<path d="M-68.4837 634.289C67.2088 712.632 240.747 666.09 319.125 530.336C397.502 394.581 351.04 221.022 215.347 142.68C79.6548 64.3379 -93.8834 110.88 -172.261 246.634C-250.639 382.388 -204.176 555.947 -68.4837 634.289Z" fill="white"/>
</mask>
<g mask="url(#mask26_87_4)">
<path d="M226.612 320.682C222.599 318.365 217.456 319.744 215.138 323.759C212.82 327.774 214.197 332.918 218.21 335.235C222.223 337.552 227.367 336.173 229.685 332.158C232.024 328.222 230.675 323.028 226.612 320.682Z" fill="#3A4351" fill-opacity="0.03"/>
</g>
<mask id="mask27_87_4" style="mask-type:luminance" maskUnits="userSpaceOnUse" x="-211" y="104" width="569" height="569">
<path d="M-68.4837 634.289C67.2088 712.632 240.747 666.09 319.125 530.336C397.502 394.581 351.04 221.022 215.347 142.68C79.6548 64.3379 -93.8834 110.88 -172.261 246.634C-250.639 382.388 -204.176 555.947 -68.4837 634.289Z" fill="white"/>
</mask>
<g mask="url(#mask27_87_4)">
<path d="M278.772 365.182C274.759 362.865 269.615 364.244 267.297 368.259C264.979 372.274 266.356 377.418 270.369 379.735C274.382 382.052 279.526 380.673 281.844 376.658C284.162 372.643 282.784 367.499 278.772 365.182Z" fill="#3A4351" fill-opacity="0.03"/>
</g>
<mask id="mask28_87_4" style="mask-type:luminance" maskUnits="userSpaceOnUse" x="-211" y="104" width="569" height="569">
<path d="M-68.4837 634.289C67.2088 712.632 240.747 666.09 319.125 530.336C397.502 394.581 351.04 221.022 215.347 142.68C79.6548 64.3379 -93.8834 110.88 -172.261 246.634C-250.639 382.388 -204.176 555.947 -68.4837 634.289Z" fill="white"/>
</mask>
<g mask="url(#mask28_87_4)">
<path d="M337.16 398.893C333.147 396.576 328.003 397.955 325.685 401.97C323.367 405.985 324.744 411.129 328.757 413.446C332.77 415.763 337.914 414.384 340.232 410.369C342.55 406.354 341.173 401.21 337.16 398.893Z" fill="#3A4351" fill-opacity="0.03"/>
</g>
<mask id="mask29_87_4" style="mask-type:luminance" maskUnits="userSpaceOnUse" x="-211" y="104" width="569" height="569">
<path d="M-68.4837 634.289C67.2088 712.632 240.747 666.09 319.125 530.336C397.502 394.581 351.04 221.022 215.347 142.68C79.6548 64.3379 -93.8834 110.88 -172.261 246.634C-250.639 382.388 -204.176 555.947 -68.4837 634.289Z" fill="white"/>
</mask>
<g mask="url(#mask29_87_4)">
</g>
<mask id="mask30_87_4" style="mask-type:luminance" maskUnits="userSpaceOnUse" x="-211" y="104" width="569" height="569">
<path d="M-68.4837 634.289C67.2088 712.632 240.747 666.09 319.125 530.336C397.502 394.581 351.04 221.022 215.347 142.68C79.6548 64.3379 -93.8834 110.88 -172.261 246.634C-250.639 382.388 -204.176 555.947 -68.4837 634.289Z" fill="white"/>
</mask>
<g mask="url(#mask30_87_4)">
<path d="M47.3374 292.119C43.3245 289.802 38.1807 291.182 35.8627 295.197C33.5448 299.211 34.922 304.356 38.9349 306.673C42.9479 308.99 48.0917 307.61 50.4097 303.595C52.7777 299.61 51.4005 294.465 47.3374 292.119Z" fill="#3A4351" fill-opacity="0.03"/>
</g>
<mask id="mask31_87_4" style="mask-type:luminance" maskUnits="userSpaceOnUse" x="-211" y="104" width="569" height="569">
<path d="M-68.4837 634.289C67.2088 712.632 240.747 666.09 319.125 530.336C397.502 394.581 351.04 221.022 215.347 142.68C79.6548 64.3379 -93.8834 110.88 -172.261 246.634C-250.639 382.388 -204.176 555.947 -68.4837 634.289Z" fill="white"/>
</mask>
<g mask="url(#mask31_87_4)">
<path d="M105.726 325.83C101.713 323.513 96.5693 324.893 94.2514 328.908C91.9335 332.922 93.3107 338.067 97.3236 340.384C101.337 342.701 106.48 341.321 108.798 337.306C111.166 333.32 109.789 328.176 105.726 325.83Z" fill="#3A4351" fill-opacity="0.03"/>
</g>
<mask id="mask32_87_4" style="mask-type:luminance" maskUnits="userSpaceOnUse" x="-211" y="104" width="569" height="569">
<path d="M-68.4837 634.289C67.2088 712.632 240.747 666.09 319.125 530.336C397.502 394.581 351.04 221.022 215.347 142.68C79.6548 64.3379 -93.8834 110.88 -172.261 246.634C-250.639 382.388 -204.176 555.947 -68.4837 634.289Z" fill="white"/>
</mask>
<g mask="url(#mask32_87_4)">
<path d="M164.114 359.541C160.101 357.224 154.958 358.604 152.64 362.619C150.322 366.633 151.699 371.778 155.712 374.095C159.725 376.412 164.869 375.032 167.187 371.017C169.555 367.031 168.127 361.858 164.114 359.541Z" fill="#3A4351" fill-opacity="0.03"/>
</g>
<mask id="mask33_87_4" style="mask-type:luminance" maskUnits="userSpaceOnUse" x="-211" y="104" width="569" height="569">
<path d="M-68.4837 634.289C67.2088 712.632 240.747 666.09 319.125 530.336C397.502 394.581 351.04 221.022 215.347 142.68C79.6548 64.3379 -93.8834 110.88 -172.261 246.634C-250.639 382.388 -204.176 555.947 -68.4837 634.289Z" fill="white"/>
</mask>
<g mask="url(#mask33_87_4)">
<path d="M222.503 393.252C218.49 390.935 213.346 392.315 211.028 396.33C208.71 400.344 210.087 405.489 214.1 407.806C218.113 410.123 223.257 408.743 225.575 404.728C227.943 400.742 226.516 395.569 222.503 393.252Z" fill="#3A4351" fill-opacity="0.03"/>
</g>
<mask id="mask34_87_4" style="mask-type:luminance" maskUnits="userSpaceOnUse" x="-211" y="104" width="569" height="569">
<path d="M-68.4837 634.289C67.2088 712.632 240.747 666.09 319.125 530.336C397.502 394.581 351.04 221.022 215.347 142.68C79.6548 64.3379 -93.8834 110.88 -172.261 246.634C-250.639 382.388 -204.176 555.947 -68.4837 634.289Z" fill="white"/>
</mask>
<g mask="url(#mask34_87_4)">
<path d="M280.891 426.962C276.878 424.645 271.734 426.025 269.416 430.039C267.098 434.054 268.476 439.199 272.489 441.516C276.502 443.832 281.645 442.453 283.963 438.438C286.281 434.423 284.904 429.279 280.891 426.962Z" fill="#3A4351" fill-opacity="0.03"/>
</g>
<mask id="mask35_87_4" style="mask-type:luminance" maskUnits="userSpaceOnUse" x="-211" y="104" width="569" height="569">
<path d="M-68.4837 634.289C67.2088 712.632 240.747 666.09 319.125 530.336C397.502 394.581 351.04 221.022 215.347 142.68C79.6548 64.3379 -93.8834 110.88 -172.261 246.634C-250.639 382.388 -204.176 555.947 -68.4837 634.289Z" fill="white"/>
</mask>
<g mask="url(#mask35_87_4)">
<path d="M339.28 460.673C335.267 458.356 330.123 459.736 327.805 463.75C325.487 467.765 326.864 472.91 330.877 475.227C334.89 477.543 340.034 476.164 342.352 472.149C344.67 468.134 343.293 462.99 339.28 460.673Z" fill="#3A4351" fill-opacity="0.03"/>
</g>
<mask id="mask36_87_4" style="mask-type:luminance" maskUnits="userSpaceOnUse" x="-211" y="104" width="569" height="569">
<path d="M-68.4837 634.289C67.2088 712.632 240.747 666.09 319.125 530.336C397.502 394.581 351.04 221.022 215.347 142.68C79.6548 64.3379 -93.8834 110.88 -172.261 246.634C-250.639 382.388 -204.176 555.947 -68.4837 634.289Z" fill="white"/>
</mask>
<g mask="url(#mask36_87_4)">
<path d="M-5.83492 318.766C-9.84787 316.449 -14.9917 317.828 -17.3096 321.843C-19.6276 325.858 -18.2504 331.002 -14.2374 333.319C-10.2245 335.636 -5.08062 334.257 -2.76269 330.242C-0.394597 326.256 -1.82197 321.083 -5.83492 318.766Z" fill="#3A4351" fill-opacity="0.03"/>
</g>
<mask id="mask37_87_4" style="mask-type:luminance" maskUnits="userSpaceOnUse" x="-211" y="104" width="569" height="569">
<path d="M-68.4837 634.289C67.2088 712.632 240.747 666.09 319.125 530.336C397.502 394.581 351.04 221.022 215.347 142.68C79.6548 64.3379 -93.8834 110.88 -172.261 246.634C-250.639 382.388 -204.176 555.947 -68.4837 634.289Z" fill="white"/>
</mask>
<g mask="url(#mask37_87_4)">
<path d="M52.5533 352.476C48.5403 350.159 43.3965 351.538 41.0785 355.553C38.7606 359.568 40.1378 364.712 44.1508 367.029C48.1637 369.346 53.3076 367.967 55.6255 363.952C57.9434 359.937 56.5662 354.793 52.5533 352.476Z" fill="#3A4351" fill-opacity="0.03"/>
</g>
<mask id="mask38_87_4" style="mask-type:luminance" maskUnits="userSpaceOnUse" x="-211" y="104" width="569" height="569">
<path d="M-68.4837 634.289C67.2088 712.632 240.747 666.09 319.125 530.336C397.502 394.581 351.04 221.022 215.347 142.68C79.6548 64.3379 -93.8834 110.88 -172.261 246.634C-250.639 382.388 -204.176 555.947 -68.4837 634.289Z" fill="white"/>
</mask>
<g mask="url(#mask38_87_4)">
<path d="M110.942 386.187C106.929 383.87 101.785 385.249 99.4672 389.264C97.1493 393.279 98.5265 398.423 102.539 400.74C106.552 403.057 111.696 401.678 114.014 397.663C116.332 393.648 114.955 388.504 110.942 386.187Z" fill="#3A4351" fill-opacity="0.03"/>
</g>
<mask id="mask39_87_4" style="mask-type:luminance" maskUnits="userSpaceOnUse" x="-211" y="104" width="569" height="569">
<path d="M-68.4837 634.289C67.2088 712.632 240.747 666.09 319.125 530.336C397.502 394.581 351.04 221.022 215.347 142.68C79.6548 64.3379 -93.8834 110.88 -172.261 246.634C-250.639 382.388 -204.176 555.947 -68.4837 634.289Z" fill="white"/>
</mask>
<g mask="url(#mask39_87_4)">
<path d="M169.331 419.897C165.318 417.58 160.174 418.959 157.856 422.974C155.538 426.989 156.915 432.133 160.928 434.45C164.941 436.767 170.085 435.387 172.403 431.373C174.721 427.358 173.344 422.213 169.331 419.897Z" fill="#3A4351" fill-opacity="0.03"/>
</g>
<mask id="mask40_87_4" style="mask-type:luminance" maskUnits="userSpaceOnUse" x="-211" y="104" width="569" height="569">
<path d="M-68.4837 634.289C67.2088 712.632 240.747 666.09 319.125 530.336C397.502 394.581 351.04 221.022 215.347 142.68C79.6548 64.3379 -93.8834 110.88 -172.261 246.634C-250.639 382.388 -204.176 555.947 -68.4837 634.289Z" fill="white"/>
</mask>
<g mask="url(#mask40_87_4)">
<path d="M227.719 453.608C223.706 451.291 218.562 452.67 216.244 456.685C213.926 460.7 215.303 465.844 219.316 468.161C223.329 470.478 228.473 469.098 230.791 465.084C233.109 461.069 231.732 455.924 227.719 453.608Z" fill="#3A4351" fill-opacity="0.03"/>
</g>
<mask id="mask41_87_4" style="mask-type:luminance" maskUnits="userSpaceOnUse" x="-211" y="104" width="569" height="569">
<path d="M-68.4837 634.289C67.2088 712.632 240.747 666.09 319.125 530.336C397.502 394.581 351.04 221.022 215.347 142.68C79.6548 64.3379 -93.8834 110.88 -172.261 246.634C-250.639 382.388 -204.176 555.947 -68.4837 634.289Z" fill="white"/>
</mask>
<g mask="url(#mask41_87_4)">
<path d="M286.107 487.317C282.094 485.001 276.951 486.38 274.633 490.395C272.315 494.41 273.692 499.554 277.705 501.871C281.718 504.188 286.862 502.808 289.18 498.794C291.498 494.779 290.12 489.634 286.107 487.317Z" fill="#3A4351" fill-opacity="0.03"/>
</g>
<mask id="mask42_87_4" style="mask-type:luminance" maskUnits="userSpaceOnUse" x="-211" y="104" width="569" height="569">
<path d="M-68.4837 634.289C67.2088 712.632 240.747 666.09 319.125 530.336C397.502 394.581 351.04 221.022 215.347 142.68C79.6548 64.3379 -93.8834 110.88 -172.261 246.634C-250.639 382.388 -204.176 555.947 -68.4837 634.289Z" fill="white"/>
</mask>
<g mask="url(#mask42_87_4)">
<path d="M344.446 521C340.433 518.683 335.289 520.063 332.971 524.078C330.653 528.092 332.03 533.237 336.043 535.554C340.056 537.871 345.2 536.491 347.518 532.476C349.886 528.49 348.509 523.346 344.446 521Z" fill="#3A4351" fill-opacity="0.03"/>
</g>
<mask id="mask43_87_4" style="mask-type:luminance" maskUnits="userSpaceOnUse" x="-211" y="104" width="569" height="569">
<path d="M-68.4837 634.289C67.2088 712.632 240.747 666.09 319.125 530.336C397.502 394.581 351.04 221.022 215.347 142.68C79.6548 64.3379 -93.8834 110.88 -172.261 246.634C-250.639 382.388 -204.176 555.947 -68.4837 634.289Z" fill="white"/>
</mask>
<g mask="url(#mask43_87_4)">
<path d="M-0.904278 375.678C-4.91723 373.361 -10.0611 374.741 -12.379 378.755C-14.6969 382.77 -13.3197 387.915 -9.30679 390.231C-5.29384 392.548 -0.149989 391.169 2.16794 387.154C4.53604 383.168 3.15883 378.024 -0.904278 375.678Z" fill="#3A4351" fill-opacity="0.03"/>
</g>
<mask id="mask44_87_4" style="mask-type:luminance" maskUnits="userSpaceOnUse" x="-211" y="104" width="569" height="569">
<path d="M-68.4837 634.289C67.2088 712.632 240.747 666.09 319.125 530.336C397.502 394.581 351.04 221.022 215.347 142.68C79.6548 64.3379 -93.8834 110.88 -172.261 246.634C-250.639 382.388 -204.176 555.947 -68.4837 634.289Z" fill="white"/>
</mask>
<g mask="url(#mask44_87_4)">
<path d="M57.4839 409.388C53.471 407.071 48.3271 408.45 46.0092 412.465C43.6913 416.48 45.0685 421.625 49.0814 423.941C53.0944 426.258 58.2382 424.879 60.5561 420.864C62.9242 416.878 61.547 411.734 57.4839 409.388Z" fill="#3A4351" fill-opacity="0.03"/>
</g>
<mask id="mask45_87_4" style="mask-type:luminance" maskUnits="userSpaceOnUse" x="-211" y="104" width="569" height="569">
<path d="M-68.4837 634.289C67.2088 712.632 240.747 666.09 319.125 530.336C397.502 394.581 351.04 221.022 215.347 142.68C79.6548 64.3379 -93.8834 110.88 -172.261 246.634C-250.639 382.388 -204.176 555.947 -68.4837 634.289Z" fill="white"/>
</mask>
<g mask="url(#mask45_87_4)">
<path d="M115.873 443.099C111.86 440.782 106.716 442.161 104.398 446.176C102.08 450.191 103.457 455.335 107.47 457.652C111.483 459.969 116.627 458.59 118.945 454.575C121.313 450.589 119.886 445.416 115.873 443.099Z" fill="#3A4351" fill-opacity="0.03"/>
</g>
<mask id="mask46_87_4" style="mask-type:luminance" maskUnits="userSpaceOnUse" x="-211" y="104" width="569" height="569">
<path d="M-68.4837 634.289C67.2088 712.632 240.747 666.09 319.125 530.336C397.502 394.581 351.04 221.022 215.347 142.68C79.6548 64.3379 -93.8834 110.88 -172.261 246.634C-250.639 382.388 -204.176 555.947 -68.4837 634.289Z" fill="white"/>
</mask>
<g mask="url(#mask46_87_4)">
<path d="M174.261 476.81C170.248 474.493 165.104 475.872 162.786 479.887C160.468 483.902 161.845 489.046 165.858 491.363C169.871 493.68 175.015 492.301 177.333 488.286C179.701 484.3 178.274 479.127 174.261 476.81Z" fill="#3A4351" fill-opacity="0.03"/>
</g>
<mask id="mask47_87_4" style="mask-type:luminance" maskUnits="userSpaceOnUse" x="-211" y="104" width="569" height="569">
<path d="M-68.4837 634.289C67.2088 712.632 240.747 666.09 319.125 530.336C397.502 394.581 351.04 221.022 215.347 142.68C79.6548 64.3379 -93.8834 110.88 -172.261 246.634C-250.639 382.388 -204.176 555.947 -68.4837 634.289Z" fill="white"/>
</mask>
<g mask="url(#mask47_87_4)">
<path d="M232.649 510.521C228.636 508.204 223.492 509.583 221.174 513.598C218.856 517.613 220.233 522.757 224.246 525.074C228.259 527.391 233.403 526.012 235.721 521.997C238.039 517.982 236.662 512.838 232.649 510.521Z" fill="#3A4351" fill-opacity="0.03"/>
</g>
<mask id="mask48_87_4" style="mask-type:luminance" maskUnits="userSpaceOnUse" x="-211" y="104" width="569" height="569">
<path d="M-68.4837 634.289C67.2088 712.632 240.747 666.09 319.125 530.336C397.502 394.581 351.04 221.022 215.347 142.68C79.6548 64.3379 -93.8834 110.88 -172.261 246.634C-250.639 382.388 -204.176 555.947 -68.4837 634.289Z" fill="white"/>
</mask>
<g mask="url(#mask48_87_4)">
<path d="M291.038 544.231C287.025 541.914 281.881 543.293 279.563 547.308C277.245 551.323 278.622 556.467 282.635 558.784C286.648 561.101 291.792 559.722 294.11 555.707C296.428 551.692 295.051 546.547 291.038 544.231Z" fill="#3A4351" fill-opacity="0.03"/>
</g>
<mask id="mask49_87_4" style="mask-type:luminance" maskUnits="userSpaceOnUse" x="-211" y="104" width="569" height="569">
<path d="M-68.4837 634.289C67.2088 712.632 240.747 666.09 319.125 530.336C397.502 394.581 351.04 221.022 215.347 142.68C79.6548 64.3379 -93.8834 110.88 -172.261 246.634C-250.639 382.388 -204.176 555.947 -68.4837 634.289Z" fill="white"/>
</mask>
<g mask="url(#mask49_87_4)">
<path d="M-4.09094 450.587C-0.0739093 452.906 5.06349 451.528 7.38378 447.509C9.70407 443.491 8.32859 438.353 4.31156 436.033C0.294534 433.714 -4.84288 435.092 -7.16317 439.111C-9.48346 443.13 -8.10797 448.268 -4.09094 450.587Z" fill="#3A4351" fill-opacity="0.03"/>
</g>
<mask id="mask50_87_4" style="mask-type:luminance" maskUnits="userSpaceOnUse" x="-211" y="104" width="569" height="569">
<path d="M-68.4837 634.289C67.2088 712.632 240.747 666.09 319.125 530.336C397.502 394.581 351.04 221.022 215.347 142.68C79.6548 64.3379 -93.8834 110.88 -172.261 246.634C-250.639 382.388 -204.176 555.947 -68.4837 634.289Z" fill="white"/>
</mask>
<g mask="url(#mask50_87_4)">
<path d="M62.7002 469.743C58.6873 467.426 53.5434 468.806 51.2255 472.821C48.9076 476.836 50.2848 481.98 54.2977 484.297C58.3107 486.614 63.4545 485.234 65.7725 481.219C68.0904 477.205 66.7132 472.06 62.7002 469.743Z" fill="#3A4351" fill-opacity="0.03"/>
</g>
<mask id="mask51_87_4" style="mask-type:luminance" maskUnits="userSpaceOnUse" x="-211" y="104" width="569" height="569">
<path d="M-68.4837 634.289C67.2088 712.632 240.747 666.09 319.125 530.336C397.502 394.581 351.04 221.022 215.347 142.68C79.6548 64.3379 -93.8834 110.88 -172.261 246.634C-250.639 382.388 -204.176 555.947 -68.4837 634.289Z" fill="white"/>
</mask>
<g mask="url(#mask51_87_4)">
<path d="M121.088 503.454C117.075 501.137 111.932 502.517 109.614 506.532C107.296 510.546 108.673 515.691 112.686 518.008C116.699 520.325 121.843 518.945 124.161 514.93C126.479 510.916 125.101 505.771 121.088 503.454Z" fill="#3A4351" fill-opacity="0.03"/>
</g>
<mask id="mask52_87_4" style="mask-type:luminance" maskUnits="userSpaceOnUse" x="-211" y="104" width="569" height="569">
<path d="M-68.4837 634.289C67.2088 712.632 240.747 666.09 319.125 530.336C397.502 394.581 351.04 221.022 215.347 142.68C79.6548 64.3379 -93.8834 110.88 -172.261 246.634C-250.639 382.388 -204.176 555.947 -68.4837 634.289Z" fill="white"/>
</mask>
<g mask="url(#mask52_87_4)">
<path d="M179.477 537.165C175.464 534.848 170.32 536.228 168.002 540.243C165.684 544.257 167.062 549.402 171.075 551.719C175.088 554.036 180.231 552.656 182.549 548.641C184.867 544.627 183.49 539.482 179.477 537.165Z" fill="#3A4351" fill-opacity="0.03"/>
</g>
<mask id="mask53_87_4" style="mask-type:luminance" maskUnits="userSpaceOnUse" x="-211" y="104" width="569" height="569">
<path d="M-68.4837 634.289C67.2088 712.632 240.747 666.09 319.125 530.336C397.502 394.581 351.04 221.022 215.347 142.68C79.6548 64.3379 -93.8834 110.88 -172.261 246.634C-250.639 382.388 -204.176 555.947 -68.4837 634.289Z" fill="white"/>
</mask>
<g mask="url(#mask53_87_4)">
<path d="M237.865 570.876C233.852 568.559 228.708 569.939 226.391 573.954C224.073 577.968 225.45 583.113 229.463 585.43C233.476 587.747 238.62 586.367 240.937 582.352C243.255 578.337 241.878 573.193 237.865 570.876Z" fill="#3A4351" fill-opacity="0.03"/>
</g>
<mask id="mask54_87_4" style="mask-type:luminance" maskUnits="userSpaceOnUse" x="-211" y="104" width="569" height="569">
<path d="M-68.4837 634.289C67.2088 712.632 240.747 666.09 319.125 530.336C397.502 394.581 351.04 221.022 215.347 142.68C79.6548 64.3379 -93.8834 110.88 -172.261 246.634C-250.639 382.388 -204.176 555.947 -68.4837 634.289Z" fill="white"/>
</mask>
<g mask="url(#mask54_87_4)">
<path d="M296.204 604.557C292.191 602.24 287.047 603.619 284.729 607.634C282.411 611.649 283.788 616.793 287.801 619.11C291.814 621.427 296.958 620.048 299.276 616.033C301.644 612.047 300.267 606.903 296.204 604.557Z" fill="#3A4351" fill-opacity="0.03"/>
</g>
<mask id="mask55_87_4" style="mask-type:luminance" maskUnits="userSpaceOnUse" x="-211" y="104" width="569" height="569">
<path d="M-68.4837 634.289C67.2088 712.632 240.747 666.09 319.125 530.336C397.502 394.581 351.04 221.022 215.347 142.68C79.6548 64.3379 -93.8834 110.88 -172.261 246.634C-250.639 382.388 -204.176 555.947 -68.4837 634.289Z" fill="white"/>
</mask>
<g mask="url(#mask55_87_4)">
<path d="M4.25834 501.577C0.245389 499.26 -4.89847 500.64 -7.2164 504.655C-9.53434 508.67 -8.15712 513.814 -4.14417 516.131C-0.131221 518.448 5.0126 517.068 7.33053 513.053C9.64846 509.039 8.32145 503.923 4.25834 501.577Z" fill="#3A4351" fill-opacity="0.03"/>
</g>
<mask id="mask56_87_4" style="mask-type:luminance" maskUnits="userSpaceOnUse" x="-211" y="104" width="569" height="569">
<path d="M-68.4837 634.289C67.2088 712.632 240.747 666.09 319.125 530.336C397.502 394.581 351.04 221.022 215.347 142.68C79.6548 64.3379 -93.8834 110.88 -172.261 246.634C-250.639 382.388 -204.176 555.947 -68.4837 634.289Z" fill="white"/>
</mask>
<g mask="url(#mask56_87_4)">
<path d="M62.647 535.288C58.6341 532.971 53.4902 534.351 51.1723 538.366C48.8543 542.38 50.2316 547.525 54.2445 549.842C58.2575 552.159 63.4013 550.779 65.7192 546.764C68.0372 542.75 66.66 537.605 62.647 535.288Z" fill="#3A4351" fill-opacity="0.03"/>
</g>
<mask id="mask57_87_4" style="mask-type:luminance" maskUnits="userSpaceOnUse" x="-211" y="104" width="569" height="569">
<path d="M-68.4837 634.289C67.2088 712.632 240.747 666.09 319.125 530.336C397.502 394.581 351.04 221.022 215.347 142.68C79.6548 64.3379 -93.8834 110.88 -172.261 246.634C-250.639 382.388 -204.176 555.947 -68.4837 634.289Z" fill="white"/>
</mask>
<g mask="url(#mask57_87_4)">
<path d="M121.035 568.998C117.022 566.681 111.878 568.061 109.56 572.076C107.243 576.09 108.62 581.235 112.633 583.552C116.646 585.869 121.789 584.489 124.107 580.474C126.425 576.46 125.048 571.315 121.035 568.998Z" fill="#3A4351" fill-opacity="0.03"/>
</g>
<mask id="mask58_87_4" style="mask-type:luminance" maskUnits="userSpaceOnUse" x="-211" y="104" width="569" height="569">
<path d="M-68.4837 634.289C67.2088 712.632 240.747 666.09 319.125 530.336C397.502 394.581 351.04 221.022 215.347 142.68C79.6548 64.3379 -93.8834 110.88 -172.261 246.634C-250.639 382.388 -204.176 555.947 -68.4837 634.289Z" fill="white"/>
</mask>
<g mask="url(#mask58_87_4)">
<path d="M179.424 602.71C175.411 600.393 170.267 601.773 167.949 605.788C165.631 609.802 167.008 614.947 171.021 617.264C175.034 619.581 180.178 618.201 182.496 614.186C184.814 610.171 183.437 605.027 179.424 602.71Z" fill="#3A4351" fill-opacity="0.03"/>
</g>
<mask id="mask59_87_4" style="mask-type:luminance" maskUnits="userSpaceOnUse" x="-211" y="104" width="569" height="569">
<path d="M-68.4837 634.289C67.2088 712.632 240.747 666.09 319.125 530.336C397.502 394.581 351.04 221.022 215.347 142.68C79.6548 64.3379 -93.8834 110.88 -172.261 246.634C-250.639 382.388 -204.176 555.947 -68.4837 634.289Z" fill="white"/>
</mask>
<g mask="url(#mask59_87_4)">
<path d="M237.812 636.42C233.799 634.103 228.655 635.483 226.337 639.498C224.019 643.512 225.397 648.657 229.41 650.974C233.422 653.29 238.566 651.911 240.884 647.896C243.202 643.881 241.825 638.737 237.812 636.42Z" fill="#3A4351" fill-opacity="0.03"/>
</g>
<mask id="mask60_87_4" style="mask-type:luminance" maskUnits="userSpaceOnUse" x="-211" y="104" width="569" height="569">
<path d="M-68.4837 634.289C67.2088 712.632 240.747 666.09 319.125 530.336C397.502 394.581 351.04 221.022 215.347 142.68C79.6548 64.3379 -93.8834 110.88 -172.261 246.634C-250.639 382.388 -204.176 555.947 -68.4837 634.289Z" fill="white"/>
</mask>
<g mask="url(#mask60_87_4)">
<path d="M9.47465 561.933C5.4617 559.616 0.317838 560.995 -2.00009 565.01C-4.31803 569.025 -2.94081 574.169 1.07214 576.486C5.08509 578.803 10.2289 577.424 12.5469 573.409C14.8648 569.394 13.4876 564.25 9.47465 561.933Z" fill="#3A4351" fill-opacity="0.03"/>
</g>
<mask id="mask61_87_4" style="mask-type:luminance" maskUnits="userSpaceOnUse" x="-211" y="104" width="569" height="569">
<path d="M-68.4837 634.289C67.2088 712.632 240.747 666.09 319.125 530.336C397.502 394.581 351.04 221.022 215.347 142.68C79.6548 64.3379 -93.8834 110.88 -172.261 246.634C-250.639 382.388 -204.176 555.947 -68.4837 634.289Z" fill="white"/>
</mask>
<g mask="url(#mask61_87_4)">
<path d="M67.8628 595.644C63.8499 593.327 58.706 594.706 56.3881 598.721C54.0702 602.736 55.4474 607.88 59.4603 610.197C63.4733 612.514 68.6171 611.135 70.935 607.12C73.253 603.105 71.8758 597.961 67.8628 595.644Z" fill="#3A4351" fill-opacity="0.03"/>
</g>
<mask id="mask62_87_4" style="mask-type:luminance" maskUnits="userSpaceOnUse" x="-211" y="104" width="569" height="569">
<path d="M-68.4837 634.289C67.2088 712.632 240.747 666.09 319.125 530.336C397.502 394.581 351.04 221.022 215.347 142.68C79.6548 64.3379 -93.8834 110.88 -172.261 246.634C-250.639 382.388 -204.176 555.947 -68.4837 634.289Z" fill="white"/>
</mask>
<g mask="url(#mask62_87_4)">
<path d="M126.251 629.355C122.239 627.038 117.095 628.417 114.777 632.432C112.459 636.447 113.836 641.591 117.849 643.908C121.862 646.225 127.006 644.846 129.324 640.831C131.642 636.816 130.264 631.671 126.251 629.355Z" fill="#3A4351" fill-opacity="0.03"/>
</g>
<mask id="mask63_87_4" style="mask-type:luminance" maskUnits="userSpaceOnUse" x="-211" y="104" width="569" height="569">
<path d="M-68.4837 634.289C67.2088 712.632 240.747 666.09 319.125 530.336C397.502 394.581 351.04 221.022 215.347 142.68C79.6548 64.3379 -93.8834 110.88 -172.261 246.634C-250.639 382.388 -204.176 555.947 -68.4837 634.289Z" fill="white"/>
</mask>
<g mask="url(#mask63_87_4)">
<path d="M184.64 663.066C180.627 660.749 175.483 662.128 173.165 666.143C170.847 670.158 172.224 675.302 176.237 677.619C180.25 679.936 185.394 678.556 187.712 674.542C190.03 670.527 188.653 665.382 184.64 663.066Z" fill="#3A4351" fill-opacity="0.03"/>
</g>
<mask id="mask64_87_4" style="mask-type:luminance" maskUnits="userSpaceOnUse" x="-211" y="104" width="569" height="569">
<path d="M-68.4837 634.289C67.2088 712.632 240.747 666.09 319.125 530.336C397.502 394.581 351.04 221.022 215.347 142.68C79.6548 64.3379 -93.8834 110.88 -172.261 246.634C-250.639 382.388 -204.176 555.947 -68.4837 634.289Z" fill="white"/>
</mask>
<g mask="url(#mask64_87_4)">
</g>
<mask id="mask65_87_4" style="mask-type:luminance" maskUnits="userSpaceOnUse" x="-211" y="104" width="569" height="569">
<path d="M-68.4837 634.289C67.2088 712.632 240.747 666.09 319.125 530.336C397.502 394.581 351.04 221.022 215.347 142.68C79.6548 64.3379 -93.8834 110.88 -172.261 246.634C-250.639 382.388 -204.176 555.947 -68.4837 634.289Z" fill="white"/>
</mask>
<g mask="url(#mask65_87_4)">
<path d="M14.4048 618.846C10.3919 616.529 5.24804 617.908 2.9301 621.923C0.612171 625.938 1.98936 631.083 6.00231 633.399C10.0153 635.716 15.1591 634.337 17.4771 630.322C19.8451 626.336 18.4178 621.163 14.4048 618.846Z" fill="#3A4351" fill-opacity="0.03"/>
</g>
<mask id="mask66_87_4" style="mask-type:luminance" maskUnits="userSpaceOnUse" x="-211" y="104" width="569" height="569">
<path d="M-68.4837 634.289C67.2088 712.632 240.747 666.09 319.125 530.336C397.502 394.581 351.04 221.022 215.347 142.68C79.6548 64.3379 -93.8834 110.88 -172.261 246.634C-250.639 382.388 -204.176 555.947 -68.4837 634.289Z" fill="white"/>
</mask>
<g mask="url(#mask66_87_4)">
<path d="M72.7935 652.557C68.7805 650.24 63.6367 651.619 61.3188 655.634C59.0008 659.649 60.378 664.793 64.391 667.11C68.4039 669.427 73.5478 668.048 75.8657 664.033C78.2338 660.047 76.8064 654.874 72.7935 652.557Z" fill="#3A4351" fill-opacity="0.03"/>
</g>
<mask id="mask67_87_4" style="mask-type:luminance" maskUnits="userSpaceOnUse" x="-211" y="104" width="569" height="569">
<path d="M-68.4837 634.289C67.2088 712.632 240.747 666.09 319.125 530.336C397.502 394.581 351.04 221.022 215.347 142.68C79.6548 64.3379 -93.8834 110.88 -172.261 246.634C-250.639 382.388 -204.176 555.947 -68.4837 634.289Z" fill="white"/>
</mask>
<g mask="url(#mask67_87_4)">
</g>
<mask id="mask68_87_4" style="mask-type:luminance" maskUnits="userSpaceOnUse" x="-211" y="104" width="569" height="569">
<path d="M-68.4837 634.289C67.2088 712.632 240.747 666.09 319.125 530.336C397.502 394.581 351.04 221.022 215.347 142.68C79.6548 64.3379 -93.8834 110.88 -172.261 246.634C-250.639 382.388 -204.176 555.947 -68.4837 634.289Z" fill="white"/>
</mask>
<g mask="url(#mask68_87_4)">
</g>
<mask id="mask69_87_4" style="mask-type:luminance" maskUnits="userSpaceOnUse" x="-211" y="104" width="569" height="569">
<path d="M-68.4837 634.289C67.2088 712.632 240.747 666.09 319.125 530.336C397.502 394.581 351.04 221.022 215.347 142.68C79.6548 64.3379 -93.8834 110.88 -172.261 246.634C-250.639 382.388 -204.176 555.947 -68.4837 634.289Z" fill="white"/>
</mask>
<g mask="url(#mask69_87_4)">
</g>
<mask id="mask70_87_4" style="mask-type:luminance" maskUnits="userSpaceOnUse" x="-211" y="104" width="569" height="569">
<path d="M-68.4837 634.289C67.2088 712.632 240.747 666.09 319.125 530.336C397.502 394.581 351.04 221.022 215.347 142.68C79.6548 64.3379 -93.8834 110.88 -172.261 246.634C-250.639 382.388 -204.176 555.947 -68.4837 634.289Z" fill="white"/>
</mask>
<g mask="url(#mask70_87_4)">
</g>
<mask id="mask71_87_4" style="mask-type:luminance" maskUnits="userSpaceOnUse" x="-211" y="104" width="569" height="569">
<path d="M-68.4837 634.289C67.2088 712.632 240.747 666.09 319.125 530.336C397.502 394.581 351.04 221.022 215.347 142.68C79.6548 64.3379 -93.8834 110.88 -172.261 246.634C-250.639 382.388 -204.176 555.947 -68.4837 634.289Z" fill="white"/>
</mask>
<g mask="url(#mask71_87_4)">
</g>
<mask id="mask72_87_4" style="mask-type:luminance" maskUnits="userSpaceOnUse" x="-211" y="104" width="569" height="569">
<path d="M-68.4837 634.289C67.2088 712.632 240.747 666.09 319.125 530.336C397.502 394.581 351.04 221.022 215.347 142.68C79.6548 64.3379 -93.8834 110.88 -172.261 246.634C-250.639 382.388 -204.176 555.947 -68.4837 634.289Z" fill="white"/>
</mask>
<g mask="url(#mask72_87_4)">
</g>
</svg>
